<?xml version="1.0" encoding="UTF-8"?>
<svg id="Layer_1" data-name="Layer 1" xmlns="http://www.w3.org/2000/svg" xmlns:xlink="http://www.w3.org/1999/xlink" viewBox="0 0 585.8 234.03">
  <defs>
    <style>
      .cls-1 {
        fill: #ffffc0;
      }

      .cls-2 {
        fill: #3f3f3f;
      }

      .cls-3 {
        fill: #fff;
      }

      .cls-4, .cls-5, .cls-6 {
        fill: none;
      }

      .cls-7 {
        clip-path: url(#clippath-1);
      }

      .cls-5, .cls-6 {
        stroke: red;
        stroke-width: .63px;
      }

      .cls-6 {
        stroke-miterlimit: 10;
      }

      .cls-8 {
        clip-path: url(#clippath);
      }
    </style>
    <clipPath id="clippath">
      <rect class="cls-4" x="25.5" width="560.3" height="792"/>
    </clipPath>
    <clipPath id="clippath-1">
      <rect class="cls-4" width="612" height="791.97"/>
    </clipPath>
  </defs>
  <g class="cls-8">
    <g class="cls-7">
      <rect class="cls-3" x="25.5" width="560.34" height="791.83"/>
    </g>
  </g>
  <path d="M73.3,77.09c0,.46-.05.91-.13,1.36-.09.45-.22.88-.4,1.31-.18.42-.39.82-.64,1.2-.25.38-.54.73-.87,1.06-.32.32-.68.61-1.06.87-.38.25-.78.47-1.2.64-.42.17-.86.31-1.31.4-.45.09-.9.13-1.36.13s-.91-.04-1.36-.13c-.45-.09-.88-.22-1.31-.4s-.82-.39-1.21-.64c-.38-.25-.73-.54-1.06-.87-.32-.32-.61-.68-.87-1.06-.25-.38-.47-.78-.64-1.2-.17-.42-.31-.86-.4-1.31-.09-.45-.13-.9-.13-1.36s.04-.91.13-1.36c.09-.45.22-.88.4-1.31.17-.42.39-.82.64-1.2.25-.38.54-.73.87-1.05.32-.32.68-.61,1.06-.87.38-.25.78-.47,1.21-.64.42-.17.86-.31,1.31-.4.45-.09.9-.13,1.36-.13s.91.04,1.36.13c.45.09.88.22,1.31.4.42.18.82.39,1.2.64.38.25.73.54,1.06.87.32.32.61.67.87,1.05.25.38.47.78.64,1.2.18.42.31.86.4,1.31.09.45.13.9.13,1.36"/>
  <path class="cls-5" d="M73.3,77.09c0,.46-.05.91-.13,1.36-.09.45-.22.88-.4,1.31-.17.42-.39.82-.64,1.2-.25.38-.54.73-.87,1.06-.32.32-.68.61-1.06.87-.38.25-.78.47-1.2.64-.42.17-.86.31-1.31.4-.45.09-.9.13-1.36.13s-.91-.04-1.36-.13-.88-.22-1.31-.4c-.42-.17-.82-.39-1.2-.64-.38-.25-.73-.54-1.06-.87-.32-.32-.61-.68-.87-1.06-.25-.38-.47-.78-.64-1.2-.17-.42-.31-.86-.4-1.31-.09-.45-.13-.9-.13-1.36s.05-.91.13-1.36c.09-.45.22-.88.4-1.31.17-.42.39-.82.64-1.2.25-.38.54-.73.87-1.06.32-.32.68-.61,1.06-.87.38-.25.78-.47,1.2-.64.42-.17.86-.31,1.31-.4s.9-.13,1.36-.13.91.04,1.36.13c.45.09.88.22,1.31.4.42.17.82.39,1.2.64.38.25.73.54,1.06.87.32.32.61.68.87,1.06s.47.78.64,1.2c.18.42.31.86.4,1.31.09.45.13.9.13,1.36"/>
  <line class="cls-6" x1="75.83" y1="77.09" x2="118.74" y2="77.09"/>
  <polyline class="cls-6" points="113.75 79.94 119.45 77.09 113.75 74.24"/>
  <path class="cls-1" d="M130.29,64.42h30.4c.67,0,1.32.07,1.98.2.65.13,1.29.32,1.9.58.62.25,1.2.57,1.75.94.55.37,1.06.79,1.54,1.26.47.47.89.98,1.26,1.54.37.55.68,1.14.94,1.75.26.61.45,1.25.58,1.9.13.65.19,1.31.19,1.98v5.07c0,.66-.06,1.32-.19,1.98-.13.65-.32,1.29-.58,1.9s-.57,1.2-.94,1.75c-.37.55-.79,1.07-1.26,1.54-.47.47-.98.89-1.54,1.26-.55.37-1.14.68-1.75.94-.61.25-1.25.45-1.9.58-.65.13-1.31.2-1.98.2h-30.4c-.67,0-1.32-.07-1.98-.2-.65-.13-1.29-.32-1.9-.58-.61-.26-1.2-.57-1.75-.94-.55-.37-1.06-.79-1.54-1.26-.47-.47-.89-.98-1.26-1.54-.37-.55-.68-1.14-.94-1.75-.26-.61-.45-1.25-.58-1.9-.13-.65-.19-1.31-.19-1.98v-5.07c0-.66.07-1.32.19-1.98.13-.65.32-1.29.58-1.9.25-.61.57-1.2.94-1.75.37-.55.79-1.07,1.26-1.54.47-.47.98-.89,1.54-1.26.55-.37,1.14-.68,1.75-.94.61-.26,1.25-.45,1.9-.58.65-.13,1.31-.2,1.98-.2"/>
  <path class="cls-5" d="M130.29,64.42h30.4c.67,0,1.32.07,1.98.2.65.13,1.29.32,1.9.58.62.25,1.2.57,1.75.94.55.37,1.06.79,1.54,1.26.47.47.89.98,1.26,1.54.37.55.68,1.14.94,1.75.26.62.45,1.25.58,1.9.13.65.19,1.31.19,1.98v5.07c0,.67-.06,1.32-.19,1.98-.13.65-.32,1.29-.58,1.9s-.57,1.2-.94,1.75c-.37.55-.79,1.07-1.26,1.54-.47.47-.98.89-1.54,1.26-.55.37-1.14.68-1.75.94-.61.25-1.25.45-1.9.58-.65.13-1.31.2-1.98.2h-30.4c-.67,0-1.32-.07-1.98-.2-.65-.13-1.29-.32-1.9-.58-.61-.26-1.2-.57-1.75-.94-.55-.37-1.06-.79-1.54-1.26-.47-.47-.89-.98-1.26-1.54-.37-.55-.68-1.14-.94-1.75-.26-.61-.45-1.25-.58-1.9-.13-.65-.19-1.31-.19-1.98v-5.07c0-.66.06-1.32.19-1.98.13-.65.32-1.29.58-1.9.25-.61.57-1.2.94-1.75.37-.55.79-1.07,1.26-1.54.47-.47.98-.89,1.54-1.26.55-.37,1.14-.68,1.75-.94.62-.25,1.25-.45,1.9-.58.65-.13,1.31-.2,1.98-.2"/>
  <rect x="136.58" y="73.87" width=".67" height="5.44"/>
  <path d="M138.72,77.34c0,.5.11.88.33,1.13.22.25.5.38.83.38s.61-.13.83-.38c.22-.25.33-.64.33-1.15,0-.49-.11-.86-.33-1.11-.22-.25-.5-.38-.83-.38s-.61.12-.83.37c-.22.25-.33.63-.33,1.13M138.03,77.34c0-.73.2-1.27.61-1.62.34-.29.75-.44,1.24-.44.54,0,.98.18,1.33.53.34.35.52.84.52,1.47,0,.51-.08.91-.23,1.2-.15.29-.37.52-.66.68-.29.16-.61.24-.95.24-.55,0-1-.18-1.34-.53-.34-.35-.51-.86-.51-1.53"/>
  <path d="M142.94,77.27c0,.52.1.89.31,1.13.2.24.46.36.77.36s.56-.12.77-.35c.21-.24.31-.61.31-1.11s-.11-.85-.32-1.09c-.21-.24-.47-.37-.77-.37s-.55.12-.76.36c-.21.24-.31.6-.31,1.07M142.38,79.63l.65.1c.03.2.1.35.23.44.17.12.39.19.68.19.31,0,.55-.06.72-.19.17-.12.28-.3.34-.52.03-.14.05-.42.05-.86-.29.34-.65.52-1.09.52-.54,0-.96-.19-1.26-.59-.3-.39-.45-.86-.45-1.41,0-.37.07-.72.2-1.04.14-.32.33-.56.59-.74.26-.17.56-.26.91-.26.46,0,.85.19,1.15.56v-.47h.62v3.41c0,.61-.06,1.05-.19,1.3-.12.26-.32.46-.59.61-.27.15-.6.22-1,.22-.47,0-.85-.11-1.14-.32-.29-.21-.43-.53-.42-.96"/>
  <path d="M148.84,79.31v-3.94h.67v3.94h-.67M148.84,74.64v-.77h.67v.77h-.67"/>
  <path d="M150.52,79.31v-3.94h.6v.56c.29-.43.71-.65,1.25-.65.24,0,.45.04.65.13.2.09.35.2.45.34.1.14.17.3.21.49.02.12.04.34.04.65v2.42h-.67v-2.4c0-.27-.03-.47-.08-.61-.05-.13-.14-.24-.28-.32-.13-.08-.29-.12-.47-.12-.28,0-.53.09-.74.27-.21.18-.31.52-.31,1.03v2.15h-.67"/>
  <line class="cls-6" x1="170.82" y1="77.09" x2="226.4" y2="77.09"/>
  <polyline class="cls-6" points="221.41 79.94 227.11 77.09 221.41 74.24"/>
  <path class="cls-1" d="M237.95,64.42h55.73c.67,0,1.32.07,1.98.2.65.13,1.29.32,1.9.58.61.25,1.2.57,1.75.94.55.37,1.07.79,1.54,1.26.47.47.89.98,1.26,1.54.37.55.68,1.14.94,1.75.26.61.45,1.25.58,1.9.13.65.19,1.31.19,1.98v5.07c0,.66-.07,1.32-.19,1.98-.13.65-.32,1.29-.58,1.9-.25.61-.57,1.2-.94,1.75-.37.55-.79,1.07-1.26,1.54-.47.47-.98.89-1.54,1.26-.55.37-1.14.68-1.75.94-.61.25-1.25.45-1.9.58-.65.13-1.31.2-1.98.2h-55.73c-.67,0-1.32-.07-1.98-.2-.65-.13-1.29-.32-1.9-.58-.61-.26-1.2-.57-1.75-.94-.55-.37-1.06-.79-1.54-1.26-.47-.47-.89-.98-1.26-1.54-.37-.55-.68-1.14-.94-1.75s-.45-1.25-.58-1.9c-.13-.65-.19-1.31-.19-1.98v-5.07c0-.66.07-1.32.19-1.98.13-.65.32-1.29.58-1.9.26-.61.57-1.2.94-1.75.37-.55.79-1.07,1.26-1.54.47-.47.98-.89,1.54-1.26.55-.37,1.14-.68,1.75-.94.61-.26,1.25-.45,1.9-.58.65-.13,1.31-.2,1.98-.2"/>
  <path class="cls-5" d="M237.95,64.42h55.73c.66,0,1.32.07,1.98.2.65.13,1.29.32,1.9.58.62.25,1.2.57,1.75.94.55.37,1.07.79,1.54,1.26.47.47.89.98,1.26,1.54.37.55.68,1.14.94,1.75.25.62.45,1.25.58,1.9.13.65.19,1.31.19,1.98v5.07c0,.67-.07,1.32-.19,1.98-.13.65-.32,1.29-.58,1.9-.26.61-.57,1.2-.94,1.75-.37.55-.79,1.07-1.26,1.54-.47.47-.98.89-1.54,1.26-.55.37-1.14.68-1.75.94-.61.25-1.25.45-1.9.58-.65.13-1.31.2-1.98.2h-55.73c-.67,0-1.32-.07-1.98-.2-.65-.13-1.29-.32-1.9-.58-.61-.26-1.2-.57-1.75-.94-.55-.37-1.06-.79-1.54-1.26-.47-.47-.89-.98-1.26-1.54-.37-.55-.68-1.14-.94-1.75s-.45-1.25-.58-1.9c-.13-.65-.19-1.31-.19-1.98v-5.07c0-.66.06-1.32.19-1.98.13-.65.32-1.29.58-1.9.26-.61.57-1.2.94-1.75.37-.55.79-1.07,1.26-1.54.47-.47.98-.89,1.54-1.26.55-.37,1.14-.68,1.75-.94.62-.25,1.25-.45,1.9-.58.65-.13,1.31-.2,1.98-.2"/>
  <path d="M239.74,78.66h1.35c.23,0,.4,0,.49-.03.17-.03.3-.08.42-.15.11-.07.2-.17.27-.3.07-.13.11-.28.11-.46,0-.2-.05-.38-.16-.53-.1-.15-.25-.25-.43-.32-.18-.06-.45-.09-.8-.09h-1.26v1.87M239.74,76.15h1.18c.32,0,.55-.02.69-.06.18-.05.32-.14.41-.27.09-.13.14-.28.14-.47,0-.18-.04-.34-.13-.48-.09-.14-.21-.23-.37-.28-.16-.05-.44-.08-.83-.08h-1.09v1.64M239.02,79.31v-5.44h2.04c.42,0,.75.05,1,.17.25.11.45.28.59.51.14.23.21.47.21.72,0,.23-.06.45-.19.66-.13.2-.32.37-.57.5.33.1.58.26.76.49.18.23.27.51.27.82,0,.25-.05.49-.16.71s-.24.39-.4.51c-.16.12-.36.21-.6.27-.24.06-.53.09-.88.09h-2.07"/>
  <path d="M244.02,79.31v-3.94h.6v.6c.15-.28.3-.46.42-.55.13-.09.27-.13.43-.13.22,0,.45.07.69.22l-.23.62c-.16-.1-.33-.14-.49-.14-.14,0-.28.04-.39.13-.11.09-.2.21-.25.37-.07.24-.11.5-.11.78v2.06h-.67"/>
  <path d="M246.99,77.34c0,.5.11.88.33,1.13.22.25.5.38.83.38s.61-.13.83-.38c.22-.25.33-.64.33-1.15,0-.49-.11-.86-.33-1.11-.22-.25-.5-.38-.83-.38s-.61.12-.83.37c-.22.25-.33.63-.33,1.13M246.31,77.34c0-.73.2-1.27.61-1.62.34-.29.75-.44,1.24-.44.54,0,.98.18,1.33.53.34.35.52.84.52,1.47,0,.51-.08.91-.23,1.2-.15.29-.37.52-.66.68-.29.16-.61.24-.95.24-.55,0-1-.18-1.34-.53-.34-.35-.51-.86-.51-1.53"/>
  <path d="M251.51,79.31l-1.21-3.94h.69l.63,2.27.23.85s.08-.31.2-.81l.63-2.31h.69l.59,2.29.2.75.23-.76.68-2.28h.65l-1.23,3.94h-.69l-.63-2.36-.15-.67-.8,3.03h-.7"/>
  <path d="M256,78.13l.66-.1c.04.26.14.47.31.61.17.14.41.21.71.21s.53-.06.68-.19c.15-.12.22-.27.22-.44,0-.15-.06-.27-.2-.36-.09-.06-.32-.13-.68-.23-.49-.12-.83-.23-1.02-.32-.19-.09-.33-.22-.43-.37-.1-.16-.15-.34-.15-.53,0-.17.04-.34.12-.49.08-.15.19-.27.33-.37.1-.08.24-.14.42-.19.18-.05.37-.08.58-.08.31,0,.58.04.81.13.23.09.41.21.52.36.11.15.19.35.23.61l-.65.09c-.03-.2-.12-.36-.26-.47-.14-.11-.34-.17-.6-.17-.31,0-.53.05-.66.15-.13.1-.2.22-.2.36,0,.09.03.16.08.23.05.07.14.13.26.18.07.02.26.08.59.17.47.13.8.23.99.31.19.08.33.2.44.35.11.15.16.34.16.57s-.06.43-.19.63c-.13.2-.32.35-.56.46-.24.11-.52.16-.83.16-.51,0-.9-.11-1.17-.32-.27-.21-.44-.53-.51-.95"/>
  <path d="M260.57,76.96h2.2c-.03-.33-.11-.58-.25-.75-.21-.26-.49-.39-.83-.39-.31,0-.56.1-.77.31-.21.2-.32.48-.35.82M262.77,78.04l.69.09c-.11.4-.31.72-.6.94-.29.22-.67.33-1.13.33-.58,0-1.03-.18-1.37-.53-.34-.35-.51-.85-.51-1.49s.17-1.18.51-1.54c.34-.37.78-.55,1.33-.55s.96.18,1.29.54c.33.36.5.86.5,1.51,0,.04,0,.1,0,.18h-2.94c.02.43.15.76.37.99.22.23.49.35.82.35.24,0,.45-.06.63-.19.17-.13.31-.33.41-.62"/>
  <path d="M268.97,77.86l.66.09c-.07.45-.25.81-.55,1.06-.29.26-.66.38-1.09.38-.54,0-.97-.18-1.3-.53-.33-.35-.49-.86-.49-1.52,0-.42.07-.8.21-1.12.14-.32.35-.56.64-.72.29-.16.6-.24.94-.24.43,0,.78.11,1.05.32.27.22.45.52.52.92l-.65.1c-.06-.26-.17-.46-.33-.6-.16-.13-.35-.2-.57-.2-.34,0-.61.12-.82.36-.21.24-.32.62-.32,1.14s.1.91.3,1.15c.2.24.47.36.79.36.26,0,.48-.08.66-.24.17-.16.29-.41.33-.74"/>
  <path d="M270.64,77.34c0,.5.11.88.33,1.13.22.25.5.38.83.38s.61-.13.83-.38c.22-.25.33-.64.33-1.15,0-.49-.11-.86-.33-1.11-.22-.25-.5-.38-.83-.38s-.61.12-.83.37c-.22.25-.33.63-.33,1.13M269.95,77.34c0-.73.2-1.27.61-1.62.34-.29.75-.44,1.24-.44.54,0,.98.18,1.33.53.34.35.52.84.52,1.47,0,.51-.08.91-.23,1.2-.15.29-.37.52-.66.68-.29.16-.61.24-.95.24-.55,0-1-.18-1.34-.53-.34-.35-.51-.86-.51-1.53"/>
  <path d="M277.01,79.31v-.58c-.31.45-.72.67-1.25.67-.23,0-.45-.04-.65-.13-.2-.09-.35-.2-.45-.34-.1-.13-.17-.3-.21-.5-.03-.13-.04-.34-.04-.62v-2.44h.67v2.19c0,.35.01.58.04.71.04.17.13.31.27.41.14.1.3.15.5.15s.39-.05.56-.15c.17-.1.3-.24.37-.42.07-.18.11-.43.11-.77v-2.11h.67v3.94h-.6"/>
  <path d="M278.64,79.31v-3.94h.6v.6c.15-.28.29-.46.42-.55.13-.09.27-.13.43-.13.22,0,.45.07.69.22l-.23.62c-.16-.1-.33-.14-.49-.14-.14,0-.28.04-.39.13-.11.09-.2.21-.25.37-.07.24-.11.5-.11.78v2.06h-.67"/>
  <path d="M280.91,78.13l.66-.1c.04.26.14.47.31.61.17.14.41.21.71.21s.53-.06.68-.19c.15-.12.22-.27.22-.44,0-.15-.06-.27-.2-.36-.09-.06-.32-.13-.68-.23-.49-.12-.83-.23-1.02-.32-.19-.09-.33-.22-.43-.37-.1-.16-.15-.34-.15-.53,0-.17.04-.34.12-.49.08-.15.19-.27.33-.37.1-.08.24-.14.42-.19.18-.05.37-.08.58-.08.31,0,.58.04.81.13.23.09.41.21.52.36.11.15.19.35.23.61l-.65.09c-.03-.2-.12-.36-.26-.47-.14-.11-.34-.17-.6-.17-.31,0-.53.05-.66.15-.13.1-.2.22-.2.36,0,.09.03.16.08.23.05.07.14.13.26.18.07.02.26.08.59.17.47.13.8.23.99.31.19.08.33.2.44.35.11.15.16.34.16.57s-.06.43-.19.63c-.13.2-.32.35-.56.46-.24.11-.52.16-.83.16-.51,0-.9-.11-1.17-.32-.27-.21-.44-.53-.51-.95"/>
  <path d="M285.48,76.96h2.2c-.03-.33-.11-.58-.25-.75-.21-.26-.49-.39-.83-.39-.31,0-.56.1-.77.31-.21.2-.32.48-.35.82M287.68,78.04l.69.09c-.11.4-.31.72-.6.94-.29.22-.67.33-1.13.33-.58,0-1.03-.18-1.37-.53-.34-.35-.51-.85-.51-1.49s.17-1.18.51-1.54c.34-.37.78-.55,1.33-.55s.96.18,1.29.54c.33.36.5.86.5,1.51,0,.04,0,.1,0,.18h-2.94c.02.43.15.76.37.99.22.23.49.35.82.35.24,0,.45-.06.63-.19.17-.13.31-.33.41-.62"/>
  <path d="M288.94,78.13l.66-.1c.04.26.14.47.31.61.17.14.41.21.71.21s.53-.06.68-.19c.15-.12.22-.27.22-.44,0-.15-.06-.27-.2-.36-.09-.06-.32-.13-.68-.23-.49-.12-.83-.23-1.02-.32-.19-.09-.33-.22-.43-.37-.1-.16-.15-.34-.15-.53,0-.17.04-.34.12-.49.08-.15.19-.27.33-.37.1-.08.24-.14.42-.19.18-.05.37-.08.58-.08.31,0,.58.04.81.13.23.09.41.21.52.36.11.15.19.35.23.61l-.65.09c-.03-.2-.12-.36-.26-.47-.14-.11-.34-.17-.6-.17-.31,0-.53.05-.66.15-.13.1-.2.22-.2.36,0,.09.03.16.08.23.05.07.14.13.26.18.07.02.26.08.59.17.47.13.8.23.99.31.19.08.33.2.44.35.11.15.16.34.16.57s-.06.43-.19.63c-.13.2-.32.35-.56.46-.24.11-.52.16-.83.16-.51,0-.9-.11-1.17-.32-.27-.21-.44-.53-.51-.95"/>
  <line class="cls-6" x1="303.81" y1="77.09" x2="372.05" y2="77.09"/>
  <polyline class="cls-6" points="367.06 79.94 372.76 77.09 367.06 74.24"/>
  <path class="cls-1" d="M383.6,64.42h55.73c.66,0,1.32.07,1.98.2.65.13,1.29.32,1.9.58.62.25,1.2.57,1.75.94.55.37,1.07.79,1.54,1.26.47.47.89.98,1.26,1.54.37.55.68,1.14.94,1.75.26.61.45,1.25.58,1.9.13.65.2,1.31.2,1.98v5.07c0,.66-.07,1.32-.2,1.98-.13.65-.32,1.29-.58,1.9s-.57,1.2-.94,1.75c-.37.55-.79,1.07-1.26,1.54-.47.47-.98.89-1.54,1.26-.55.37-1.14.68-1.75.94-.61.25-1.25.45-1.9.58-.65.13-1.31.2-1.98.2h-55.73c-.67,0-1.32-.07-1.98-.2-.65-.13-1.29-.32-1.9-.58-.61-.26-1.2-.57-1.75-.94-.55-.37-1.06-.79-1.54-1.26-.47-.47-.89-.98-1.26-1.54-.37-.55-.68-1.14-.94-1.75s-.45-1.25-.58-1.9c-.13-.65-.19-1.31-.19-1.98v-5.07c0-.66.07-1.32.19-1.98.13-.65.32-1.29.58-1.9.26-.61.57-1.2.94-1.75.37-.55.79-1.07,1.26-1.54.47-.47.98-.89,1.54-1.26.55-.37,1.14-.68,1.75-.94.62-.26,1.25-.45,1.9-.58.65-.13,1.31-.2,1.98-.2"/>
  <path class="cls-5" d="M383.6,64.42h55.73c.66,0,1.32.07,1.98.2.65.13,1.29.32,1.9.58.62.25,1.2.57,1.75.94.55.37,1.07.79,1.54,1.26.47.47.89.98,1.26,1.54.37.55.68,1.14.94,1.75.25.62.45,1.25.58,1.9.13.65.19,1.31.19,1.98v5.07c0,.67-.07,1.32-.19,1.98-.13.65-.32,1.29-.58,1.9-.26.61-.57,1.2-.94,1.75-.37.55-.79,1.07-1.26,1.54-.47.47-.98.89-1.54,1.26-.55.37-1.14.68-1.75.94-.61.25-1.25.45-1.9.58-.65.13-1.31.2-1.98.2h-55.73c-.67,0-1.32-.07-1.98-.2-.65-.13-1.29-.32-1.9-.58-.61-.26-1.2-.57-1.75-.94-.55-.37-1.06-.79-1.54-1.26-.47-.47-.89-.98-1.26-1.54-.37-.55-.68-1.14-.94-1.75s-.45-1.25-.58-1.9c-.13-.65-.19-1.31-.19-1.98v-5.07c0-.66.06-1.32.19-1.98.13-.65.32-1.29.58-1.9.26-.61.57-1.2.94-1.75.37-.55.79-1.07,1.26-1.54.47-.47.98-.89,1.54-1.26.55-.37,1.14-.68,1.75-.94.62-.25,1.25-.45,1.9-.58.65-.13,1.31-.2,1.98-.2"/>
  <path d="M386.88,77.4l.72.18c-.15.59-.42,1.04-.81,1.35-.39.31-.87.47-1.44.47s-1.06-.12-1.43-.36c-.37-.24-.65-.58-.84-1.04-.19-.45-.29-.94-.29-1.46,0-.57.11-1.06.32-1.48.22-.42.52-.74.92-.96.4-.22.84-.33,1.32-.33.54,0,1,.14,1.37.42.37.28.63.67.78,1.17l-.71.17c-.13-.4-.31-.68-.55-.86-.24-.18-.54-.27-.91-.27-.42,0-.77.1-1.05.3-.28.2-.48.47-.59.81-.11.34-.17.68-.17,1.04,0,.46.07.87.2,1.21.13.35.34.6.63.77.28.17.59.26.92.26.4,0,.74-.12,1.02-.35.28-.23.47-.58.57-1.04"/>
  <path d="M388.4,79.31v-5.44h.67v1.95c.31-.36.7-.54,1.18-.54.29,0,.55.06.76.17s.37.27.46.48c.09.2.14.5.14.88v2.5h-.67v-2.5c0-.33-.07-.58-.22-.73s-.35-.23-.61-.23c-.2,0-.38.05-.56.15-.17.1-.3.24-.37.42-.07.17-.11.42-.11.73v2.16h-.67"/>
  <path d="M393.07,77.34c0,.5.11.88.33,1.13.22.25.5.38.83.38s.61-.13.83-.38c.22-.25.33-.64.33-1.15,0-.49-.11-.86-.33-1.11-.22-.25-.5-.38-.83-.38s-.61.12-.83.37c-.22.25-.33.63-.33,1.13M392.38,77.34c0-.73.2-1.27.61-1.62.34-.29.75-.44,1.24-.44.54,0,.98.18,1.33.53.34.35.52.84.52,1.47,0,.51-.08.91-.23,1.2-.15.29-.37.52-.66.68-.29.16-.61.24-.95.24-.55,0-1-.18-1.34-.53-.34-.35-.51-.86-.51-1.53"/>
  <path d="M397.29,77.34c0,.5.11.88.33,1.13.22.25.5.38.83.38s.61-.13.83-.38c.22-.25.33-.64.33-1.15,0-.49-.11-.86-.33-1.11-.22-.25-.5-.38-.83-.38s-.61.12-.83.37c-.22.25-.33.63-.33,1.13M396.6,77.34c0-.73.2-1.27.61-1.62.34-.29.75-.44,1.24-.44.54,0,.98.18,1.33.53.34.35.52.84.52,1.47,0,.51-.08.91-.23,1.2-.15.29-.37.52-.66.68-.29.16-.61.24-.95.24-.55,0-1-.18-1.34-.53-.34-.35-.51-.86-.51-1.53"/>
  <path d="M400.81,78.13l.66-.1c.04.26.14.47.31.61.17.14.41.21.71.21s.53-.06.68-.19c.15-.12.22-.27.22-.44,0-.15-.06-.27-.2-.36-.09-.06-.32-.13-.68-.23-.49-.12-.83-.23-1.02-.32-.19-.09-.33-.22-.43-.37-.1-.16-.15-.34-.15-.53,0-.17.04-.34.12-.49.08-.15.19-.27.33-.37.1-.08.24-.14.42-.19.18-.05.37-.08.58-.08.31,0,.58.04.81.13.23.09.41.21.52.36.11.15.19.35.23.61l-.65.09c-.03-.2-.12-.36-.26-.47-.14-.11-.34-.17-.6-.17-.31,0-.53.05-.66.15-.13.1-.2.22-.2.36,0,.09.03.16.08.23.05.07.14.13.26.18.07.02.26.08.59.17.47.13.8.23.99.31.19.08.33.2.44.35.11.15.16.34.16.57s-.06.43-.19.63c-.13.2-.32.35-.56.46-.24.11-.52.16-.83.16-.51,0-.9-.11-1.17-.32-.27-.21-.44-.53-.51-.95"/>
  <path d="M405.38,76.96h2.2c-.03-.33-.11-.58-.25-.75-.21-.26-.49-.39-.83-.39-.31,0-.56.1-.77.31-.21.2-.32.48-.35.82M407.58,78.04l.69.09c-.11.4-.31.72-.6.94-.29.22-.67.33-1.13.33-.58,0-1.03-.18-1.37-.53-.34-.35-.51-.85-.51-1.49s.17-1.18.51-1.54c.34-.37.78-.55,1.33-.55s.96.18,1.29.54c.33.36.5.86.5,1.51,0,.04,0,.1,0,.18h-2.94c.02.43.15.76.37.99.22.23.49.35.82.35.24,0,.45-.06.63-.19.17-.13.31-.33.41-.62"/>
  <path d="M413.72,77.33c-.24.1-.6.18-1.09.25-.27.04-.47.08-.58.13-.11.05-.2.12-.26.22-.06.09-.09.2-.09.32,0,.18.07.33.2.45.13.12.33.18.59.18s.49-.06.69-.17c.2-.11.35-.27.44-.46.07-.15.11-.37.11-.67v-.24M413.78,78.82c-.25.21-.48.36-.71.45-.23.09-.47.13-.74.13-.43,0-.76-.11-1-.32-.23-.21-.35-.48-.35-.81,0-.19.04-.37.13-.53.09-.16.2-.29.35-.38.14-.1.3-.17.48-.22.13-.03.33-.07.59-.1.54-.06.94-.14,1.19-.23,0-.09,0-.15,0-.17,0-.27-.06-.46-.19-.58-.17-.15-.42-.23-.76-.23-.31,0-.55.05-.7.17-.15.11-.26.3-.33.58l-.65-.09c.06-.28.16-.5.29-.68.14-.17.33-.3.59-.4.26-.09.55-.14.89-.14s.61.04.82.12c.21.08.36.18.46.3.1.12.17.27.21.45.02.11.03.32.03.62v.89c0,.62.01,1.01.04,1.18.03.16.08.32.17.47h-.7c-.07-.14-.11-.3-.13-.49"/>
  <path d="M420.11,77.86l.66.09c-.07.45-.25.81-.55,1.06-.29.26-.66.38-1.09.38-.54,0-.97-.18-1.3-.53-.33-.35-.49-.86-.49-1.52,0-.42.07-.8.21-1.12.14-.32.35-.56.64-.72.29-.16.6-.24.94-.24.43,0,.78.11,1.05.32.27.22.45.52.52.92l-.65.1c-.06-.26-.17-.46-.33-.6-.16-.13-.35-.2-.57-.2-.34,0-.61.12-.82.36-.21.24-.32.62-.32,1.14s.1.91.3,1.15c.2.24.47.36.79.36.26,0,.48-.08.66-.24.17-.16.29-.41.33-.74"/>
  <path d="M421.78,77.34c0,.5.11.88.33,1.13.22.25.5.38.83.38s.61-.13.83-.38c.22-.25.33-.64.33-1.15,0-.49-.11-.86-.33-1.11-.22-.25-.5-.38-.83-.38s-.61.12-.83.37c-.22.25-.33.63-.33,1.13M421.09,77.34c0-.73.2-1.27.61-1.62.34-.29.75-.44,1.24-.44.54,0,.98.18,1.33.53.34.35.52.84.52,1.47,0,.51-.08.91-.23,1.2-.15.29-.37.52-.66.68-.29.16-.61.24-.95.24-.55,0-1-.18-1.34-.53-.34-.35-.51-.86-.51-1.53"/>
  <path d="M428.14,79.31v-.58c-.31.45-.72.67-1.25.67-.23,0-.45-.04-.65-.13-.2-.09-.35-.2-.45-.34-.1-.13-.17-.3-.21-.5-.03-.13-.04-.34-.04-.62v-2.44h.67v2.19c0,.35.01.58.04.71.04.17.13.31.27.41.14.1.3.15.5.15s.39-.05.56-.15c.17-.1.3-.24.37-.42.07-.18.11-.43.11-.77v-2.11h.67v3.94h-.6"/>
  <path d="M429.78,79.31v-3.94h.6v.6c.15-.28.29-.46.42-.55.13-.09.27-.13.43-.13.22,0,.45.07.69.22l-.23.62c-.16-.1-.33-.14-.49-.14-.14,0-.28.04-.39.13-.11.09-.2.21-.25.37-.07.24-.11.5-.11.78v2.06h-.67"/>
  <path d="M432.05,78.13l.66-.1c.04.26.14.47.31.61.17.14.41.21.71.21s.53-.06.68-.19c.15-.12.22-.27.22-.44,0-.15-.06-.27-.2-.36-.09-.06-.32-.13-.68-.23-.49-.12-.83-.23-1.02-.32-.19-.09-.33-.22-.43-.37-.1-.16-.15-.34-.15-.53,0-.17.04-.34.12-.49.08-.15.19-.27.33-.37.1-.08.24-.14.42-.19.18-.05.37-.08.58-.08.31,0,.58.04.81.13.23.09.41.21.52.36.11.15.19.35.23.61l-.65.09c-.03-.2-.12-.36-.26-.47-.14-.11-.34-.17-.6-.17-.31,0-.53.05-.66.15-.13.1-.2.22-.2.36,0,.09.03.16.08.23.05.07.14.13.26.18.07.02.26.08.59.17.47.13.8.23.99.31.19.08.33.2.44.35.11.15.16.34.16.57s-.06.43-.19.63c-.13.2-.32.35-.56.46-.24.11-.52.16-.83.16-.51,0-.9-.11-1.17-.32-.27-.21-.44-.53-.51-.95"/>
  <path d="M436.62,76.96h2.2c-.03-.33-.11-.58-.25-.75-.21-.26-.49-.39-.83-.39-.31,0-.56.1-.77.31-.21.2-.32.48-.35.82M438.82,78.04l.69.09c-.11.4-.31.72-.6.94-.29.22-.67.33-1.13.33-.58,0-1.03-.18-1.37-.53-.34-.35-.51-.85-.51-1.49s.17-1.18.51-1.54c.34-.37.78-.55,1.33-.55s.96.18,1.29.54c.33.36.5.86.5,1.51,0,.04,0,.1,0,.18h-2.94c.02.43.15.76.37.99.22.23.49.35.82.35.24,0,.45-.06.63-.19.17-.13.31-.33.41-.62"/>
  <line class="cls-6" x1="411.46" y1="89.76" x2="411.46" y2="104.17"/>
  <polyline class="cls-6" points="408.61 99.18 411.46 104.88 414.31 99.18"/>
  <polyline class="cls-1" points="411.47 105.59 487.46 127.75 411.47 149.92 335.47 127.75 411.47 105.59"/>
  <polygon class="cls-6" points="411.46 105.59 487.46 127.75 411.46 149.92 335.47 127.75 411.46 105.59"/>
  <path d="M382.37,127.62h2.2c-.03-.33-.11-.58-.25-.75-.21-.26-.49-.39-.83-.39-.31,0-.56.1-.77.31-.21.2-.32.48-.35.82M384.56,128.7l.69.09c-.11.4-.31.72-.6.94-.29.22-.67.33-1.13.33-.58,0-1.03-.18-1.37-.53-.34-.35-.51-.85-.51-1.49s.17-1.18.51-1.54c.34-.37.78-.55,1.33-.55s.96.18,1.29.54c.33.36.5.86.5,1.51,0,.04,0,.1,0,.18h-2.94c.02.43.15.76.37.99.22.23.49.35.82.35.24,0,.45-.06.63-.19.17-.13.31-.33.41-.62"/>
  <rect x="386.08" y="124.53" width=".67" height="5.44"/>
  <path d="M387.78,129.97v-3.94h.67v3.94h-.67M387.78,125.3v-.77h.67v.77h-.67"/>
  <path d="M389.9,127.93c0,.52.1.89.31,1.13.2.24.46.36.77.36s.56-.12.77-.35c.21-.24.31-.61.31-1.11s-.11-.85-.32-1.09c-.21-.24-.47-.37-.77-.37s-.55.12-.76.36c-.21.24-.31.6-.31,1.07M389.34,130.29l.65.1c.03.2.1.35.23.44.17.12.39.19.68.19.31,0,.55-.06.72-.19.17-.12.28-.3.34-.52.03-.14.05-.42.05-.86-.29.34-.65.52-1.09.52-.54,0-.96-.19-1.26-.59-.3-.39-.45-.86-.45-1.41,0-.37.07-.72.2-1.04.14-.32.33-.56.59-.74.26-.17.56-.26.91-.26.46,0,.85.19,1.15.56v-.47h.62v3.41c0,.61-.06,1.05-.19,1.3-.12.26-.32.46-.59.61-.27.15-.6.22-1,.22-.47,0-.85-.11-1.14-.32-.29-.21-.43-.53-.42-.96"/>
  <path d="M393.69,129.97v-3.94h.67v3.94h-.67M393.69,125.3v-.77h.67v.77h-.67"/>
  <path d="M395.99,127.97c0,.47.06.81.19,1.02.21.34.49.52.85.52.29,0,.54-.13.76-.38.21-.25.32-.63.32-1.13s-.1-.89-.31-1.14c-.2-.24-.45-.37-.74-.37s-.54.13-.76.38c-.21.25-.32.62-.32,1.1M395.99,129.97h-.62v-5.44h.67v1.94c.28-.35.64-.53,1.08-.53.24,0,.47.05.69.15.22.1.39.23.53.41.14.18.25.39.33.64.08.25.12.52.12.8,0,.68-.17,1.2-.5,1.57-.33.37-.73.55-1.2.55s-.83-.19-1.09-.58v.49"/>
  <rect x="399.59" y="124.53" width=".67" height="5.44"/>
  <path d="M401.8,127.62h2.2c-.03-.33-.11-.58-.25-.75-.21-.26-.49-.39-.83-.39-.31,0-.56.1-.77.31-.21.2-.32.48-.35.82M403.99,128.7l.69.09c-.11.4-.31.72-.6.94-.29.22-.67.33-1.13.33-.58,0-1.03-.18-1.37-.53-.34-.35-.51-.85-.51-1.49s.17-1.18.51-1.54c.34-.37.78-.55,1.33-.55s.96.18,1.29.54c.33.36.5.86.5,1.51,0,.04,0,.1,0,.18h-2.94c.02.43.15.76.37.99.22.23.49.35.82.35.24,0,.45-.06.63-.19.17-.13.31-.33.41-.62"/>
  <path d="M407.78,129.97v-3.42h-.59v-.52h.59v-.42c0-.26.02-.46.07-.59.06-.17.18-.31.34-.42.16-.11.39-.16.68-.16.19,0,.4.02.62.07l-.1.58c-.14-.02-.27-.04-.39-.04-.2,0-.35.04-.43.13-.08.09-.13.25-.13.49v.36h.77v.52h-.77v3.42h-.66"/>
  <path d="M410.16,128c0,.5.11.88.33,1.13.22.25.5.38.83.38s.61-.13.83-.38c.22-.25.33-.64.33-1.15,0-.49-.11-.86-.33-1.11-.22-.25-.5-.38-.83-.38s-.61.12-.83.37c-.22.25-.33.63-.33,1.13M409.48,128c0-.73.2-1.27.61-1.62.34-.29.75-.44,1.24-.44.54,0,.98.18,1.33.53.34.35.52.84.52,1.47,0,.51-.08.91-.23,1.2-.15.29-.37.52-.66.68-.29.16-.61.24-.95.24-.55,0-1-.18-1.34-.53-.34-.35-.51-.86-.51-1.53"/>
  <path d="M413.94,129.97v-3.94h.6v.6c.15-.28.29-.46.42-.55.13-.09.27-.13.43-.13.22,0,.45.07.69.22l-.23.62c-.16-.1-.33-.14-.49-.14-.14,0-.28.04-.39.13-.11.09-.2.21-.25.37-.07.24-.11.5-.11.78v2.06h-.67"/>
  <path class="cls-2" d="M421.19,128.52l.66.09c-.07.45-.25.81-.55,1.06-.29.26-.66.38-1.09.38-.54,0-.97-.18-1.3-.53-.33-.35-.49-.86-.49-1.52,0-.42.07-.8.21-1.12.14-.32.35-.56.64-.72.29-.16.6-.24.94-.24.43,0,.78.11,1.05.32.27.22.45.52.52.92l-.65.1c-.06-.26-.17-.46-.33-.6-.16-.13-.35-.2-.57-.2-.34,0-.61.12-.82.36-.21.24-.32.62-.32,1.14s.1.91.3,1.15c.2.24.47.36.79.36.26,0,.48-.08.66-.24.17-.16.29-.41.33-.74"/>
  <path class="cls-2" d="M422.85,128c0,.5.11.88.33,1.13.22.25.5.38.83.38s.61-.13.83-.38c.22-.25.33-.64.33-1.15,0-.49-.11-.86-.33-1.11-.22-.25-.5-.38-.83-.38s-.61.12-.83.37c-.22.25-.33.63-.33,1.13M422.17,128c0-.73.2-1.27.61-1.62.34-.29.75-.44,1.24-.44.54,0,.98.18,1.33.53.34.35.52.84.52,1.47,0,.51-.08.91-.23,1.2-.15.29-.37.52-.66.68-.29.16-.61.24-.95.24-.55,0-1-.18-1.34-.53-.34-.35-.51-.86-.51-1.53"/>
  <path class="cls-2" d="M429.22,129.97v-.58c-.31.45-.72.67-1.25.67-.23,0-.45-.04-.65-.13-.2-.09-.35-.2-.45-.34-.1-.13-.17-.3-.21-.5-.03-.13-.04-.34-.04-.62v-2.44h.67v2.19c0,.35.01.58.04.71.04.17.13.31.27.41.14.1.3.15.5.15s.39-.05.56-.15c.17-.1.3-.24.37-.42.07-.18.11-.43.11-.77v-2.11h.67v3.94h-.6"/>
  <path class="cls-2" d="M430.86,129.97v-3.94h.6v.6c.15-.28.29-.46.42-.55.13-.09.27-.13.43-.13.22,0,.45.07.69.22l-.23.62c-.16-.1-.33-.14-.49-.14-.14,0-.28.04-.39.13-.11.09-.2.21-.25.37-.07.24-.11.5-.11.78v2.06h-.67"/>
  <path class="cls-2" d="M433.13,128.79l.66-.1c.04.26.14.47.31.61.17.14.41.21.71.21s.53-.06.68-.19c.15-.12.22-.27.22-.44,0-.15-.06-.27-.2-.36-.09-.06-.32-.13-.68-.23-.49-.12-.83-.23-1.02-.32-.19-.09-.33-.22-.43-.37-.1-.16-.15-.34-.15-.53,0-.17.04-.34.12-.49.08-.15.19-.27.33-.37.1-.08.24-.14.42-.19.18-.05.37-.08.58-.08.31,0,.58.04.81.13.23.09.41.21.52.36.11.15.19.35.23.61l-.65.09c-.03-.2-.12-.36-.26-.47-.14-.11-.34-.17-.6-.17-.31,0-.53.05-.66.15-.13.1-.2.22-.2.36,0,.09.03.16.08.23.05.07.14.13.26.18.07.02.26.08.59.17.47.13.8.23.99.31.19.08.33.2.44.35.11.15.16.34.16.57s-.06.43-.19.63c-.13.2-.32.35-.56.46-.24.11-.52.16-.83.16-.51,0-.9-.11-1.17-.32-.27-.21-.44-.53-.51-.95"/>
  <path class="cls-2" d="M437.7,127.62h2.2c-.03-.33-.11-.58-.25-.75-.21-.26-.49-.39-.83-.39-.31,0-.56.1-.77.31-.21.2-.32.48-.35.82M439.89,128.7l.69.09c-.11.4-.31.72-.6.94-.29.22-.67.33-1.13.33-.58,0-1.03-.18-1.37-.53-.34-.35-.51-.85-.51-1.49s.17-1.18.51-1.54c.34-.37.78-.55,1.33-.55s.96.18,1.29.54c.33.36.5.86.5,1.51,0,.04,0,.1,0,.18h-2.94c.02.43.15.76.37.99.22.23.49.35.82.35.24,0,.45-.06.63-.19.17-.13.31-.33.41-.62"/>
  <polyline class="cls-6" points="411.46 149.92 411.46 178.41 473.37 178.41"/>
  <polyline class="cls-6" points="468.38 181.26 474.08 178.41 468.38 175.57"/>
  <rect class="cls-3" x="414.32" y="168.6" width="7.6" height="8.23"/>
  <path d="M414.77,174.93v-3.61h.55v.51c.27-.4.65-.6,1.15-.6.22,0,.42.04.6.12.18.08.32.18.41.31.09.13.15.28.19.45.02.11.03.31.03.6v2.22h-.61v-2.2c0-.25-.02-.44-.07-.56-.05-.12-.13-.22-.25-.3-.12-.07-.26-.11-.43-.11-.26,0-.48.08-.68.25-.19.16-.28.48-.28.94v1.97h-.61"/>
  <path d="M419.05,173.13c0,.46.1.81.3,1.04.2.23.46.35.76.35s.56-.12.76-.35c.2-.23.3-.58.3-1.06,0-.45-.1-.78-.3-1.02-.2-.23-.45-.35-.76-.35s-.56.11-.76.34c-.2.23-.3.57-.3,1.04M418.42,173.13c0-.67.19-1.16.56-1.49.31-.27.69-.4,1.14-.4.5,0,.9.16,1.22.49.31.32.47.77.47,1.35,0,.46-.07.83-.21,1.1-.14.27-.34.47-.61.62-.27.15-.56.22-.87.22-.51,0-.91-.16-1.23-.49-.31-.32-.47-.79-.47-1.4"/>
  <line class="cls-6" x1="335.47" y1="127.75" x2="292.56" y2="127.75"/>
  <polyline class="cls-6" points="297.55 124.9 291.85 127.75 297.55 130.6"/>
  <rect class="cls-3" x="325.02" y="112.87" width="10.77" height="8.23"/>
  <path d="M325.46,120.59l-.07-.57c.13.04.25.05.35.05.14,0,.24-.02.33-.07.08-.04.15-.11.2-.19.04-.06.1-.21.19-.46.01-.03.03-.08.05-.15l-1.37-3.62h.66l.75,2.09c.1.27.18.54.26.84.07-.28.15-.55.25-.82l.77-2.11h.61l-1.37,3.67c-.15.4-.26.67-.34.82-.11.2-.23.35-.37.44-.14.09-.31.14-.5.14-.12,0-.25-.02-.39-.07"/>
  <path d="M329.43,117.05h2.02c-.03-.3-.1-.53-.23-.68-.19-.23-.45-.35-.76-.35-.28,0-.52.09-.71.28-.19.19-.3.44-.32.76M331.44,118.04l.63.08c-.1.37-.28.66-.55.86-.27.2-.61.31-1.03.31-.53,0-.95-.16-1.26-.49-.31-.32-.46-.78-.46-1.37s.16-1.08.47-1.41c.31-.34.72-.5,1.22-.5s.88.16,1.18.49c.31.33.46.79.46,1.39,0,.04,0,.09,0,.16h-2.69c.02.4.13.7.34.91.2.21.45.32.76.32.22,0,.41-.06.57-.18.16-.12.28-.31.38-.56"/>
  <path d="M332.6,118.12l.61-.1c.03.24.13.43.28.56.15.13.37.19.65.19s.49-.06.63-.17c.14-.11.2-.25.2-.4,0-.14-.06-.25-.18-.33-.08-.05-.29-.12-.63-.21-.45-.11-.76-.21-.93-.29-.17-.08-.3-.2-.39-.34-.09-.15-.13-.31-.13-.48,0-.16.04-.31.11-.45.07-.14.17-.25.3-.34.1-.07.22-.13.39-.18.16-.05.34-.07.53-.07.28,0,.53.04.75.12.21.08.37.19.47.33s.17.32.21.56l-.6.08c-.03-.19-.11-.33-.24-.44-.13-.1-.31-.16-.55-.16-.28,0-.48.05-.6.14-.12.09-.18.2-.18.33,0,.08.02.15.07.21.05.06.13.12.23.16.06.02.24.07.54.16.43.12.73.21.91.28.17.07.3.18.4.32.1.14.15.31.15.52s-.06.4-.18.58-.29.32-.52.42c-.22.1-.48.15-.76.15-.47,0-.83-.1-1.07-.29-.24-.19-.4-.48-.47-.87"/>
  <path class="cls-1" d="M212.62,115.09h68.39c.67,0,1.33.07,1.98.2.65.13,1.29.32,1.9.58.62.25,1.2.57,1.75.94.55.37,1.07.79,1.54,1.26s.89.98,1.26,1.54c.37.55.68,1.14.94,1.75.25.62.45,1.25.58,1.9.13.65.2,1.31.2,1.98v5.07c0,.66-.07,1.32-.2,1.98-.13.65-.32,1.29-.58,1.9-.26.61-.57,1.2-.94,1.75-.37.55-.79,1.07-1.26,1.54-.47.47-.98.89-1.54,1.26-.55.37-1.14.68-1.75.94-.61.25-1.25.45-1.9.58-.65.13-1.31.2-1.98.2h-68.39c-.67,0-1.32-.07-1.98-.2-.65-.13-1.29-.32-1.9-.58-.61-.26-1.2-.57-1.75-.94-.55-.37-1.06-.79-1.54-1.26-.47-.47-.89-.98-1.26-1.54-.37-.55-.68-1.14-.94-1.75s-.45-1.25-.58-1.9c-.13-.65-.19-1.31-.19-1.98v-5.07c0-.67.07-1.32.19-1.98.13-.65.32-1.29.58-1.9.26-.61.57-1.2.94-1.75.37-.55.79-1.07,1.26-1.54.47-.47.98-.89,1.54-1.26.55-.37,1.14-.68,1.75-.94.62-.26,1.25-.45,1.9-.58.65-.13,1.31-.2,1.98-.2"/>
  <path class="cls-5" d="M212.62,115.09h68.39c.67,0,1.32.07,1.98.19.65.13,1.29.32,1.9.58.61.25,1.2.57,1.75.94.55.37,1.07.79,1.54,1.26.47.47.89.98,1.26,1.54.37.55.68,1.14.94,1.75.26.62.45,1.25.58,1.9.13.65.19,1.31.19,1.98v5.07c0,.67-.07,1.32-.19,1.98-.13.65-.32,1.29-.58,1.9-.25.61-.57,1.2-.94,1.75-.37.55-.79,1.07-1.26,1.54-.47.47-.98.89-1.54,1.26-.55.37-1.14.68-1.75.94-.61.26-1.25.45-1.9.58-.65.13-1.31.2-1.98.2h-68.39c-.67,0-1.32-.07-1.98-.2-.65-.13-1.29-.32-1.9-.58-.61-.25-1.2-.57-1.75-.93-.55-.37-1.06-.79-1.54-1.26-.47-.47-.89-.98-1.26-1.54-.37-.55-.68-1.14-.94-1.75s-.45-1.25-.58-1.9c-.13-.65-.19-1.31-.19-1.98v-5.07c0-.66.06-1.32.19-1.98.13-.65.32-1.29.58-1.9.26-.61.57-1.2.94-1.75.37-.55.79-1.07,1.26-1.54.47-.47.98-.89,1.54-1.26.55-.37,1.14-.68,1.75-.94.62-.25,1.25-.45,1.9-.58.65-.13,1.31-.19,1.98-.19"/>
  <path d="M212.4,128.52l.66.09c-.07.45-.25.81-.55,1.06-.29.26-.66.38-1.09.38-.54,0-.97-.18-1.3-.53-.33-.35-.49-.86-.49-1.52,0-.42.07-.8.21-1.12.14-.32.35-.56.64-.72.29-.16.6-.24.94-.24.43,0,.78.11,1.05.32.27.22.45.52.52.92l-.65.1c-.06-.26-.17-.46-.33-.6-.16-.13-.35-.2-.57-.2-.34,0-.61.12-.82.36-.21.24-.32.62-.32,1.14s.1.91.3,1.15c.2.24.47.36.79.36.26,0,.48-.08.66-.24.17-.16.29-.41.33-.74"/>
  <path d="M214.06,128c0,.5.11.88.33,1.13.22.25.5.38.83.38s.61-.13.83-.38c.22-.25.33-.64.33-1.15,0-.49-.11-.86-.33-1.11-.22-.25-.5-.38-.83-.38s-.61.12-.83.37c-.22.25-.33.63-.33,1.13M213.38,128c0-.73.2-1.27.61-1.62.34-.29.75-.44,1.24-.44.54,0,.98.18,1.33.53.34.35.52.84.52,1.47,0,.51-.08.91-.23,1.2-.15.29-.37.52-.66.68-.29.16-.61.24-.95.24-.55,0-1-.18-1.34-.53-.34-.35-.51-.86-.51-1.53"/>
  <path d="M217.85,129.97v-3.94h.6v.56c.29-.43.71-.65,1.25-.65.24,0,.45.04.65.13.2.09.35.2.45.34.1.14.17.3.21.49.02.12.04.34.04.65v2.42h-.67v-2.4c0-.27-.03-.47-.08-.61-.05-.13-.14-.24-.28-.32-.13-.08-.29-.12-.47-.12-.28,0-.53.09-.74.27-.21.18-.31.52-.31,1.03v2.15h-.67"/>
  <path d="M222.23,129.97v-3.42h-.59v-.52h.59v-.42c0-.26.02-.46.07-.59.06-.17.18-.31.34-.42.16-.11.39-.16.68-.16.19,0,.4.02.62.07l-.1.58c-.14-.02-.27-.04-.39-.04-.2,0-.35.04-.43.13-.08.09-.13.25-.13.49v.36h.77v.52h-.77v3.42h-.66"/>
  <path d="M224.18,129.97v-3.94h.67v3.94h-.67M224.18,125.3v-.77h.67v.77h-.67"/>
  <path d="M225.86,129.97v-3.94h.6v.6c.15-.28.3-.46.42-.55.13-.09.27-.13.43-.13.22,0,.45.07.69.22l-.23.62c-.16-.1-.33-.14-.49-.14-.14,0-.28.04-.39.13-.11.09-.2.21-.25.37-.07.24-.11.5-.11.78v2.06h-.67"/>
  <path d="M228.4,129.97v-3.94h.6v.55c.12-.19.29-.35.49-.47.2-.12.44-.18.7-.18.29,0,.53.06.72.18.19.12.32.29.4.51.31-.46.72-.69,1.22-.69.39,0,.69.11.9.32.21.22.32.55.32,1v2.71h-.66v-2.48c0-.27-.02-.46-.06-.58-.04-.12-.12-.21-.24-.28-.11-.07-.25-.11-.4-.11-.28,0-.51.09-.69.28-.18.18-.27.48-.27.88v2.29h-.67v-2.56c0-.3-.05-.52-.16-.67-.11-.15-.29-.22-.53-.22-.19,0-.36.05-.52.15-.16.1-.27.24-.35.43-.07.19-.11.46-.11.82v2.04h-.67"/>
  <path d="M237.24,127.99c-.24.1-.6.18-1.09.25-.27.04-.47.08-.58.13-.11.05-.2.12-.26.22-.06.09-.09.2-.09.32,0,.18.07.33.2.45.13.12.33.18.59.18s.49-.06.69-.17c.2-.11.35-.27.44-.46.07-.15.11-.37.11-.67v-.24M237.3,129.48c-.25.21-.48.36-.71.45-.23.09-.47.13-.74.13-.43,0-.76-.11-1-.32-.23-.21-.35-.48-.35-.81,0-.19.04-.37.13-.53.09-.16.2-.29.35-.38.14-.1.3-.17.48-.22.13-.03.33-.07.59-.1.54-.06.93-.14,1.19-.23,0-.09,0-.15,0-.17,0-.27-.06-.46-.19-.58-.17-.15-.42-.23-.76-.23-.31,0-.55.05-.7.17-.15.11-.26.3-.33.58l-.65-.09c.06-.28.16-.5.29-.68.14-.17.33-.3.59-.4.26-.09.55-.14.89-.14s.61.04.82.12c.21.08.36.18.46.3.1.12.17.27.21.45.02.11.03.32.03.62v.89c0,.62.01,1.01.04,1.18.03.16.08.32.17.47h-.7c-.07-.14-.11-.3-.13-.49"/>
  <path d="M240.41,129.37l.1.59c-.19.04-.36.06-.5.06-.24,0-.43-.04-.56-.11-.13-.08-.23-.18-.28-.3-.05-.12-.08-.39-.08-.79v-2.27h-.49v-.52h.49v-.98l.66-.4v1.38h.67v.52h-.67v2.3c0,.19.01.31.04.37.02.05.06.1.12.13.05.03.13.05.23.05.07,0,.17,0,.29-.03"/>
  <path d="M241.06,129.97v-3.94h.67v3.94h-.67M241.06,125.3v-.77h.67v.77h-.67"/>
  <path d="M243.18,128c0,.5.11.88.33,1.13.22.25.5.38.83.38s.61-.13.83-.38c.22-.25.33-.64.33-1.15,0-.49-.11-.86-.33-1.11-.22-.25-.5-.38-.83-.38s-.61.12-.83.37c-.22.25-.33.63-.33,1.13M242.5,128c0-.73.2-1.27.61-1.62.34-.29.75-.44,1.24-.44.54,0,.98.18,1.33.53.34.35.52.84.52,1.47,0,.51-.08.91-.23,1.2-.15.29-.37.52-.66.68-.29.16-.61.24-.95.24-.55,0-1-.18-1.34-.53-.34-.35-.51-.86-.51-1.53"/>
  <path d="M246.97,129.97v-3.94h.6v.56c.29-.43.71-.65,1.25-.65.24,0,.45.04.65.13.2.09.35.2.45.34.1.14.17.3.21.49.02.12.04.34.04.65v2.42h-.67v-2.4c0-.27-.03-.47-.08-.61-.05-.13-.14-.24-.28-.32-.13-.08-.29-.12-.47-.12-.28,0-.53.09-.74.27-.21.18-.31.52-.31,1.03v2.15h-.67"/>
  <path d="M253.33,129.97v-3.94h.6v.55c.12-.19.29-.35.49-.47.2-.12.44-.18.7-.18.29,0,.53.06.72.18.19.12.32.29.4.51.31-.46.72-.69,1.22-.69.39,0,.69.11.9.32.21.22.32.55.32,1v2.71h-.66v-2.48c0-.27-.02-.46-.06-.58-.04-.12-.12-.21-.24-.28-.11-.07-.25-.11-.4-.11-.28,0-.51.09-.69.28-.18.18-.27.48-.27.88v2.29h-.67v-2.56c0-.3-.05-.52-.16-.67-.11-.15-.29-.22-.53-.22-.19,0-.36.05-.52.15-.16.1-.27.24-.35.43-.07.19-.11.46-.11.82v2.04h-.67"/>
  <path d="M260.17,127.62h2.2c-.03-.33-.11-.58-.25-.75-.21-.26-.49-.39-.83-.39-.31,0-.56.1-.77.31-.21.2-.32.48-.35.82M262.36,128.7l.69.09c-.11.4-.31.72-.6.94-.29.22-.67.33-1.13.33-.58,0-1.03-.18-1.37-.53-.34-.35-.51-.85-.51-1.49s.17-1.18.51-1.54c.34-.37.78-.55,1.33-.55s.96.18,1.29.54c.33.36.5.86.5,1.51,0,.04,0,.1,0,.18h-2.94c.02.43.15.76.37.99.22.23.49.35.82.35.24,0,.45-.06.63-.19.17-.13.31-.33.41-.62"/>
  <path d="M263.62,128.79l.66-.1c.04.26.14.47.31.61.17.14.41.21.71.21s.53-.06.68-.19c.15-.12.22-.27.22-.44,0-.15-.06-.27-.2-.36-.09-.06-.32-.13-.68-.23-.49-.12-.83-.23-1.02-.32-.19-.09-.33-.22-.43-.37-.1-.16-.15-.34-.15-.53,0-.17.04-.34.12-.49.08-.15.19-.27.33-.37.1-.08.24-.14.42-.19.18-.05.37-.08.58-.08.31,0,.58.04.81.13.23.09.41.21.52.36.11.15.19.35.23.61l-.65.09c-.03-.2-.12-.36-.26-.47-.14-.11-.34-.17-.6-.17-.31,0-.53.05-.66.15-.13.1-.2.22-.2.36,0,.09.03.16.08.23.05.07.14.13.26.18.07.02.26.08.59.17.47.13.8.23.99.31.19.08.33.2.44.35.11.15.16.34.16.57s-.06.43-.19.63c-.13.2-.32.35-.56.46-.24.11-.52.16-.83.16-.51,0-.9-.11-1.17-.32-.27-.21-.44-.53-.51-.95"/>
  <path d="M267.42,128.79l.66-.1c.04.26.14.47.31.61.17.14.41.21.71.21s.53-.06.68-.19c.15-.12.22-.27.22-.44,0-.15-.06-.27-.2-.36-.09-.06-.32-.13-.68-.23-.49-.12-.83-.23-1.02-.32-.19-.09-.33-.22-.43-.37-.1-.16-.15-.34-.15-.53,0-.17.04-.34.12-.49.08-.15.19-.27.33-.37.1-.08.24-.14.42-.19.18-.05.37-.08.58-.08.31,0,.58.04.81.13.23.09.41.21.52.36.11.15.19.35.23.61l-.65.09c-.03-.2-.12-.36-.26-.47-.14-.11-.34-.17-.6-.17-.31,0-.53.05-.66.15-.13.1-.2.22-.2.36,0,.09.03.16.08.23.05.07.14.13.26.18.07.02.26.08.59.17.47.13.8.23.99.31.19.08.33.2.44.35.11.15.16.34.16.57s-.06.43-.19.63c-.13.2-.32.35-.56.46-.24.11-.52.16-.83.16-.51,0-.9-.11-1.17-.32-.27-.21-.44-.53-.51-.95"/>
  <path d="M274,127.99c-.24.1-.6.18-1.09.25-.27.04-.47.08-.58.13-.11.05-.2.12-.26.22-.06.09-.09.2-.09.32,0,.18.07.33.2.45.13.12.33.18.59.18s.49-.06.69-.17c.2-.11.35-.27.44-.46.07-.15.11-.37.11-.67v-.24M274.06,129.48c-.25.21-.48.36-.71.45-.23.09-.47.13-.74.13-.43,0-.76-.11-1-.32-.23-.21-.35-.48-.35-.81,0-.19.04-.37.13-.53.09-.16.2-.29.35-.38.14-.1.3-.17.48-.22.13-.03.33-.07.59-.1.54-.06.94-.14,1.19-.23,0-.09,0-.15,0-.17,0-.27-.06-.46-.19-.58-.17-.15-.42-.23-.76-.23-.31,0-.55.05-.7.17-.15.11-.26.3-.33.58l-.65-.09c.06-.28.16-.5.29-.68.14-.17.33-.3.59-.4.26-.09.55-.14.89-.14s.61.04.82.12c.21.08.36.18.46.3.1.12.17.27.21.45.02.11.03.32.03.62v.89c0,.62.01,1.01.04,1.18.03.16.08.32.17.47h-.7c-.07-.14-.11-.3-.13-.49"/>
  <path d="M276.14,127.93c0,.52.1.89.31,1.13.2.24.46.36.77.36s.56-.12.77-.35c.21-.24.31-.61.31-1.11s-.11-.85-.32-1.09c-.21-.24-.47-.37-.77-.37s-.55.12-.76.36c-.21.24-.31.6-.31,1.07M275.59,130.29l.65.1c.03.2.1.35.23.44.17.12.39.19.68.19.31,0,.55-.06.72-.19.17-.12.28-.3.34-.52.03-.14.05-.42.05-.86-.29.34-.65.52-1.09.52-.54,0-.96-.19-1.26-.59-.3-.39-.45-.86-.45-1.41,0-.37.07-.72.2-1.04.14-.32.33-.56.59-.74.26-.17.56-.26.91-.26.46,0,.85.19,1.15.56v-.47h.62v3.41c0,.61-.06,1.05-.19,1.3-.12.26-.32.46-.59.61-.27.15-.6.22-1,.22-.47,0-.85-.11-1.14-.32-.29-.21-.43-.53-.42-.96"/>
  <path d="M280.44,127.62h2.2c-.03-.33-.11-.58-.25-.75-.21-.26-.49-.39-.83-.39-.31,0-.56.1-.77.31-.21.2-.32.48-.35.82M282.63,128.7l.69.09c-.11.4-.31.72-.6.94-.29.22-.67.33-1.13.33-.58,0-1.03-.18-1.37-.53-.34-.35-.51-.85-.51-1.49s.17-1.18.51-1.54c.34-.37.78-.55,1.33-.55s.96.18,1.29.54c.33.36.5.86.5,1.51,0,.04,0,.1,0,.18h-2.94c.02.43.15.76.37.99.22.23.49.35.82.35.24,0,.45-.06.63-.19.17-.13.31-.33.41-.62"/>
  <line class="cls-6" x1="202.49" y1="127.75" x2="153.24" y2="127.75"/>
  <polyline class="cls-6" points="158.23 124.9 152.53 127.75 158.23 130.6"/>
  <path class="cls-1" d="M484.92,165.75h55.73c.66,0,1.32.07,1.98.19.65.13,1.29.32,1.9.58.61.25,1.2.57,1.75.94.55.37,1.07.79,1.54,1.26.47.47.89.98,1.26,1.54.37.55.68,1.14.94,1.75.26.61.45,1.25.58,1.9.13.65.19,1.31.19,1.98v5.07c0,.66-.07,1.32-.19,1.98-.13.65-.32,1.29-.58,1.9-.26.61-.57,1.2-.94,1.75-.37.55-.79,1.07-1.26,1.54-.47.47-.98.89-1.54,1.26-.55.37-1.14.68-1.75.94-.61.26-1.25.45-1.9.58-.65.13-1.31.2-1.98.2h-55.73c-.67,0-1.32-.07-1.98-.2-.65-.13-1.29-.32-1.9-.58-.61-.25-1.2-.57-1.75-.94-.55-.37-1.06-.79-1.54-1.26-.47-.47-.89-.98-1.26-1.54-.37-.55-.68-1.14-.94-1.75-.26-.61-.45-1.25-.58-1.9-.13-.65-.2-1.31-.2-1.98v-5.07c0-.66.07-1.32.2-1.98.13-.65.32-1.29.58-1.9.26-.61.57-1.2.94-1.75.37-.55.79-1.07,1.26-1.54.47-.47.98-.89,1.54-1.26.55-.37,1.14-.68,1.75-.94.61-.25,1.25-.45,1.9-.58.65-.13,1.31-.19,1.98-.19"/>
  <path class="cls-5" d="M484.92,165.75h55.73c.66,0,1.32.07,1.98.19.65.13,1.29.32,1.9.58.61.25,1.2.57,1.75.94.55.37,1.07.79,1.54,1.26.47.47.89.98,1.26,1.54.37.55.68,1.14.94,1.75.25.62.45,1.25.58,1.9.13.65.2,1.31.2,1.98v5.07c0,.67-.07,1.32-.19,1.98-.13.65-.32,1.29-.58,1.9-.26.61-.57,1.2-.94,1.75-.37.55-.79,1.07-1.26,1.54-.47.47-.98.89-1.54,1.26-.55.37-1.14.68-1.75.94-.61.26-1.25.45-1.9.58-.65.13-1.31.2-1.98.2h-55.73c-.67,0-1.32-.07-1.98-.2-.65-.13-1.29-.32-1.9-.58-.61-.25-1.2-.57-1.75-.94-.55-.37-1.06-.79-1.54-1.26-.47-.47-.89-.98-1.26-1.54-.37-.55-.68-1.14-.94-1.75s-.45-1.25-.58-1.9c-.13-.65-.19-1.31-.19-1.98v-5.07c0-.66.06-1.32.19-1.98.13-.65.32-1.29.58-1.9.26-.61.57-1.2.94-1.75.37-.55.79-1.07,1.26-1.54.47-.47.98-.89,1.54-1.26.55-.37,1.14-.68,1.75-.94.62-.25,1.25-.45,1.9-.58.65-.13,1.31-.19,1.98-.19"/>
  <path d="M488.98,178.28h2.2c-.03-.33-.11-.58-.25-.75-.21-.26-.49-.39-.83-.39-.31,0-.56.1-.77.31-.21.2-.32.48-.35.82M491.17,179.36l.69.09c-.11.4-.31.72-.6.94-.29.22-.67.33-1.13.33-.58,0-1.03-.18-1.37-.53-.34-.35-.51-.85-.51-1.49s.17-1.18.51-1.54c.34-.37.78-.55,1.33-.55s.96.18,1.29.54c.33.36.5.86.5,1.51,0,.04,0,.1,0,.18h-2.94c.02.43.15.76.37.99.22.23.49.35.82.35.24,0,.45-.06.63-.19.17-.13.31-.33.41-.62"/>
  <path d="M492.69,180.63v-3.94h.6v.6c.15-.28.29-.46.42-.55.13-.09.27-.13.43-.13.22,0,.45.07.69.22l-.23.62c-.16-.1-.33-.14-.49-.14-.14,0-.28.04-.39.13-.11.09-.2.21-.25.37-.07.24-.11.5-.11.78v2.06h-.67"/>
  <path d="M495.22,180.63v-3.94h.6v.6c.15-.28.29-.46.42-.55.13-.09.27-.13.43-.13.22,0,.45.07.69.22l-.23.62c-.16-.1-.33-.14-.49-.14-.14,0-.28.04-.39.13-.11.09-.2.21-.25.37-.07.24-.11.5-.11.78v2.06h-.67"/>
  <path d="M498.2,178.66c0,.5.11.88.33,1.13.22.25.5.38.83.38s.61-.13.83-.38c.22-.25.33-.64.33-1.15,0-.49-.11-.86-.33-1.11-.22-.25-.5-.38-.83-.38s-.61.12-.83.37c-.22.25-.33.63-.33,1.13M497.51,178.66c0-.73.2-1.27.61-1.62.34-.29.75-.44,1.24-.44.54,0,.98.18,1.33.53.34.35.52.84.52,1.47,0,.51-.08.91-.23,1.2-.15.29-.37.52-.66.68-.29.16-.61.24-.95.24-.55,0-1-.18-1.34-.53-.34-.35-.51-.86-.51-1.53"/>
  <path d="M501.98,180.63v-3.94h.6v.6c.15-.28.29-.46.42-.55.13-.09.27-.13.43-.13.22,0,.45.07.69.22l-.23.62c-.16-.1-.33-.14-.49-.14-.14,0-.28.04-.39.13-.11.09-.2.21-.25.37-.07.24-.11.5-.11.78v2.06h-.67"/>
  <path d="M506.62,180.63v-3.94h.6v.55c.12-.19.29-.35.49-.47.2-.12.44-.18.7-.18.29,0,.53.06.72.18.19.12.32.29.4.51.31-.46.72-.69,1.22-.69.39,0,.69.11.9.32.21.22.32.55.32,1v2.71h-.66v-2.48c0-.27-.02-.46-.06-.58-.04-.12-.12-.21-.24-.28-.11-.07-.25-.11-.4-.11-.28,0-.51.09-.69.28-.18.18-.27.48-.27.88v2.29h-.67v-2.56c0-.3-.05-.52-.16-.67-.11-.15-.29-.22-.53-.22-.19,0-.36.05-.52.15-.16.1-.27.24-.35.43-.07.19-.11.46-.11.82v2.04h-.67"/>
  <path d="M513.46,178.28h2.2c-.03-.33-.11-.58-.25-.75-.21-.26-.49-.39-.83-.39-.31,0-.56.1-.77.31-.21.2-.32.48-.35.82M515.65,179.36l.69.09c-.11.4-.31.72-.6.94-.29.22-.67.33-1.13.33-.58,0-1.03-.18-1.37-.53-.34-.35-.51-.85-.51-1.49s.17-1.18.51-1.54c.34-.37.78-.55,1.33-.55s.96.18,1.29.54c.33.36.5.86.5,1.51,0,.04,0,.1,0,.18h-2.94c.02.43.15.76.37.99.22.23.49.35.82.35.24,0,.45-.06.63-.19.17-.13.31-.33.41-.62"/>
  <path d="M516.91,179.45l.66-.1c.04.26.14.47.31.61.17.14.41.21.71.21s.53-.06.68-.19c.15-.12.22-.27.22-.44,0-.15-.06-.27-.2-.36-.09-.06-.32-.13-.68-.23-.49-.12-.83-.23-1.02-.32-.19-.09-.33-.22-.43-.37-.1-.16-.15-.34-.15-.53,0-.17.04-.34.12-.49.08-.15.19-.27.33-.37.1-.08.24-.14.42-.19.18-.05.37-.08.58-.08.31,0,.58.04.81.13.23.09.41.21.52.36.11.15.19.35.23.61l-.65.09c-.03-.2-.12-.36-.26-.47-.14-.11-.34-.17-.6-.17-.31,0-.53.05-.66.15-.13.1-.2.22-.2.36,0,.09.03.16.08.23.05.07.14.13.26.18.07.02.26.08.59.17.47.13.8.23.99.31.19.08.33.2.44.35.11.15.16.34.16.57s-.06.43-.19.63c-.13.2-.32.35-.56.46s-.52.16-.83.16c-.51,0-.9-.11-1.17-.32-.27-.21-.44-.53-.51-.95"/>
  <path d="M520.71,179.45l.66-.1c.04.26.14.47.31.61.17.14.41.21.71.21s.53-.06.68-.19c.15-.12.22-.27.22-.44,0-.15-.06-.27-.2-.36-.09-.06-.32-.13-.68-.23-.49-.12-.83-.23-1.02-.32-.19-.09-.33-.22-.43-.37-.1-.16-.15-.34-.15-.53,0-.17.04-.34.12-.49.08-.15.19-.27.33-.37.1-.08.24-.14.42-.19.18-.05.37-.08.58-.08.31,0,.58.04.81.13.23.09.41.21.52.36.11.15.19.35.23.61l-.65.09c-.03-.2-.12-.36-.26-.47-.14-.11-.34-.17-.6-.17-.31,0-.53.05-.66.15-.13.1-.2.22-.2.36,0,.09.03.16.08.23.05.07.14.13.26.18.07.02.26.08.59.17.47.13.8.23.99.31.19.08.33.2.44.35.11.15.16.34.16.57s-.06.43-.19.63c-.13.2-.32.35-.56.46s-.52.16-.83.16c-.51,0-.9-.11-1.17-.32-.27-.21-.44-.53-.51-.95"/>
  <path d="M527.29,178.65c-.24.1-.6.18-1.09.25-.27.04-.47.08-.58.13-.11.05-.2.12-.26.22-.06.09-.09.2-.09.32,0,.18.07.33.2.45.13.12.33.18.59.18s.49-.06.69-.17c.2-.11.35-.27.44-.46.07-.15.11-.37.11-.67v-.24M527.35,180.14c-.25.21-.48.36-.71.45-.23.09-.47.13-.74.13-.43,0-.76-.11-1-.32-.23-.21-.35-.48-.35-.81,0-.19.04-.37.13-.53.09-.16.2-.29.35-.38.14-.1.3-.17.48-.22.13-.03.33-.07.59-.1.54-.06.93-.14,1.19-.23,0-.09,0-.15,0-.17,0-.27-.06-.46-.19-.58-.17-.15-.42-.23-.76-.23-.31,0-.55.05-.7.17-.15.11-.26.3-.33.58l-.65-.09c.06-.28.16-.5.29-.68.14-.17.33-.3.59-.4.26-.09.55-.14.89-.14s.61.04.82.12c.21.08.36.18.46.3.1.12.17.27.21.45.02.11.03.32.03.62v.89c0,.62.01,1.01.04,1.18.03.16.08.32.17.47h-.7c-.07-.14-.11-.3-.13-.49"/>
  <path d="M529.43,178.59c0,.52.1.89.31,1.13.2.24.46.36.77.36s.56-.12.77-.35c.21-.24.31-.61.31-1.11s-.11-.85-.32-1.09c-.21-.24-.47-.37-.77-.37s-.55.12-.76.36c-.21.24-.31.6-.31,1.07M528.88,180.96l.65.1c.03.2.1.35.23.44.17.12.39.19.68.19.31,0,.55-.06.72-.19.17-.12.28-.3.34-.52.03-.14.05-.42.05-.86-.29.34-.65.52-1.09.52-.54,0-.96-.19-1.26-.59-.3-.39-.45-.86-.45-1.41,0-.37.07-.72.2-1.04.14-.32.33-.56.59-.74.26-.17.56-.26.91-.26.46,0,.85.19,1.15.56v-.47h.62v3.41c0,.61-.06,1.05-.19,1.3-.12.26-.32.46-.59.61-.27.15-.6.22-1,.22-.47,0-.85-.11-1.14-.32-.29-.21-.43-.53-.42-.96"/>
  <path d="M533.73,178.28h2.2c-.03-.33-.11-.58-.25-.75-.21-.26-.49-.39-.83-.39-.31,0-.56.1-.77.31-.21.2-.32.48-.35.82M535.92,179.36l.69.09c-.11.4-.31.72-.6.94-.29.22-.67.33-1.13.33-.58,0-1.03-.18-1.37-.53-.34-.35-.51-.85-.51-1.49s.17-1.18.51-1.54c.34-.37.78-.55,1.33-.55s.96.18,1.29.54c.33.36.5.86.5,1.51,0,.04,0,.1,0,.18h-2.94c.02.43.15.76.37.99.22.23.49.35.82.35.24,0,.45-.06.63-.19.17-.13.31-.33.41-.62"/>
  <polyline class="cls-6" points="550.78 178.41 557.12 178.41 557.12 45.43 246.81 45.43 246.81 63.01"/>
  <polyline class="cls-6" points="243.97 58.02 246.82 63.72 249.66 58.02"/>
  <path class="cls-1" d="M85.96,115.09h55.73c.67,0,1.32.07,1.98.2.65.13,1.29.32,1.9.58.62.25,1.2.57,1.75.94.55.37,1.07.79,1.54,1.26.47.47.89.98,1.26,1.54.37.55.68,1.14.94,1.75.25.62.45,1.25.58,1.9.13.65.2,1.31.2,1.98v5.07c0,.66-.07,1.32-.2,1.98-.13.65-.32,1.29-.58,1.9-.25.61-.57,1.2-.94,1.75-.37.55-.79,1.07-1.26,1.54-.47.47-.98.89-1.54,1.26-.55.37-1.14.68-1.75.94-.62.25-1.25.45-1.9.58-.65.13-1.31.2-1.98.2h-55.73c-.67,0-1.32-.07-1.98-.2-.65-.13-1.29-.32-1.9-.58-.61-.26-1.2-.57-1.75-.94-.55-.37-1.06-.79-1.54-1.26-.47-.47-.89-.98-1.26-1.54-.37-.55-.68-1.14-.94-1.75-.26-.61-.45-1.25-.58-1.9-.13-.65-.19-1.31-.19-1.98v-5.07c0-.67.07-1.32.19-1.98.13-.65.32-1.29.58-1.9.25-.61.57-1.2.94-1.75.37-.55.79-1.07,1.26-1.54s.98-.89,1.54-1.26c.55-.37,1.14-.68,1.75-.94.62-.26,1.25-.45,1.9-.58.65-.13,1.31-.2,1.98-.2"/>
  <path class="cls-5" d="M85.96,115.09h55.73c.66,0,1.32.07,1.98.19.65.13,1.29.32,1.9.58.62.25,1.2.57,1.75.94.55.37,1.07.79,1.54,1.26.47.47.89.98,1.26,1.54.37.55.68,1.14.94,1.75.25.62.45,1.25.58,1.9.13.65.19,1.31.19,1.98v5.07c0,.67-.07,1.32-.19,1.98-.13.65-.32,1.29-.58,1.9-.25.61-.57,1.2-.94,1.75-.37.55-.79,1.07-1.26,1.54-.47.47-.98.89-1.54,1.26-.55.37-1.14.68-1.75.94-.62.26-1.25.45-1.9.58-.65.13-1.31.2-1.98.2h-55.73c-.67,0-1.32-.07-1.98-.2-.65-.13-1.29-.32-1.9-.58-.61-.25-1.2-.57-1.75-.93-.55-.37-1.06-.79-1.54-1.26-.47-.47-.89-.98-1.26-1.54-.37-.55-.68-1.14-.94-1.75-.26-.61-.45-1.25-.58-1.9-.13-.65-.19-1.31-.19-1.98v-5.07c0-.66.07-1.32.19-1.98.13-.65.32-1.29.58-1.9.25-.61.57-1.2.94-1.75.37-.55.79-1.07,1.26-1.54.47-.47.98-.89,1.54-1.26.55-.37,1.14-.68,1.75-.94.61-.25,1.25-.45,1.9-.58.65-.13,1.31-.19,1.98-.19"/>
  <path d="M93.5,123.56c-.24.1-.6.18-1.09.25-.27.04-.47.08-.58.13-.11.05-.2.12-.26.22-.06.09-.09.2-.09.32,0,.18.07.33.2.45.13.12.33.18.59.18s.49-.06.69-.17c.2-.11.35-.27.44-.46.07-.15.11-.37.11-.67v-.24M93.56,125.05c-.25.21-.48.36-.71.45-.23.09-.47.13-.74.13-.43,0-.76-.11-1-.32-.23-.21-.35-.48-.35-.81,0-.19.04-.37.13-.53.09-.16.2-.29.35-.38.14-.1.3-.17.48-.22.13-.03.33-.07.59-.1.54-.06.94-.14,1.19-.23,0-.09,0-.15,0-.17,0-.27-.06-.46-.19-.58-.17-.15-.42-.23-.76-.23-.31,0-.55.05-.7.17-.15.11-.26.3-.33.58l-.65-.09c.06-.28.16-.5.29-.68.14-.17.33-.3.59-.4.26-.09.55-.14.89-.14s.61.04.82.12c.21.08.36.18.46.3.1.12.17.27.21.45.02.11.03.32.03.62v.89c0,.62.01,1.01.04,1.18.03.16.08.32.17.47h-.7c-.07-.14-.11-.3-.13-.49"/>
  <path d="M95.66,123.57c0,.5.11.88.32,1.13.21.25.46.37.75.37s.54-.12.74-.36c.2-.24.31-.6.31-1.09,0-.54-.1-.94-.31-1.19-.21-.25-.46-.38-.77-.38s-.54.12-.74.36c-.2.24-.3.62-.3,1.15M97.77,125.54v-.5c-.25.39-.62.59-1.1.59-.31,0-.6-.09-.87-.26-.26-.17-.47-.41-.61-.73-.14-.31-.22-.67-.22-1.07s.06-.75.2-1.07c.13-.32.33-.57.59-.74.26-.17.55-.26.88-.26.24,0,.45.05.63.15.19.1.34.23.45.39v-1.95h.66v5.44h-.62"/>
  <path d="M99.88,123.57c0,.5.11.88.32,1.13.21.25.46.37.75.37s.54-.12.74-.36c.2-.24.31-.6.31-1.09,0-.54-.1-.94-.31-1.19-.21-.25-.46-.38-.77-.38s-.54.12-.74.36c-.2.24-.3.62-.3,1.15M101.99,125.54v-.5c-.25.39-.62.59-1.1.59-.31,0-.6-.09-.87-.26-.26-.17-.47-.41-.61-.73-.14-.31-.22-.67-.22-1.07s.06-.75.2-1.07c.13-.32.33-.57.59-.74.26-.17.55-.26.88-.26.24,0,.45.05.63.15.19.1.34.23.45.39v-1.95h.66v5.44h-.62"/>
  <path d="M108.34,124.09l.66.09c-.07.45-.25.81-.55,1.06-.3.26-.66.38-1.09.38-.54,0-.97-.18-1.3-.53-.33-.35-.49-.86-.49-1.52,0-.42.07-.8.21-1.12.14-.32.35-.56.64-.72.29-.16.6-.24.94-.24.43,0,.78.11,1.05.32.27.22.45.52.52.92l-.65.1c-.06-.26-.17-.46-.33-.6-.16-.13-.35-.2-.57-.2-.34,0-.61.12-.82.36-.21.24-.32.62-.32,1.14s.1.91.3,1.15c.2.24.47.36.79.36.26,0,.48-.08.66-.24.17-.16.29-.41.33-.74"/>
  <path d="M110.01,123.57c0,.5.11.88.33,1.13.22.25.5.38.83.38s.61-.13.83-.38c.22-.25.33-.64.33-1.15,0-.49-.11-.86-.33-1.11-.22-.25-.5-.38-.83-.38s-.61.12-.83.37c-.22.25-.33.63-.33,1.13M109.32,123.57c0-.73.2-1.27.61-1.62.34-.29.75-.44,1.24-.44.54,0,.98.18,1.33.53.34.35.52.84.52,1.47,0,.51-.08.91-.23,1.2-.15.29-.37.52-.66.68-.29.16-.61.24-.95.24-.55,0-1-.18-1.34-.53-.34-.35-.51-.86-.51-1.53"/>
  <path d="M116.38,125.54v-.58c-.31.45-.72.67-1.25.67-.23,0-.45-.04-.65-.13-.2-.09-.35-.2-.45-.34-.1-.13-.17-.3-.21-.5-.03-.13-.04-.34-.04-.62v-2.44h.67v2.19c0,.35.01.58.04.71.04.17.13.31.27.41.14.1.3.15.5.15s.39-.05.56-.15c.17-.1.3-.24.37-.42.07-.18.11-.43.11-.77v-2.11h.67v3.94h-.6"/>
  <path d="M118.01,125.54v-3.94h.6v.6c.15-.28.29-.46.42-.55.13-.09.27-.13.43-.13.22,0,.45.07.69.22l-.23.62c-.16-.1-.33-.14-.49-.14-.14,0-.28.04-.39.13-.11.09-.2.21-.25.37-.07.24-.11.5-.11.78v2.06h-.67"/>
  <path d="M120.28,124.36l.66-.1c.04.26.14.47.31.61.17.14.41.21.71.21s.53-.06.68-.19c.15-.12.22-.27.22-.44,0-.15-.06-.27-.2-.36-.09-.06-.32-.13-.68-.23-.49-.12-.83-.23-1.02-.32-.19-.09-.33-.22-.43-.37-.1-.16-.15-.34-.15-.53,0-.17.04-.34.12-.49.08-.15.19-.27.33-.37.1-.08.24-.14.42-.19.18-.05.37-.08.58-.08.31,0,.58.04.81.13.23.09.41.21.52.36.11.15.19.35.23.61l-.65.09c-.03-.2-.12-.36-.26-.47-.14-.11-.34-.17-.6-.17-.31,0-.53.05-.66.15-.13.1-.2.22-.2.36,0,.09.03.16.08.23.05.07.14.13.26.18.07.02.26.08.59.17.47.13.8.23.99.31.19.08.33.2.44.35.11.15.16.34.16.57s-.06.43-.19.63c-.13.2-.32.35-.56.46-.24.11-.52.16-.83.16-.51,0-.9-.11-1.17-.32-.27-.21-.44-.53-.51-.95"/>
  <path d="M124.85,123.19h2.2c-.03-.33-.11-.58-.25-.75-.21-.26-.49-.39-.83-.39-.31,0-.56.1-.77.31-.21.2-.32.48-.35.82M127.05,124.27l.69.09c-.11.4-.31.72-.6.94-.29.22-.67.33-1.13.33-.58,0-1.03-.18-1.37-.53-.34-.35-.51-.85-.51-1.49s.17-1.18.51-1.54c.34-.37.78-.55,1.33-.55s.96.18,1.29.54c.33.36.5.86.5,1.51,0,.04,0,.1,0,.18h-2.94c.02.43.15.76.37.99.22.23.49.35.82.35.24,0,.45-.06.63-.19.17-.13.31-.33.41-.62"/>
  <path d="M132.14,124.94l.1.59c-.19.04-.36.06-.5.06-.24,0-.43-.04-.56-.11-.13-.08-.23-.18-.28-.3-.05-.12-.08-.39-.08-.79v-2.27h-.49v-.52h.49v-.98l.66-.4v1.38h.67v.52h-.67v2.3c0,.19.01.31.04.37.02.05.06.1.12.13.05.03.13.05.23.05.07,0,.17,0,.29-.03"/>
  <path d="M133.22,123.57c0,.5.11.88.33,1.13.22.25.5.38.83.38s.61-.13.83-.38c.22-.25.33-.64.33-1.15,0-.49-.11-.86-.33-1.11-.22-.25-.5-.38-.83-.38s-.61.12-.83.37c-.22.25-.33.63-.33,1.13M132.53,123.57c0-.73.2-1.27.61-1.62.34-.29.75-.44,1.24-.44.54,0,.98.18,1.33.53.34.35.52.84.52,1.47,0,.51-.08.91-.23,1.2-.15.29-.37.52-.66.68-.29.16-.61.24-.95.24-.55,0-1-.18-1.34-.53-.34-.35-.51-.86-.51-1.53"/>
  <path d="M92.96,133.86l.66-.1c.04.26.14.47.31.61.17.14.41.21.71.21s.53-.06.68-.19c.15-.12.22-.27.22-.44,0-.15-.06-.27-.2-.36-.09-.06-.32-.13-.68-.23-.49-.12-.83-.23-1.02-.32-.19-.09-.33-.22-.43-.37-.1-.16-.15-.34-.15-.53,0-.17.04-.34.12-.49.08-.15.19-.27.33-.37.1-.08.24-.14.42-.19.18-.05.37-.08.58-.08.31,0,.58.04.81.13.23.09.41.21.52.36.11.15.19.35.23.61l-.65.09c-.03-.2-.12-.36-.26-.47-.14-.11-.34-.17-.6-.17-.31,0-.53.05-.66.15-.13.1-.2.22-.2.36,0,.09.03.16.08.23.05.07.14.13.26.18.07.02.26.08.59.17.47.13.8.23.99.31.19.08.33.2.44.35.11.15.16.34.16.57s-.06.43-.19.63c-.13.2-.32.35-.56.46-.24.11-.52.16-.83.16-.51,0-.9-.11-1.17-.32-.27-.21-.44-.53-.51-.95"/>
  <path d="M98.48,134.44l.1.59c-.19.04-.36.06-.5.06-.24,0-.43-.04-.56-.11-.13-.08-.23-.18-.28-.3-.05-.12-.08-.39-.08-.79v-2.27h-.49v-.52h.49v-.98l.66-.4v1.38h.67v.52h-.67v2.3c0,.19.01.31.04.37.02.05.06.1.12.13.05.03.13.05.23.05.07,0,.17,0,.29-.03"/>
  <path d="M101.71,135.03v-.58c-.31.45-.72.67-1.25.67-.23,0-.45-.04-.65-.13-.2-.09-.35-.2-.45-.34-.1-.13-.17-.3-.21-.5-.03-.13-.04-.34-.04-.62v-2.44h.67v2.19c0,.35.01.58.04.71.04.17.13.31.27.41.14.1.3.15.5.15s.39-.05.56-.15c.17-.1.3-.24.37-.42.07-.18.11-.43.11-.77v-2.11h.67v3.94h-.6"/>
  <path d="M103.8,133.07c0,.5.11.88.32,1.13.21.25.46.37.75.37s.54-.12.74-.36c.2-.24.31-.6.31-1.09,0-.54-.1-.94-.31-1.19-.21-.25-.46-.38-.77-.38s-.54.12-.74.36c-.2.24-.3.62-.3,1.15M105.91,135.03v-.5c-.25.39-.62.59-1.1.59-.31,0-.6-.09-.87-.26-.26-.17-.47-.41-.61-.73-.14-.31-.22-.67-.22-1.07s.06-.75.2-1.07c.13-.32.33-.57.59-.74.26-.17.55-.26.88-.26.24,0,.45.05.63.15.19.1.34.23.45.39v-1.95h.66v5.44h-.62"/>
  <path d="M108.08,132.69h2.2c-.03-.33-.11-.58-.25-.75-.21-.26-.49-.39-.83-.39-.31,0-.56.1-.77.31-.21.2-.32.48-.35.82M110.28,133.77l.69.09c-.11.4-.31.72-.6.94-.29.22-.67.33-1.13.33-.58,0-1.03-.18-1.37-.53-.34-.35-.51-.85-.51-1.49s.17-1.18.51-1.54c.34-.37.78-.55,1.33-.55s.96.18,1.29.54c.33.36.5.86.5,1.51,0,.04,0,.1,0,.18h-2.94c.02.43.15.76.37.99.22.23.49.35.82.35.24,0,.45-.06.63-.19.17-.13.31-.33.41-.62"/>
  <path d="M111.8,135.03v-3.94h.6v.56c.29-.43.71-.65,1.25-.65.24,0,.45.04.65.13.2.09.35.2.45.34.1.14.17.3.21.49.02.12.04.34.04.65v2.42h-.67v-2.4c0-.27-.03-.47-.08-.61-.05-.13-.14-.24-.28-.32-.13-.08-.29-.12-.47-.12-.28,0-.53.09-.74.27-.21.18-.31.52-.31,1.03v2.15h-.67"/>
  <path d="M117.49,134.44l.1.59c-.19.04-.36.06-.5.06-.24,0-.43-.04-.56-.11-.13-.08-.23-.18-.28-.3-.05-.12-.08-.39-.08-.79v-2.27h-.49v-.52h.49v-.98l.66-.4v1.38h.67v.52h-.67v2.3c0,.19.01.31.04.37.02.05.06.1.12.13.05.03.13.05.23.05.07,0,.17,0,.29-.03"/>
  <polyline points="118.14 131.52 117.97 130.5 117.97 129.59 118.73 129.59 118.73 130.5 118.55 131.52 118.14 131.52"/>
  <path d="M119.31,133.86l.66-.1c.04.26.14.47.31.61.17.14.41.21.71.21s.53-.06.68-.19c.15-.12.22-.27.22-.44,0-.15-.06-.27-.2-.36-.09-.06-.32-.13-.68-.23-.49-.12-.83-.23-1.02-.32-.19-.09-.33-.22-.43-.37-.1-.16-.15-.34-.15-.53,0-.17.04-.34.12-.49.08-.15.19-.27.33-.37.1-.08.24-.14.42-.19.18-.05.37-.08.58-.08.31,0,.58.04.81.13.23.09.41.21.52.36.11.15.19.35.23.61l-.65.09c-.03-.2-.12-.36-.26-.47-.14-.11-.34-.17-.6-.17-.31,0-.53.05-.66.15-.13.1-.2.22-.2.36,0,.09.03.16.08.23.05.07.14.13.26.18.07.02.26.08.59.17.47.13.8.23.99.31.19.08.33.2.44.35.11.15.16.34.16.57s-.06.43-.19.63c-.13.2-.32.35-.56.46-.24.11-.52.16-.83.16-.51,0-.9-.11-1.17-.32-.27-.21-.44-.53-.51-.95"/>
  <rect x="125.47" y="129.59" width=".67" height="5.44"/>
  <path d="M127.17,135.03v-3.94h.67v3.94h-.67M127.17,130.36v-.77h.67v.77h-.67"/>
  <path d="M128.59,133.86l.66-.1c.04.26.14.47.31.61.17.14.41.21.71.21s.53-.06.68-.19c.15-.12.22-.27.22-.44,0-.15-.06-.27-.2-.36-.09-.06-.32-.13-.68-.23-.49-.12-.83-.23-1.02-.32-.19-.09-.33-.22-.43-.37-.1-.16-.15-.34-.15-.53,0-.17.04-.34.12-.49.08-.15.19-.27.33-.37.1-.08.24-.14.42-.19.18-.05.37-.08.58-.08.31,0,.58.04.81.13.23.09.41.21.52.36.11.15.19.35.23.61l-.65.09c-.03-.2-.12-.36-.26-.47-.14-.11-.34-.17-.6-.17-.31,0-.53.05-.66.15-.13.1-.2.22-.2.36,0,.09.03.16.08.23.05.07.14.13.26.18.07.02.26.08.59.17.47.13.8.23.99.31.19.08.33.2.44.35.11.15.16.34.16.57s-.06.43-.19.63c-.13.2-.32.35-.56.46-.24.11-.52.16-.83.16-.51,0-.9-.11-1.17-.32-.27-.21-.44-.53-.51-.95"/>
  <path d="M134.11,134.44l.1.59c-.19.04-.36.06-.5.06-.24,0-.43-.04-.56-.11-.13-.08-.23-.18-.28-.3-.05-.12-.08-.39-.08-.79v-2.27h-.49v-.52h.49v-.98l.66-.4v1.38h.67v.52h-.67v2.3c0,.19.01.31.04.37.02.05.06.1.12.13.05.03.13.05.23.05.07,0,.17,0,.29-.03"/>
  <polyline class="cls-6" points="75.83 127.75 56.83 127.75 56.83 178.41 74.41 178.41"/>
  <polyline class="cls-6" points="69.42 181.26 75.12 178.41 69.42 175.56"/>
  <path class="cls-1" d="M85.96,165.75h36.73c.67,0,1.32.07,1.98.19.65.13,1.29.32,1.9.58.62.25,1.2.57,1.75.94.55.37,1.07.79,1.54,1.26.47.47.89.98,1.26,1.54.37.55.68,1.14.94,1.75.25.61.45,1.25.58,1.9.13.65.2,1.31.2,1.98v5.07c0,.66-.07,1.32-.2,1.98-.13.65-.32,1.29-.58,1.9-.25.61-.57,1.2-.94,1.75-.37.55-.79,1.07-1.26,1.54-.47.47-.98.89-1.54,1.26-.55.37-1.14.68-1.75.94-.61.26-1.25.45-1.9.58-.65.13-1.31.2-1.98.2h-36.73c-.67,0-1.32-.07-1.98-.2-.65-.13-1.29-.32-1.9-.58-.61-.25-1.2-.57-1.75-.94-.55-.37-1.06-.79-1.54-1.26-.47-.47-.89-.98-1.26-1.54-.37-.55-.68-1.14-.94-1.75-.26-.61-.45-1.25-.58-1.9-.13-.65-.19-1.31-.19-1.98v-5.07c0-.66.07-1.32.19-1.98.13-.65.32-1.29.58-1.9.25-.61.57-1.2.94-1.75.37-.55.79-1.07,1.26-1.54.47-.47.98-.89,1.54-1.26.55-.37,1.14-.68,1.75-.94.62-.25,1.25-.45,1.9-.58.65-.13,1.31-.19,1.98-.19"/>
  <path class="cls-5" d="M85.96,165.75h36.73c.67,0,1.32.07,1.98.19.65.13,1.29.32,1.9.58.62.25,1.2.57,1.75.94.55.37,1.07.79,1.54,1.26.47.47.89.98,1.26,1.54.37.55.68,1.14.94,1.75.25.62.45,1.25.58,1.9.13.65.19,1.31.19,1.98v5.07c0,.67-.07,1.32-.19,1.98-.13.65-.32,1.29-.58,1.9-.25.61-.57,1.2-.94,1.75-.37.55-.79,1.07-1.26,1.54-.47.47-.98.89-1.54,1.26-.55.37-1.14.68-1.75.94-.61.26-1.25.45-1.9.58-.65.13-1.31.2-1.98.2h-36.73c-.67,0-1.32-.07-1.98-.2-.65-.13-1.29-.32-1.9-.58-.61-.25-1.2-.57-1.75-.94-.55-.37-1.06-.79-1.54-1.26-.47-.47-.89-.98-1.26-1.54-.37-.55-.68-1.14-.94-1.75-.26-.61-.45-1.25-.58-1.9-.13-.65-.19-1.31-.19-1.98v-5.07c0-.66.07-1.32.19-1.98.13-.65.32-1.29.58-1.9.25-.61.57-1.2.94-1.75.37-.55.79-1.07,1.26-1.54.47-.47.98-.89,1.54-1.26.55-.37,1.14-.68,1.75-.94.61-.25,1.25-.45,1.9-.58.65-.13,1.31-.19,1.98-.19"/>
  <path d="M87.76,179.45l.66-.1c.04.26.14.47.31.61.17.14.41.21.71.21s.53-.06.68-.19c.15-.12.22-.27.22-.44,0-.15-.06-.27-.2-.36-.09-.06-.32-.13-.68-.23-.49-.12-.83-.23-1.02-.32-.19-.09-.33-.22-.43-.37-.1-.16-.15-.34-.15-.53,0-.17.04-.34.12-.49.08-.15.19-.27.33-.37.1-.08.24-.14.42-.19.18-.05.37-.08.58-.08.31,0,.58.04.81.13.23.09.41.21.52.36.11.15.19.35.23.61l-.65.09c-.03-.2-.12-.36-.26-.47-.14-.11-.34-.17-.6-.17-.31,0-.53.05-.66.15-.13.1-.2.22-.2.36,0,.09.03.16.08.23.05.07.14.13.26.18.07.02.26.08.59.17.47.13.8.23.99.31.19.08.33.2.44.35.11.15.16.34.16.57s-.06.43-.19.63c-.13.2-.32.35-.56.46-.24.11-.52.16-.83.16-.51,0-.9-.11-1.17-.32-.27-.21-.44-.53-.51-.95"/>
  <path d="M94.34,178.65c-.24.1-.6.18-1.09.25-.27.04-.47.08-.58.13-.11.05-.2.12-.26.22-.06.09-.09.2-.09.32,0,.18.07.33.2.45.13.12.33.18.59.18s.49-.06.69-.17c.2-.11.35-.27.44-.46.07-.15.11-.37.11-.67v-.24M94.4,180.14c-.25.21-.48.36-.71.45-.23.09-.47.13-.74.13-.43,0-.76-.11-1-.32-.23-.21-.35-.48-.35-.81,0-.19.04-.37.13-.53.09-.16.2-.29.35-.38.14-.1.3-.17.48-.22.13-.03.33-.07.59-.1.54-.06.94-.14,1.19-.23,0-.09,0-.15,0-.17,0-.27-.06-.46-.19-.58-.17-.15-.42-.23-.76-.23-.31,0-.55.05-.7.17-.15.11-.26.3-.33.58l-.65-.09c.06-.28.16-.5.29-.68.14-.17.33-.3.59-.4.26-.09.55-.14.89-.14s.61.04.82.12c.21.08.36.18.46.3.1.12.17.27.21.45.02.11.03.32.03.62v.89c0,.62.01,1.01.04,1.18.03.16.08.32.17.47h-.7c-.07-.14-.11-.3-.13-.49"/>
  <path d="M97.15,180.63l-1.5-3.94h.71l.85,2.36c.09.25.17.52.25.79.06-.21.14-.46.25-.75l.88-2.4h.69l-1.49,3.94h-.62"/>
  <path d="M100.36,178.28h2.2c-.03-.33-.11-.58-.25-.75-.21-.26-.49-.39-.83-.39-.31,0-.56.1-.77.31-.21.2-.32.48-.35.82M102.55,179.36l.69.09c-.11.4-.31.72-.6.94-.29.22-.67.33-1.13.33-.58,0-1.03-.18-1.37-.53-.34-.35-.51-.85-.51-1.49s.17-1.18.51-1.54c.34-.37.78-.55,1.33-.55s.96.18,1.29.54c.33.36.5.86.5,1.51,0,.04,0,.1,0,.18h-2.94c.02.43.15.76.37.99.22.23.49.35.82.35.24,0,.45-.06.63-.19.17-.13.31-.33.41-.62"/>
  <path d="M106.63,178.66c0,.5.11.88.32,1.13.21.25.46.37.75.37s.54-.12.74-.36c.2-.24.31-.6.31-1.09,0-.54-.1-.94-.31-1.19-.21-.25-.46-.38-.77-.38s-.54.12-.74.36c-.2.24-.3.62-.3,1.15M108.74,180.63v-.5c-.25.39-.62.59-1.1.59-.31,0-.6-.09-.87-.26-.26-.17-.47-.41-.61-.73-.14-.31-.22-.67-.22-1.07s.06-.75.2-1.07c.13-.32.33-.57.59-.74.26-.17.55-.26.88-.26.24,0,.45.05.63.15.19.1.34.23.45.39v-1.95h.66v5.44h-.62"/>
  <path d="M112.92,178.65c-.24.1-.6.18-1.09.25-.27.04-.47.08-.58.13-.11.05-.2.12-.26.22-.06.09-.09.2-.09.32,0,.18.07.33.2.45.13.12.33.18.59.18s.49-.06.69-.17c.2-.11.35-.27.44-.46.07-.15.11-.37.11-.67v-.24M112.98,180.14c-.25.21-.48.36-.71.45-.23.09-.47.13-.74.13-.43,0-.76-.11-1-.32-.23-.21-.35-.48-.35-.81,0-.19.04-.37.13-.53.09-.16.2-.29.35-.38.14-.1.3-.17.48-.22.13-.03.33-.07.59-.1.54-.06.94-.14,1.19-.23,0-.09,0-.15,0-.17,0-.27-.06-.46-.19-.58-.17-.15-.42-.23-.76-.23-.31,0-.55.05-.7.17-.15.11-.26.3-.33.58l-.65-.09c.06-.28.16-.5.29-.68.14-.17.33-.3.59-.4.26-.09.55-.14.89-.14s.61.04.82.12c.21.08.36.18.46.3.1.12.17.27.21.45.02.11.03.32.03.62v.89c0,.62.01,1.01.04,1.18.03.16.08.32.17.47h-.7c-.07-.14-.11-.3-.13-.49"/>
  <path d="M116.09,180.03l.1.59c-.19.04-.36.06-.5.06-.24,0-.43-.04-.56-.11-.13-.08-.23-.18-.28-.3-.05-.12-.08-.39-.08-.79v-2.27h-.49v-.52h.49v-.98l.66-.4v1.38h.67v.52h-.67v2.3c0,.19.01.31.04.37.02.05.06.1.12.13.05.03.13.05.23.05.07,0,.17,0,.29-.03"/>
  <path d="M119.25,178.65c-.24.1-.6.18-1.09.25-.27.04-.47.08-.58.13-.11.05-.2.12-.26.22-.06.09-.09.2-.09.32,0,.18.07.33.2.45.13.12.33.18.59.18s.49-.06.69-.17c.2-.11.35-.27.44-.46.07-.15.11-.37.11-.67v-.24M119.31,180.14c-.25.21-.48.36-.71.45-.23.09-.47.13-.74.13-.43,0-.76-.11-1-.32-.23-.21-.35-.48-.35-.81,0-.19.04-.37.13-.53.09-.16.2-.29.35-.38.14-.1.3-.17.48-.22.13-.03.33-.07.59-.1.54-.06.94-.14,1.19-.23,0-.09,0-.15,0-.17,0-.27-.06-.46-.19-.58-.17-.15-.42-.23-.76-.23-.31,0-.55.05-.7.17-.15.11-.26.3-.33.58l-.65-.09c.06-.28.16-.5.29-.68.14-.17.33-.3.59-.4.26-.09.55-.14.89-.14s.61.04.82.12c.21.08.36.18.46.3.1.12.17.27.21.45.02.11.03.32.03.62v.89c0,.62.01,1.01.04,1.18.03.16.08.32.17.47h-.7c-.07-.14-.11-.3-.13-.49"/>
  <line class="cls-6" x1="132.83" y1="178.41" x2="175.74" y2="178.41"/>
  <polyline class="cls-6" points="170.75 181.26 176.45 178.41 170.75 175.57"/>
  <path class="cls-1" d="M187.29,165.75h68.39c.67,0,1.32.07,1.98.19.65.13,1.29.32,1.9.58.61.25,1.2.57,1.75.94.55.37,1.07.79,1.54,1.26.47.47.89.98,1.26,1.54.37.55.68,1.14.94,1.75.26.61.45,1.25.58,1.9.13.65.2,1.31.2,1.98v5.07c0,.66-.07,1.32-.2,1.98-.13.65-.32,1.29-.58,1.9-.25.61-.57,1.2-.94,1.75s-.79,1.07-1.26,1.54c-.47.47-.98.89-1.54,1.26-.55.37-1.14.68-1.75.94-.62.26-1.25.45-1.9.58-.65.13-1.31.2-1.98.2h-68.39c-.67,0-1.32-.07-1.98-.2-.65-.13-1.29-.32-1.9-.58-.61-.25-1.2-.57-1.75-.94-.55-.37-1.06-.79-1.54-1.26-.47-.47-.89-.98-1.26-1.54-.37-.55-.68-1.14-.94-1.75-.26-.61-.45-1.25-.58-1.9-.13-.65-.19-1.31-.19-1.98v-5.07c0-.66.07-1.32.19-1.98.13-.65.32-1.29.58-1.9.25-.61.57-1.2.94-1.75.37-.55.79-1.07,1.26-1.54.47-.47.98-.89,1.54-1.26.55-.37,1.14-.68,1.75-.94.62-.25,1.25-.45,1.9-.58.65-.13,1.31-.19,1.98-.19"/>
  <path class="cls-5" d="M187.29,165.75h68.39c.67,0,1.32.07,1.98.19.65.13,1.29.32,1.9.58.61.25,1.2.57,1.75.94.55.37,1.06.79,1.54,1.26.47.47.89.98,1.26,1.54.37.55.68,1.14.94,1.75.26.62.45,1.25.58,1.9.13.65.19,1.31.19,1.98v5.07c0,.67-.07,1.32-.19,1.98-.13.65-.32,1.29-.58,1.9-.25.61-.57,1.2-.94,1.75-.37.55-.79,1.07-1.26,1.54-.47.47-.98.89-1.54,1.26-.55.37-1.14.68-1.75.94-.62.26-1.25.45-1.9.58-.65.13-1.31.2-1.98.2h-68.39c-.67,0-1.32-.07-1.98-.2-.65-.13-1.29-.32-1.9-.58-.61-.25-1.2-.57-1.75-.94-.55-.37-1.06-.79-1.54-1.26-.47-.47-.89-.98-1.26-1.54-.37-.55-.68-1.14-.94-1.75s-.45-1.25-.58-1.9c-.13-.65-.19-1.31-.19-1.98v-5.07c0-.66.06-1.32.19-1.98.13-.65.32-1.29.58-1.9.26-.61.57-1.2.94-1.75.37-.55.79-1.07,1.26-1.54.47-.47.98-.89,1.54-1.26.55-.37,1.14-.68,1.75-.94.62-.25,1.25-.45,1.9-.58.65-.13,1.31-.19,1.98-.19"/>
  <path d="M191.19,175.02l.66-.1c.04.26.14.47.31.61.17.14.41.21.71.21s.53-.06.68-.19c.15-.12.22-.27.22-.44,0-.15-.06-.27-.2-.36-.09-.06-.32-.13-.68-.23-.49-.12-.83-.23-1.02-.32-.19-.09-.33-.22-.43-.37-.1-.16-.15-.34-.15-.53,0-.17.04-.34.12-.49.08-.15.19-.27.33-.37.1-.08.24-.14.42-.19.18-.05.37-.08.58-.08.31,0,.58.04.81.13.23.09.41.21.52.36.11.15.19.35.23.61l-.65.09c-.03-.2-.12-.36-.26-.47-.14-.11-.34-.17-.6-.17-.31,0-.53.05-.66.15-.13.1-.2.22-.2.36,0,.09.03.16.08.23.05.07.14.13.26.18.07.02.26.08.59.17.47.13.8.23.99.31.19.08.33.2.44.35.11.15.16.34.16.57s-.06.43-.19.63c-.13.2-.32.35-.56.46-.24.11-.52.16-.83.16-.51,0-.9-.11-1.17-.32-.27-.21-.44-.53-.51-.95"/>
  <path d="M195.26,176.2v-5.44h.67v1.95c.31-.36.7-.54,1.18-.54.29,0,.55.06.76.17s.37.27.46.48c.09.2.14.5.14.88v2.5h-.67v-2.5c0-.33-.07-.58-.22-.73-.14-.15-.35-.23-.61-.23-.2,0-.38.05-.56.15-.17.1-.3.24-.37.42-.07.17-.11.42-.11.73v2.16h-.67"/>
  <path d="M199.92,174.23c0,.5.11.88.33,1.13.22.25.5.38.83.38s.61-.13.83-.38c.22-.25.33-.64.33-1.15,0-.49-.11-.86-.33-1.11-.22-.25-.5-.38-.83-.38s-.61.12-.83.37c-.22.25-.33.63-.33,1.13M199.24,174.23c0-.73.2-1.27.61-1.62.34-.29.75-.44,1.24-.44.54,0,.98.18,1.33.53.34.35.52.84.52,1.47,0,.51-.08.91-.23,1.2-.15.29-.37.52-.66.68-.29.16-.61.24-.95.24-.55,0-1-.18-1.34-.53-.34-.35-.51-.86-.51-1.53"/>
  <path d="M204.44,176.2l-1.21-3.94h.69l.63,2.27.23.85s.08-.31.2-.81l.63-2.31h.69l.59,2.29.2.75.23-.76.68-2.28h.65l-1.23,3.94h-.69l-.63-2.36-.15-.67-.8,3.03h-.7"/>
  <rect x="211.29" y="170.76" width=".67" height="5.44"/>
  <path d="M213.49,173.85h2.2c-.03-.33-.11-.58-.25-.75-.21-.26-.49-.39-.83-.39-.31,0-.56.1-.77.31-.21.2-.32.48-.35.82M215.69,174.93l.69.09c-.11.4-.31.72-.6.94-.29.22-.67.33-1.13.33-.58,0-1.03-.18-1.37-.53-.34-.35-.51-.85-.51-1.49s.17-1.18.51-1.54c.34-.37.78-.55,1.33-.55s.96.18,1.29.54c.33.36.5.86.5,1.51,0,.04,0,.1,0,.18h-2.94c.02.43.15.76.37.99.22.23.49.35.82.35.24,0,.45-.06.63-.19.17-.13.31-.33.41-.62"/>
  <path d="M216.95,175.02l.66-.1c.04.26.14.47.31.61.17.14.41.21.71.21s.53-.06.68-.19c.15-.12.22-.27.22-.44,0-.15-.06-.27-.2-.36-.09-.06-.32-.13-.68-.23-.49-.12-.83-.23-1.02-.32-.19-.09-.33-.22-.43-.37-.1-.16-.15-.34-.15-.53,0-.17.04-.34.12-.49.08-.15.19-.27.33-.37.1-.08.24-.14.42-.19.18-.05.37-.08.58-.08.31,0,.58.04.81.13.23.09.41.21.52.36.11.15.19.35.23.61l-.65.09c-.03-.2-.12-.36-.26-.47-.14-.11-.34-.17-.6-.17-.31,0-.53.05-.66.15-.13.1-.2.22-.2.36,0,.09.03.16.08.23.05.07.14.13.26.18.07.02.26.08.59.17.47.13.8.23.99.31.19.08.33.2.44.35.11.15.16.34.16.57s-.06.43-.19.63c-.13.2-.32.35-.56.46-.24.11-.52.16-.83.16-.51,0-.9-.11-1.17-.32-.27-.21-.44-.53-.51-.95"/>
  <path d="M220.75,175.02l.66-.1c.04.26.14.47.31.61.17.14.41.21.71.21s.53-.06.68-.19c.15-.12.22-.27.22-.44,0-.15-.06-.27-.2-.36-.09-.06-.32-.13-.68-.23-.49-.12-.83-.23-1.02-.32-.19-.09-.33-.22-.43-.37-.1-.16-.15-.34-.15-.53,0-.17.04-.34.12-.49.08-.15.19-.27.33-.37.1-.08.24-.14.42-.19.18-.05.37-.08.58-.08.31,0,.58.04.81.13.23.09.41.21.52.36.11.15.19.35.23.61l-.65.09c-.03-.2-.12-.36-.26-.47-.14-.11-.34-.17-.6-.17-.31,0-.53.05-.66.15-.13.1-.2.22-.2.36,0,.09.03.16.08.23.05.07.14.13.26.18.07.02.26.08.59.17.47.13.8.23.99.31.19.08.33.2.44.35.11.15.16.34.16.57s-.06.43-.19.63c-.13.2-.32.35-.56.46-.24.11-.52.16-.83.16-.51,0-.9-.11-1.17-.32-.27-.21-.44-.53-.51-.95"/>
  <path d="M225.25,174.23c0,.5.11.88.33,1.13.22.25.5.38.83.38s.61-.13.83-.38c.22-.25.33-.64.33-1.15,0-.49-.11-.86-.33-1.11-.22-.25-.5-.38-.83-.38s-.61.12-.83.37c-.22.25-.33.63-.33,1.13M224.56,174.23c0-.73.2-1.27.61-1.62.34-.29.75-.44,1.24-.44.54,0,.98.18,1.33.53.34.35.52.84.52,1.47,0,.51-.08.91-.23,1.2-.15.29-.37.52-.66.68-.29.16-.61.24-.95.24-.55,0-1-.18-1.34-.53-.34-.35-.51-.86-.51-1.53"/>
  <path d="M229.04,176.2v-3.94h.6v.56c.29-.43.71-.65,1.25-.65.24,0,.45.04.65.13.2.09.35.2.45.34.1.14.17.3.21.49.02.12.04.34.04.65v2.42h-.67v-2.4c0-.27-.03-.47-.08-.61-.05-.13-.14-.24-.28-.32-.13-.08-.29-.12-.47-.12-.28,0-.53.09-.74.27-.21.18-.31.52-.31,1.03v2.15h-.67"/>
  <path d="M233,175.02l.66-.1c.04.26.14.47.31.61.17.14.41.21.71.21s.53-.06.68-.19c.15-.12.22-.27.22-.44,0-.15-.06-.27-.2-.36-.09-.06-.32-.13-.68-.23-.49-.12-.83-.23-1.02-.32-.19-.09-.33-.22-.43-.37-.1-.16-.15-.34-.15-.53,0-.17.04-.34.12-.49.08-.15.19-.27.33-.37.1-.08.24-.14.42-.19.18-.05.37-.08.58-.08.31,0,.58.04.81.13.23.09.41.21.52.36.11.15.19.35.23.61l-.65.09c-.03-.2-.12-.36-.26-.47-.14-.11-.34-.17-.6-.17-.31,0-.53.05-.66.15-.13.1-.2.22-.2.36,0,.09.03.16.08.23.05.07.14.13.26.18.07.02.26.08.59.17.47.13.8.23.99.31.19.08.33.2.44.35.11.15.16.34.16.57s-.06.43-.19.63c-.13.2-.32.35-.56.46-.24.11-.52.16-.83.16-.51,0-.9-.11-1.17-.32-.27-.21-.44-.53-.51-.95"/>
  <path d="M241.68,174.22c-.24.1-.6.18-1.09.25-.27.04-.47.08-.58.13-.11.05-.2.12-.26.22-.06.09-.09.2-.09.32,0,.18.07.33.2.45.13.12.33.18.59.18s.49-.06.69-.17c.2-.11.35-.27.44-.46.07-.15.11-.37.11-.67v-.24M241.74,175.71c-.25.21-.48.36-.71.45-.23.09-.47.13-.74.13-.43,0-.76-.11-1-.32-.23-.21-.35-.48-.35-.81,0-.19.04-.37.13-.53.09-.16.2-.29.35-.38.14-.1.3-.17.48-.22.13-.03.33-.07.59-.1.54-.06.93-.14,1.19-.23,0-.09,0-.15,0-.17,0-.27-.06-.46-.19-.58-.17-.15-.42-.23-.76-.23-.31,0-.55.05-.7.17-.15.11-.26.3-.33.58l-.65-.09c.06-.28.16-.5.29-.68.14-.17.33-.3.59-.4.26-.09.55-.14.89-.14s.61.04.82.12c.21.08.36.18.46.3.1.12.17.27.21.45.02.11.03.32.03.62v.89c0,.62.01,1.01.04,1.18.03.16.08.32.17.47h-.7c-.07-.14-.11-.3-.13-.49"/>
  <path d="M243.39,176.2v-3.94h.6v.56c.29-.43.71-.65,1.25-.65.24,0,.45.04.65.13.2.09.35.2.45.34.1.14.17.3.21.49.02.12.04.34.04.65v2.42h-.67v-2.4c0-.27-.03-.47-.08-.61-.05-.13-.14-.24-.28-.32-.13-.08-.29-.12-.47-.12-.28,0-.53.09-.74.27-.21.18-.31.52-.31,1.03v2.15h-.67"/>
  <path d="M248.06,174.23c0,.5.11.88.32,1.13.21.25.46.37.75.37s.54-.12.74-.36c.2-.24.31-.6.31-1.09,0-.54-.1-.94-.31-1.19-.21-.25-.46-.38-.77-.38s-.54.12-.74.36c-.2.24-.3.62-.3,1.15M250.17,176.2v-.5c-.25.39-.62.59-1.1.59-.31,0-.6-.09-.87-.26-.26-.17-.47-.41-.61-.73-.14-.31-.22-.67-.22-1.07s.06-.75.2-1.07c.13-.32.33-.57.59-.74.26-.17.55-.26.88-.26.24,0,.45.05.63.15.19.1.34.23.45.39v-1.95h.66v5.44h-.62"/>
  <path d="M209.24,183.71c0,.51.11.89.32,1.14.21.25.47.38.76.38s.53-.12.73-.36c.2-.24.31-.61.31-1.1,0-.52-.11-.92-.32-1.18-.22-.26-.47-.4-.76-.4s-.53.12-.74.37c-.2.24-.3.63-.3,1.15M211.3,187.21v-1.93c-.1.14-.25.27-.44.36-.19.1-.38.14-.6.14-.47,0-.87-.19-1.21-.56-.34-.37-.51-.88-.51-1.54,0-.4.07-.75.21-1.06.14-.31.34-.55.6-.71.26-.16.55-.24.86-.24.49,0,.87.2,1.15.62v-.53h.6v5.45h-.67"/>
  <path d="M215.59,185.7v-.58c-.31.45-.72.67-1.25.67-.23,0-.45-.04-.65-.13-.2-.09-.35-.2-.45-.34-.1-.13-.17-.3-.21-.5-.03-.13-.04-.34-.04-.62v-2.44h.67v2.19c0,.35.01.58.04.71.04.17.13.31.27.41.14.1.3.15.5.15s.39-.05.56-.15c.17-.1.3-.24.37-.42.07-.18.11-.43.11-.77v-2.11h.67v3.94h-.6"/>
  <path d="M217.24,185.7v-3.94h.67v3.94h-.67M217.24,181.02v-.77h.67v.77h-.67"/>
  <path d="M218.57,185.7v-.54l2.51-2.88c-.28.01-.53.02-.75.02h-1.61v-.54h3.22v.44l-2.13,2.5-.41.46c.3-.02.58-.03.84-.03h1.82v.58h-3.49"/>
  <path d="M222.37,185.7v-.54l2.51-2.88c-.28.01-.53.02-.75.02h-1.61v-.54h3.22v.44l-2.13,2.5-.41.46c.3-.02.58-.03.84-.03h1.82v.58h-3.49"/>
  <path d="M227.03,183.35h2.2c-.03-.33-.11-.58-.25-.75-.21-.26-.49-.39-.83-.39-.31,0-.56.1-.77.31-.21.2-.32.48-.35.82M229.22,184.43l.69.09c-.11.4-.31.72-.6.94-.29.22-.67.33-1.13.33-.58,0-1.03-.18-1.37-.53-.34-.35-.51-.85-.51-1.49s.17-1.18.51-1.54c.34-.37.78-.55,1.33-.55s.96.18,1.29.54c.33.36.5.86.5,1.51,0,.04,0,.1,0,.18h-2.94c.02.43.15.76.37.99.22.23.49.35.82.35.24,0,.45-.06.63-.19.17-.13.31-.33.41-.62"/>
  <path d="M230.48,184.52l.66-.1c.04.26.14.47.31.61.17.14.41.21.71.21s.53-.06.68-.19c.15-.12.22-.27.22-.44,0-.15-.06-.27-.2-.36-.09-.06-.32-.13-.68-.23-.49-.12-.83-.23-1.02-.32-.19-.09-.33-.22-.43-.37-.1-.16-.15-.34-.15-.53,0-.17.04-.34.12-.49.08-.15.19-.27.33-.37.1-.08.24-.14.42-.19.18-.05.37-.08.58-.08.31,0,.58.04.81.13.23.09.41.21.52.36.11.15.19.35.23.61l-.65.09c-.03-.2-.12-.36-.26-.47-.14-.11-.34-.17-.6-.17-.31,0-.53.05-.66.15-.13.1-.2.22-.2.36,0,.09.03.16.08.23.05.07.14.13.26.18.07.02.26.08.59.17.47.13.8.23.99.31.19.08.33.2.44.35.11.15.16.34.16.57s-.06.43-.19.63c-.13.2-.32.35-.56.46-.24.11-.52.16-.83.16-.51,0-.9-.11-1.17-.32-.27-.21-.44-.53-.51-.95"/>
  <line class="cls-6" x1="265.81" y1="178.41" x2="308.72" y2="178.41"/>
  <polyline class="cls-6" points="303.73 181.26 309.43 178.41 303.73 175.57"/>
  <path d="M326.61,178.41c0,.46-.04.91-.13,1.36-.09.45-.22.88-.4,1.31-.17.42-.39.83-.64,1.21-.25.38-.54.73-.87,1.05-.32.32-.68.61-1.06.87-.38.25-.78.47-1.2.64-.42.17-.86.31-1.31.4-.45.09-.9.13-1.36.13s-.91-.04-1.36-.13c-.45-.09-.88-.22-1.31-.4-.42-.18-.82-.39-1.2-.64-.38-.26-.73-.54-1.05-.87-.32-.32-.61-.68-.87-1.05-.25-.38-.47-.78-.64-1.21-.18-.42-.31-.86-.4-1.31-.09-.45-.13-.9-.13-1.36s.04-.91.13-1.36c.09-.45.22-.88.4-1.31.18-.42.39-.82.64-1.21.25-.38.54-.73.87-1.05.32-.32.68-.61,1.05-.87.38-.25.78-.47,1.2-.64.42-.17.86-.31,1.31-.4.45-.09.9-.13,1.36-.13s.91.04,1.36.13c.45.09.88.22,1.31.4s.82.39,1.2.64c.38.25.73.54,1.06.87s.61.68.87,1.05c.25.38.47.78.64,1.21.18.42.31.86.4,1.31.09.45.13.9.13,1.36"/>
  <path class="cls-5" d="M326.61,178.41c0,.46-.04.91-.13,1.36-.09.45-.22.88-.4,1.31-.18.42-.39.83-.64,1.21-.25.38-.54.73-.87,1.06-.32.32-.68.61-1.06.87-.38.25-.78.47-1.21.64-.42.17-.86.31-1.31.4-.45.09-.9.13-1.36.13s-.91-.04-1.36-.13c-.45-.09-.88-.22-1.31-.4-.42-.17-.82-.39-1.2-.64-.38-.25-.73-.54-1.06-.87-.32-.32-.61-.67-.87-1.06-.25-.38-.47-.78-.64-1.21-.18-.42-.31-.86-.4-1.31-.09-.45-.13-.9-.13-1.36s.04-.91.13-1.36c.09-.45.22-.88.4-1.31.18-.42.39-.82.64-1.2s.54-.73.87-1.06c.32-.32.68-.61,1.06-.87.38-.25.78-.47,1.2-.64.42-.17.86-.31,1.31-.4.45-.09.9-.13,1.36-.13s.91.04,1.36.13c.45.09.88.22,1.31.4.42.18.83.39,1.21.64.38.25.73.54,1.06.87.32.32.61.68.87,1.06s.47.78.64,1.2c.18.42.31.86.4,1.31.09.45.13.9.13,1.36"/>
  <path class="cls-5" d="M329.14,178.41c0,.62-.06,1.24-.18,1.85-.12.61-.3,1.21-.54,1.78-.24.58-.53,1.12-.88,1.64-.35.52-.74,1-1.18,1.44-.44.44-.92.83-1.44,1.18-.52.35-1.07.64-1.64.88-.58.24-1.17.42-1.78.54-.61.12-1.23.18-1.85.18s-1.24-.06-1.85-.18c-.61-.12-1.21-.3-1.78-.54-.58-.24-1.12-.53-1.64-.88-.52-.35-1-.74-1.44-1.18-.44-.44-.84-.92-1.18-1.44-.35-.52-.64-1.07-.88-1.64-.24-.58-.42-1.17-.54-1.78-.12-.61-.18-1.23-.18-1.85s.06-1.24.18-1.85c.12-.61.3-1.21.54-1.78.24-.58.53-1.12.88-1.64.35-.52.74-1,1.18-1.44.44-.44.92-.83,1.44-1.18.52-.35,1.07-.64,1.64-.88.58-.24,1.17-.42,1.78-.54.61-.12,1.23-.18,1.85-.18s1.24.06,1.85.18c.61.12,1.21.3,1.78.54.58.24,1.12.53,1.64.88.52.35,1,.74,1.44,1.18.44.44.83.92,1.18,1.44.35.52.64,1.07.88,1.64.24.58.42,1.17.54,1.78.12.61.18,1.23.18,1.85"/>
</svg>