<?xml version="1.0" encoding="UTF-8"?>
<svg id="Layer_1" data-name="Layer 1" xmlns="http://www.w3.org/2000/svg" xmlns:xlink="http://www.w3.org/1999/xlink" viewBox="0 0 598 372.08">
  <defs>
    <style>
      .cls-1 {
        clip-path: url(#clippath-4);
      }

      .cls-2 {
        stroke-miterlimit: 10;
      }

      .cls-2, .cls-3 {
        stroke: #000;
        stroke-width: .67px;
      }

      .cls-2, .cls-3, .cls-4 {
        fill: none;
      }

      .cls-5 {
        fill: #fff;
      }

      .cls-6 {
        clip-path: url(#clippath-1);
      }

      .cls-7 {
        clip-path: url(#clippath-3);
      }

      .cls-8 {
        clip-path: url(#clippath-2);
      }

      .cls-9 {
        clip-path: url(#clippath);
      }
    </style>
    <clipPath id="clippath">
      <rect class="cls-4" width="612" height="791.97"/>
    </clipPath>
    <clipPath id="clippath-1">
      <rect class="cls-4" width="612" height="791.97"/>
    </clipPath>
    <clipPath id="clippath-2">
      <rect class="cls-4" width="612" height="791.97"/>
    </clipPath>
    <clipPath id="clippath-3">
      <rect class="cls-4" width="612" height="791.97"/>
    </clipPath>
    <clipPath id="clippath-4">
      <rect class="cls-4" width="612" height="791.97"/>
    </clipPath>
  </defs>
  <g class="cls-9">
    <rect class="cls-5" width="612" height="791.97"/>
  </g>
  <rect class="cls-5" x="166.16" y="56.18" width="67.43" height="26.97"/>
  <rect class="cls-3" x="166.16" y="56.18" width="67.43" height="26.97"/>
  <path d="M200.21,402.76v2.02h-.67v-2.02M200.21,398.71v2.02h-.67v-2.02M200.21,394.67v2.02h-.67v-2.02M200.21,390.62v2.02h-.67v-2.02M200.21,386.57v2.02h-.67v-2.02M200.21,382.53v2.02h-.67v-2.02M200.21,378.48v2.02h-.67v-2.02M200.21,374.44v2.02h-.67v-2.02M200.21,370.39v2.02h-.67v-2.02M200.21,366.35v2.02h-.67v-2.02M200.21,362.3v2.02h-.67v-2.02M200.21,358.26v2.02h-.67v-2.02M200.21,354.21v2.02h-.67v-2.02M200.21,350.16v2.02h-.67v-2.02M200.21,346.12v2.02h-.67v-2.02M200.21,342.07v2.02h-.67v-2.02M200.21,338.03v2.02h-.67v-2.02M200.21,333.98v2.02h-.67v-2.02M200.21,329.94v2.02h-.67v-2.02M200.21,325.89v2.02h-.67v-2.02M200.21,321.84v2.02h-.67v-2.02M200.21,317.8v2.02h-.67v-2.02M200.21,313.75v2.02h-.67v-2.02M200.21,309.71v2.02h-.67v-2.02M200.21,305.66v2.02h-.67v-2.02M200.21,301.62v2.02h-.67v-2.02M200.21,297.57v2.02h-.67v-2.02M200.21,293.52v2.02h-.67v-2.02M200.21,289.48v2.02h-.67v-2.02M200.21,285.43v2.02h-.67v-2.02M200.21,281.39v2.02h-.67v-2.02M200.21,277.34v2.02h-.67v-2.02M200.21,273.3v2.02h-.67v-2.02M200.21,269.25v2.02h-.67v-2.02M200.21,265.2v2.02h-.67v-2.02M200.21,261.16v2.02h-.67v-2.02M200.21,257.11v2.02h-.67v-2.02M200.21,253.07v2.02h-.67v-2.02M200.21,249.02v2.02h-.67v-2.02M200.21,244.98v2.02h-.67v-2.02M200.21,240.93v2.02h-.67v-2.02M200.21,236.89v2.02h-.67v-2.02M200.21,232.84v2.02h-.67v-2.02M200.21,228.79v2.02h-.67v-2.02M200.21,224.75v2.02h-.67v-2.02M200.21,220.7v2.02h-.67v-2.02M200.21,216.66v2.02h-.67v-2.02M200.21,212.61v2.02h-.67v-2.02M200.21,208.57v2.02h-.67v-2.02M200.21,204.52v2.02h-.67v-2.02M200.21,200.47v2.02h-.67v-2.02M200.21,196.43v2.02h-.67v-2.02M200.21,192.38v2.02h-.67v-2.02M200.21,188.34v2.02h-.67v-2.02M200.21,184.29v2.02h-.67v-2.02M200.21,180.25v2.02h-.67v-2.02M200.21,176.2v2.02h-.67v-2.02M200.21,172.16v2.02h-.67v-2.02M200.21,168.11v2.02h-.67v-2.02M200.21,164.06v2.02h-.67v-2.02M200.21,160.02v2.02h-.67v-2.02M200.21,155.97v2.02h-.67v-2.02M200.21,151.93v2.02h-.67v-2.02M200.21,147.88v2.02h-.67v-2.02M200.21,143.84v2.02h-.67v-2.02M200.21,139.79v2.02h-.67v-2.02M200.21,135.74v2.02h-.67v-2.02M200.21,131.7v2.02h-.67v-2.02M200.21,127.65v2.02h-.67v-2.02M200.21,123.61v2.02h-.67v-2.02M200.21,119.56v2.02h-.67v-2.02M200.21,115.52v2.02h-.67v-2.02M200.21,111.47v2.02h-.67v-2.02M200.21,107.42v2.02h-.67v-2.02M200.21,103.38v2.02h-.67v-2.02M200.21,99.33v2.02h-.67v-2.02M200.21,95.29v2.02h-.67v-2.02M200.21,91.24v2.02h-.67v-2.02M200.21,87.2v2.02h-.67v-2.02M200.21,83.15v2.02h-.67v-2.02"/>
  <g class="cls-6">
    <path d="M177.75,69.99l.77.19c-.16.63-.45,1.11-.87,1.44-.42.33-.93.5-1.53.5s-1.13-.13-1.52-.38c-.39-.25-.69-.62-.89-1.1-.2-.48-.31-1-.31-1.55,0-.6.11-1.13.35-1.58.23-.45.56-.79.98-1.02.42-.23.89-.35,1.4-.35.58,0,1.07.15,1.46.44.4.29.67.71.83,1.24l-.75.18c-.13-.42-.33-.73-.58-.92-.25-.19-.58-.29-.96-.29-.44,0-.82.11-1.12.32-.3.21-.51.5-.63.86-.12.36-.18.73-.18,1.11,0,.49.07.92.22,1.29.14.37.37.64.67.82.3.18.63.27.98.27.43,0,.79-.12,1.09-.37.3-.25.5-.61.6-1.1"/>
    <path d="M179.84,69.93c0,.54.12.94.35,1.21.23.27.53.4.88.4s.65-.13.88-.4c.23-.27.35-.68.35-1.23,0-.52-.12-.91-.35-1.18-.24-.27-.53-.4-.88-.4s-.65.13-.88.4c-.23.26-.35.67-.35,1.21M179.11,69.93c0-.78.22-1.35.65-1.73.36-.31.8-.47,1.32-.47.58,0,1.05.19,1.41.57.37.38.55.9.55,1.57,0,.54-.08.96-.24,1.27-.16.31-.4.55-.71.72-.31.17-.65.26-1.01.26-.59,0-1.06-.19-1.42-.56-.36-.38-.54-.92-.54-1.63"/>
    <path d="M186.62,72.03v-.62c-.33.47-.77.71-1.33.71-.25,0-.48-.05-.69-.14-.21-.09-.37-.21-.48-.36-.1-.14-.18-.32-.22-.53-.03-.14-.04-.36-.04-.66v-2.6h.71v2.33c0,.37.01.62.04.75.04.19.14.33.28.44.14.11.32.16.54.16s.41-.05.6-.16c.19-.11.32-.26.4-.45.08-.19.12-.46.12-.82v-2.25h.71v4.2h-.64"/>
    <path d="M188.36,72.03v-4.2h.64v.64c.16-.3.31-.49.45-.59.14-.09.29-.14.46-.14.24,0,.48.08.73.23l-.25.66c-.17-.1-.35-.15-.52-.15-.15,0-.29.05-.42.14-.12.09-.21.22-.26.39-.08.25-.12.53-.12.83v2.2h-.71"/>
    <path d="M190.78,70.77l.7-.11c.04.28.15.5.33.65.18.15.43.23.76.23s.57-.07.73-.2c.16-.13.24-.29.24-.47,0-.16-.07-.29-.21-.38-.1-.06-.34-.14-.73-.24-.52-.13-.88-.24-1.08-.34-.2-.09-.35-.23-.46-.4-.1-.17-.16-.36-.16-.56,0-.19.04-.36.13-.52.08-.16.2-.29.35-.4.11-.08.26-.15.45-.21.19-.06.4-.08.61-.08.33,0,.62.05.87.14.25.09.43.22.55.39.12.16.2.38.24.65l-.7.09c-.03-.22-.12-.38-.27-.51-.15-.12-.37-.18-.64-.18-.33,0-.56.05-.7.16-.14.11-.21.23-.21.38,0,.09.03.17.09.25.06.08.15.14.27.19.07.03.28.09.63.18.5.13.85.24,1.05.33.2.08.35.21.47.37.11.16.17.37.17.61s-.07.46-.21.67-.34.37-.6.49c-.26.11-.56.17-.88.17-.55,0-.96-.11-1.25-.34-.28-.23-.47-.56-.55-1.01"/>
    <path d="M195.65,69.52h2.34c-.03-.35-.12-.62-.27-.79-.23-.27-.52-.41-.88-.41-.33,0-.6.11-.82.33-.22.22-.35.51-.37.88M197.98,70.67l.73.09c-.11.43-.33.76-.64,1-.31.24-.71.36-1.2.36-.61,0-1.1-.19-1.46-.57-.36-.38-.54-.91-.54-1.59s.18-1.25.55-1.64c.36-.39.83-.58,1.41-.58s1.02.19,1.37.57c.36.38.53.92.53,1.61,0,.04,0,.1,0,.19h-3.13c.03.46.16.81.39,1.06.23.24.53.37.88.37.26,0,.48-.07.67-.21.18-.14.33-.36.44-.66"/>
    <path d="M199.44,70.16l.72-.06c.03.29.11.53.24.71.12.19.32.34.58.45.26.11.56.17.89.17.29,0,.55-.04.77-.13.22-.09.39-.21.5-.36.11-.15.16-.32.16-.5s-.05-.34-.16-.48c-.1-.13-.28-.25-.52-.34-.15-.06-.5-.15-1.03-.28-.53-.13-.9-.25-1.12-.36-.28-.14-.48-.32-.62-.54-.13-.21-.2-.45-.2-.72,0-.29.08-.57.25-.82.17-.25.41-.45.73-.58.32-.13.67-.2,1.06-.2.43,0,.81.07,1.14.21.33.14.58.34.76.61.18.27.27.57.28.91l-.73.06c-.04-.37-.17-.64-.4-.83-.23-.19-.56-.28-1.01-.28s-.8.08-1.01.25c-.21.17-.32.37-.32.61,0,.21.08.38.23.51.15.13.53.27,1.16.41.62.14,1.05.26,1.28.37.34.15.58.35.75.59.16.24.24.51.24.82s-.09.6-.26.87c-.18.27-.43.48-.76.64-.33.15-.7.23-1.12.23-.52,0-.96-.08-1.32-.23-.35-.15-.63-.38-.83-.69-.2-.31-.31-.65-.32-1.04"/>
    <path d="M205.53,69.52h2.34c-.03-.35-.12-.62-.27-.79-.23-.27-.52-.41-.88-.41-.33,0-.6.11-.82.33-.22.22-.35.51-.37.88M207.87,70.67l.73.09c-.11.43-.33.76-.64,1-.31.24-.71.36-1.2.36-.61,0-1.1-.19-1.46-.57-.36-.38-.54-.91-.54-1.59s.18-1.25.55-1.64c.36-.39.83-.58,1.41-.58s1.02.19,1.37.57c.36.38.53.92.53,1.61,0,.04,0,.1,0,.19h-3.13c.03.46.16.81.39,1.06.23.24.53.37.88.37.26,0,.48-.07.67-.21.18-.14.33-.36.44-.66"/>
    <path d="M209.49,72.03v-4.2h.64v.64c.16-.3.31-.49.45-.59.14-.09.29-.14.46-.14.24,0,.48.08.73.23l-.25.66c-.17-.1-.35-.15-.52-.15-.15,0-.29.05-.42.14-.12.09-.21.22-.26.39-.08.25-.12.53-.12.83v2.2h-.71"/>
    <path d="M213.35,72.03l-1.6-4.2h.75l.9,2.51c.1.27.19.55.27.85.06-.22.15-.49.26-.8l.93-2.56h.73l-1.59,4.2h-.66"/>
    <path d="M216.24,72.03v-4.2h.71v4.2h-.71M216.24,67.05v-.82h.71v.82h-.71"/>
    <path d="M220.77,70.49l.7.09c-.08.48-.27.86-.59,1.13-.31.27-.7.41-1.16.41-.57,0-1.04-.19-1.38-.56-.35-.38-.52-.91-.52-1.61,0-.45.07-.85.23-1.19.15-.34.38-.59.69-.76.31-.17.64-.25,1-.25.45,0,.83.11,1.12.35.29.23.47.56.56.98l-.69.11c-.07-.28-.18-.49-.35-.64-.17-.14-.37-.21-.61-.21-.36,0-.65.13-.87.39-.22.26-.34.66-.34,1.22s.11.97.32,1.23c.22.25.5.38.85.38.28,0,.51-.08.7-.26.19-.17.3-.43.36-.79"/>
    <path d="M222.61,69.52h2.34c-.03-.35-.12-.62-.27-.79-.23-.27-.52-.41-.88-.41-.33,0-.6.11-.82.33-.22.22-.35.51-.37.88M224.95,70.67l.73.09c-.11.43-.33.76-.64,1-.31.24-.71.36-1.2.36-.61,0-1.1-.19-1.46-.57-.36-.38-.54-.91-.54-1.59s.18-1.25.55-1.64c.36-.39.83-.58,1.41-.58s1.02.19,1.37.57c.36.38.53.92.53,1.61,0,.04,0,.1,0,.19h-3.13c.03.46.16.81.39,1.06.23.24.53.37.88.37.26,0,.48-.07.67-.21.18-.14.33-.36.44-.66"/>
  </g>
  <rect class="cls-5" x="196.5" y="96.64" width="6.74" height="236"/>
  <rect class="cls-3" x="196.5" y="96.64" width="6.74" height="236"/>
  <rect class="cls-5" x="199.87" y="116.86" width="6.74" height="20.23"/>
  <rect class="cls-3" x="199.87" y="116.86" width="6.74" height="20.23"/>
  <polyline class="cls-2" points="203.24 106.75 226.84 106.75 226.84 130.35 212.09 130.32"/>
  <polyline points="207.37 130.32 212.09 127.96 212.08 132.68 207.37 130.32"/>
  <polygon class="cls-2" points="207.37 130.32 212.09 127.96 212.08 132.68 207.37 130.32"/>
  <rect class="cls-5" x="229.2" y="112.48" width="122.72" height="8.77"/>
  <path d="M230.11,117.23c0,.5.1.87.3,1.1.2.23.45.35.75.35s.55-.11.75-.35c.2-.23.3-.59.3-1.08s-.1-.83-.31-1.06c-.21-.24-.46-.36-.76-.36s-.54.12-.74.35c-.2.24-.3.58-.3,1.05M229.57,119.54l.63.09c.03.2.1.34.22.43.16.12.38.18.66.18.3,0,.53-.06.7-.18.16-.12.28-.29.33-.51.03-.13.05-.41.05-.84-.28.34-.64.5-1.06.5-.53,0-.94-.19-1.23-.57-.29-.38-.43-.84-.43-1.37,0-.37.07-.7.2-1.02.13-.31.32-.55.58-.72.25-.17.55-.25.89-.25.45,0,.83.18,1.12.55v-.46h.6v3.32c0,.6-.06,1.02-.18,1.27-.12.25-.32.45-.58.59-.26.14-.59.22-.98.22-.46,0-.83-.1-1.11-.31-.28-.21-.42-.52-.41-.93"/>
  <path d="M234.31,116.93h2.15c-.03-.32-.11-.57-.25-.73-.21-.25-.48-.38-.81-.38-.3,0-.55.1-.76.3-.2.2-.32.47-.34.8M236.45,117.99l.67.08c-.11.39-.3.7-.59.92-.29.22-.65.33-1.1.33-.56,0-1.01-.17-1.34-.52-.33-.35-.49-.83-.49-1.46s.17-1.15.5-1.51c.33-.36.76-.54,1.3-.54s.93.17,1.26.53c.33.35.49.84.49,1.48,0,.04,0,.1,0,.17h-2.87c.02.42.14.75.36.97.21.22.48.34.8.34.24,0,.44-.06.61-.19.17-.12.3-.33.4-.6"/>
  <path d="M239.36,118.64l.09.58c-.18.04-.35.06-.49.06-.24,0-.42-.04-.55-.11-.13-.07-.22-.17-.28-.3-.05-.12-.08-.38-.08-.77v-2.21h-.48v-.51h.48v-.95l.65-.39v1.34h.66v.51h-.66v2.25c0,.18.01.3.03.36.02.05.06.09.11.13.05.03.12.05.22.05.07,0,.17,0,.29-.03"/>
  <polyline points="240.09 119.22 240.09 113.91 243.93 113.91 243.93 114.54 240.79 114.54 240.79 116.17 243.73 116.17 243.73 116.79 240.79 116.79 240.79 118.6 244.05 118.6 244.05 119.22 240.09 119.22"/>
  <path d="M244.93,119.22v-3.85h.59v.55c.28-.42.69-.63,1.22-.63.23,0,.44.04.64.12.19.08.34.19.44.33.1.13.16.3.2.48.02.12.04.33.04.63v2.36h-.65v-2.34c0-.26-.03-.46-.08-.6-.05-.13-.14-.24-.27-.32-.13-.08-.28-.12-.45-.12-.28,0-.52.09-.72.26-.2.18-.3.51-.3,1v2.1h-.65"/>
  <path d="M249.05,119.22v-3.85h.59v.58c.15-.27.29-.45.41-.54.13-.09.27-.13.42-.13.22,0,.44.07.67.21l-.22.6c-.16-.09-.32-.14-.48-.14-.14,0-.27.04-.38.13-.11.09-.19.2-.24.36-.07.23-.11.49-.11.76v2.01h-.65"/>
  <path d="M251.95,117.3c0,.49.11.86.32,1.11.21.24.49.37.81.37s.59-.12.81-.37c.21-.25.32-.62.32-1.13,0-.47-.11-.83-.32-1.08-.22-.24-.48-.37-.81-.37s-.6.12-.81.37c-.21.24-.32.61-.32,1.1M251.28,117.3c0-.71.2-1.24.59-1.58.33-.28.73-.43,1.21-.43.53,0,.96.17,1.3.52.34.35.5.82.5,1.44,0,.49-.07.88-.22,1.17-.15.28-.36.5-.65.66-.28.16-.59.24-.93.24-.54,0-.97-.17-1.31-.52-.33-.34-.5-.84-.5-1.49"/>
  <rect x="255.64" y="113.91" width=".65" height="5.31"/>
  <rect x="257.28" y="113.91" width=".65" height="5.31"/>
  <path d="M258.94,119.22v-3.85h.58v.54c.12-.19.28-.34.48-.45.2-.11.43-.17.68-.17.28,0,.52.06.7.18.18.12.31.28.39.5.3-.45.7-.67,1.19-.67.38,0,.67.1.88.32.2.21.31.54.31.98v2.64h-.65v-2.42c0-.26-.02-.45-.06-.56-.04-.11-.12-.21-.23-.28-.11-.07-.24-.1-.39-.1-.27,0-.49.09-.67.27-.18.18-.27.47-.27.86v2.23h-.65v-2.5c0-.29-.05-.51-.16-.65-.11-.14-.28-.22-.52-.22-.18,0-.35.05-.51.14-.16.1-.27.24-.34.42-.07.18-.11.45-.11.8v2h-.65"/>
  <path d="M265.62,116.93h2.15c-.03-.32-.11-.57-.25-.73-.21-.25-.48-.38-.81-.38-.3,0-.55.1-.76.3-.2.2-.32.47-.34.8M267.76,117.99l.67.08c-.11.39-.3.7-.59.92-.29.22-.65.33-1.1.33-.56,0-1.01-.17-1.34-.52-.33-.35-.49-.83-.49-1.46s.17-1.15.5-1.51c.33-.36.76-.54,1.3-.54s.93.17,1.26.53c.33.35.49.84.49,1.48,0,.04,0,.1,0,.17h-2.87c.02.42.14.75.36.97.21.22.48.34.8.34.24,0,.44-.06.61-.19.17-.12.3-.33.4-.6"/>
  <path d="M269.25,119.22v-3.85h.59v.55c.28-.42.69-.63,1.22-.63.23,0,.44.04.64.12.19.08.34.19.44.33.1.13.16.3.2.48.02.12.04.33.04.63v2.36h-.65v-2.34c0-.26-.03-.46-.08-.6-.05-.13-.14-.24-.27-.32-.13-.08-.28-.12-.45-.12-.28,0-.52.09-.72.26-.2.18-.3.51-.3,1v2.1h-.65"/>
  <path d="M274.79,118.64l.09.58c-.18.04-.35.06-.49.06-.24,0-.42-.04-.55-.11-.13-.07-.22-.17-.28-.3-.05-.12-.08-.38-.08-.77v-2.21h-.48v-.51h.48v-.95l.65-.39v1.34h.66v.51h-.66v2.25c0,.18.01.3.03.36.02.05.06.09.11.13.05.03.12.05.22.05.07,0,.17,0,.29-.03"/>
  <path d="M275.27,117.52l.66-.06c.03.26.1.48.22.65.11.17.29.31.53.41.24.11.51.16.81.16.27,0,.5-.04.71-.12.2-.08.36-.19.46-.33.1-.14.15-.29.15-.45s-.05-.31-.14-.44c-.1-.12-.26-.23-.48-.31-.14-.05-.46-.14-.95-.26-.49-.12-.83-.23-1.02-.33-.25-.13-.44-.3-.57-.49-.12-.2-.19-.42-.19-.66,0-.27.08-.52.23-.75.15-.23.37-.41.67-.53.29-.12.62-.18.97-.18.39,0,.74.06,1.04.19.3.13.53.31.69.56.16.25.25.53.26.84l-.67.05c-.04-.34-.16-.59-.37-.76-.21-.17-.52-.26-.93-.26s-.73.08-.93.23c-.19.16-.29.34-.29.56,0,.19.07.35.21.47.13.12.49.25,1.06.38.57.13.96.24,1.18.34.31.14.54.32.68.54.15.22.22.47.22.76s-.08.55-.24.8c-.16.25-.39.44-.7.58-.3.14-.64.21-1.02.21-.48,0-.88-.07-1.21-.21-.32-.14-.58-.35-.76-.63-.18-.28-.28-.6-.29-.95"/>
  <path d="M281.79,118.64l.09.58c-.18.04-.35.06-.49.06-.24,0-.42-.04-.55-.11-.13-.07-.22-.17-.28-.3-.05-.12-.08-.38-.08-.77v-2.21h-.48v-.51h.48v-.95l.65-.39v1.34h.66v.51h-.66v2.25c0,.18.01.3.03.36.02.05.06.09.11.13.05.03.12.05.22.05.07,0,.17,0,.29-.03"/>
  <path d="M284.87,117.29c-.24.1-.59.18-1.06.25-.27.04-.46.08-.57.13-.11.05-.2.12-.26.21-.06.09-.09.2-.09.31,0,.17.07.32.2.43.13.12.32.17.58.17s.47-.05.67-.16c.2-.11.34-.26.43-.45.07-.15.11-.36.11-.65v-.24M284.93,118.75c-.24.2-.47.35-.7.43-.22.08-.46.13-.72.13-.42,0-.75-.1-.97-.31-.23-.21-.34-.47-.34-.79,0-.19.04-.36.13-.52.09-.16.2-.28.34-.37.14-.09.3-.16.47-.21.13-.03.32-.07.58-.1.53-.06.91-.14,1.16-.22,0-.09,0-.14,0-.17,0-.26-.06-.45-.18-.56-.17-.15-.41-.22-.74-.22-.31,0-.53.05-.68.16-.14.11-.25.3-.32.57l-.64-.09c.06-.27.15-.49.29-.66.13-.17.32-.3.58-.39.25-.09.54-.14.87-.14s.59.04.8.12c.2.08.35.17.45.29.1.12.16.26.2.44.02.11.03.31.03.6v.87c0,.6.01.99.04,1.15.03.16.08.31.16.46h-.68c-.07-.13-.11-.29-.13-.47"/>
  <path d="M287.97,118.64l.09.58c-.18.04-.35.06-.49.06-.24,0-.42-.04-.55-.11-.13-.07-.22-.17-.28-.3-.05-.12-.08-.38-.08-.77v-2.21h-.48v-.51h.48v-.95l.65-.39v1.34h.66v.51h-.66v2.25c0,.18.01.3.03.36.02.05.06.09.11.13.05.03.12.05.22.05.07,0,.17,0,.29-.03"/>
  <path d="M291.12,119.22v-.56c-.3.43-.71.65-1.22.65-.23,0-.44-.04-.64-.13-.2-.09-.34-.2-.44-.33-.09-.13-.16-.29-.2-.48-.03-.13-.04-.33-.04-.61v-2.38h.65v2.13c0,.34.01.57.04.69.04.17.13.31.26.4.13.1.3.15.49.15s.38-.05.55-.15c.17-.1.29-.24.36-.41.07-.17.11-.42.11-.75v-2.06h.65v3.85h-.58"/>
  <path d="M292.46,118.08l.64-.1c.04.26.14.46.3.59.16.14.4.21.69.21s.52-.06.67-.18c.14-.12.22-.26.22-.43,0-.15-.06-.26-.19-.35-.09-.06-.31-.13-.67-.22-.48-.12-.81-.22-.99-.31-.18-.09-.32-.21-.42-.37-.09-.16-.14-.33-.14-.52,0-.17.04-.33.12-.48.08-.14.18-.27.32-.36.1-.07.24-.14.41-.19.17-.05.36-.08.56-.08.3,0,.57.04.79.13.23.09.4.2.51.35.11.15.18.35.22.6l-.64.09c-.03-.2-.11-.35-.25-.46-.14-.11-.34-.17-.59-.17-.3,0-.51.05-.64.15-.13.1-.19.21-.19.35,0,.08.03.16.08.23.05.07.14.13.25.17.07.02.26.08.58.17.46.12.78.22.97.3.18.08.32.19.43.34.1.15.16.33.16.56s-.06.42-.19.61c-.13.19-.31.34-.55.45-.24.11-.51.16-.81.16-.5,0-.88-.1-1.14-.31-.26-.21-.43-.51-.5-.92"/>
  <path d="M297.68,120.79c-.36-.45-.66-.99-.91-1.59-.25-.61-.37-1.24-.37-1.89,0-.57.09-1.12.28-1.65.22-.61.55-1.22,1.01-1.83h.47c-.29.5-.49.86-.58,1.08-.15.33-.26.68-.35,1.04-.1.45-.16.91-.16,1.36,0,1.16.36,2.32,1.08,3.48h-.47"/>
  <path d="M298.64,118.08l.64-.1c.04.26.14.46.3.59.16.14.4.21.69.21s.52-.06.67-.18c.14-.12.22-.26.22-.43,0-.15-.06-.26-.19-.35-.09-.06-.31-.13-.67-.22-.48-.12-.81-.22-.99-.31-.18-.09-.32-.21-.42-.37-.09-.16-.14-.33-.14-.52,0-.17.04-.33.12-.48.08-.14.18-.27.32-.36.1-.07.24-.14.41-.19.17-.05.36-.08.56-.08.3,0,.57.04.79.13.23.09.4.2.51.35.11.15.18.35.22.6l-.64.09c-.03-.2-.11-.35-.25-.46-.14-.11-.34-.17-.59-.17-.3,0-.51.05-.64.15-.13.1-.19.21-.19.35,0,.08.03.16.08.23.05.07.14.13.25.17.07.02.26.08.58.17.46.12.78.22.97.3.18.08.32.19.43.34.1.15.16.33.16.56s-.06.42-.19.61c-.13.19-.31.34-.55.45-.24.11-.51.16-.81.16-.5,0-.88-.1-1.14-.31-.26-.21-.43-.51-.5-.92"/>
  <path d="M304.03,118.64l.09.58c-.18.04-.35.06-.49.06-.24,0-.42-.04-.55-.11-.13-.07-.22-.17-.28-.3-.05-.12-.08-.38-.08-.77v-2.21h-.48v-.51h.48v-.95l.65-.39v1.34h.66v.51h-.66v2.25c0,.18.01.3.03.36.02.05.06.09.11.13.05.03.12.05.22.05.07,0,.17,0,.29-.03"/>
  <path d="M307.18,119.22v-.56c-.3.43-.71.65-1.22.65-.23,0-.44-.04-.64-.13-.2-.09-.34-.2-.44-.33-.09-.13-.16-.29-.2-.48-.03-.13-.04-.33-.04-.61v-2.38h.65v2.13c0,.34.01.57.04.69.04.17.13.31.26.4.13.1.3.15.49.15s.38-.05.55-.15c.17-.1.29-.24.36-.41.07-.17.11-.42.11-.75v-2.06h.65v3.85h-.58"/>
  <path d="M309.22,117.3c0,.49.1.86.31,1.1.21.24.45.37.74.37s.53-.12.73-.35c.2-.23.3-.59.3-1.07,0-.53-.1-.91-.3-1.16-.2-.25-.45-.37-.75-.37s-.53.12-.73.35c-.19.24-.29.61-.29,1.12M311.28,119.22v-.49c-.24.38-.6.57-1.08.57-.31,0-.59-.08-.85-.25-.26-.17-.46-.4-.6-.71-.14-.3-.21-.65-.21-1.04s.06-.73.19-1.04c.13-.31.32-.55.58-.72.26-.17.54-.25.86-.25.23,0,.44.05.62.15.18.1.33.22.44.38v-1.91h.65v5.31h-.6"/>
  <path d="M313.4,116.93h2.15c-.03-.32-.11-.57-.25-.73-.21-.25-.48-.38-.81-.38-.3,0-.55.1-.76.3-.2.2-.32.47-.34.8M315.54,117.99l.67.08c-.11.39-.3.7-.59.92-.29.22-.65.33-1.1.33-.56,0-1.01-.17-1.34-.52-.33-.35-.49-.83-.49-1.46s.17-1.15.5-1.51c.33-.36.76-.54,1.3-.54s.93.17,1.26.53c.33.35.49.84.49,1.48,0,.04,0,.1,0,.17h-2.87c.02.42.14.75.36.97.21.22.48.34.8.34.24,0,.44-.06.61-.19.17-.12.3-.33.4-.6"/>
  <path d="M317.03,119.22v-3.85h.59v.55c.28-.42.69-.63,1.22-.63.23,0,.44.04.64.12.19.08.34.19.44.33.1.13.16.3.2.48.02.12.04.33.04.63v2.36h-.65v-2.34c0-.26-.03-.46-.08-.6-.05-.13-.14-.24-.27-.32-.13-.08-.28-.12-.45-.12-.28,0-.52.09-.72.26-.2.18-.3.51-.3,1v2.1h-.65"/>
  <path d="M322.58,118.64l.09.58c-.18.04-.35.06-.49.06-.24,0-.42-.04-.55-.11-.13-.07-.22-.17-.28-.3-.05-.12-.08-.38-.08-.77v-2.21h-.48v-.51h.48v-.95l.65-.39v1.34h.66v.51h-.66v2.25c0,.18.01.3.03.36.02.05.06.09.11.13.05.03.12.05.22.05.07,0,.17,0,.29-.03"/>
  <path d="M323.38,119.22v-.74h.74v.74c0,.27-.05.49-.14.66-.1.17-.25.3-.46.39l-.18-.28c.14-.06.24-.15.3-.27.07-.12.1-.28.11-.51h-.37"/>
  <path d="M329.83,117.82l.64.08c-.07.44-.25.79-.54,1.04-.29.25-.64.37-1.06.37-.53,0-.95-.17-1.27-.52-.32-.34-.48-.84-.48-1.48,0-.41.07-.78.21-1.09.14-.31.35-.54.63-.7.28-.16.59-.23.92-.23.42,0,.76.1,1.02.32.26.21.43.51.51.9l-.63.1c-.06-.26-.17-.45-.32-.58-.15-.13-.34-.2-.56-.2-.33,0-.59.12-.8.35-.2.24-.31.61-.31,1.12s.1.89.3,1.13c.2.23.46.35.77.35.26,0,.47-.08.64-.24.17-.16.28-.4.33-.72"/>
  <path d="M331.46,117.3c0,.49.11.86.32,1.11.21.24.49.37.81.37s.59-.12.81-.37c.21-.25.32-.62.32-1.13,0-.47-.11-.83-.32-1.08-.22-.24-.48-.37-.81-.37s-.6.12-.81.37c-.21.24-.32.61-.32,1.1M330.79,117.3c0-.71.2-1.24.59-1.58.33-.28.73-.43,1.21-.43.53,0,.96.17,1.3.52.34.35.5.82.5,1.44,0,.49-.07.88-.22,1.17-.15.28-.36.5-.65.66-.28.16-.59.24-.93.24-.54,0-.97-.17-1.31-.52-.33-.34-.5-.84-.5-1.49"/>
  <path d="M337.67,119.22v-.56c-.3.43-.71.65-1.22.65-.23,0-.44-.04-.64-.13-.2-.09-.34-.2-.44-.33-.09-.13-.16-.29-.2-.48-.03-.13-.04-.33-.04-.61v-2.38h.65v2.13c0,.34.01.57.04.69.04.17.13.31.26.4.13.1.3.15.49.15s.38-.05.55-.15c.17-.1.29-.24.36-.41.07-.17.11-.42.11-.75v-2.06h.65v3.85h-.58"/>
  <path d="M339.27,119.22v-3.85h.59v.58c.15-.27.29-.45.41-.54.13-.09.27-.13.42-.13.22,0,.44.07.67.21l-.22.6c-.16-.09-.32-.14-.48-.14-.14,0-.27.04-.38.13-.11.09-.19.2-.24.36-.07.23-.11.49-.11.76v2.01h-.65"/>
  <path d="M341.49,118.08l.64-.1c.04.26.14.46.3.59.16.14.4.21.69.21s.52-.06.67-.18c.14-.12.22-.26.22-.43,0-.15-.06-.26-.19-.35-.09-.06-.31-.13-.67-.22-.48-.12-.81-.22-.99-.31-.18-.09-.32-.21-.42-.37-.09-.16-.14-.33-.14-.52,0-.17.04-.33.12-.48.08-.14.18-.27.32-.36.1-.07.24-.14.41-.19.17-.05.36-.08.56-.08.3,0,.57.04.79.13.23.09.4.2.51.35.11.15.18.35.22.6l-.64.09c-.03-.2-.11-.35-.25-.46-.14-.11-.34-.17-.59-.17-.3,0-.51.05-.64.15-.13.1-.19.21-.19.35,0,.08.03.16.08.23.05.07.14.13.25.17.07.02.26.08.58.17.46.12.78.22.97.3.18.08.32.19.43.34.1.15.16.33.16.56s-.06.42-.19.61c-.13.19-.31.34-.55.45-.24.11-.51.16-.81.16-.5,0-.88-.1-1.14-.31-.26-.21-.43-.51-.5-.92"/>
  <path d="M345.95,116.93h2.15c-.03-.32-.11-.57-.25-.73-.21-.25-.48-.38-.81-.38-.3,0-.55.1-.76.3-.2.2-.32.47-.34.8M348.09,117.99l.67.08c-.11.39-.3.7-.59.92-.29.22-.65.33-1.1.33-.56,0-1.01-.17-1.34-.52-.33-.35-.49-.83-.49-1.46s.17-1.15.5-1.51c.33-.36.76-.54,1.3-.54s.93.17,1.26.53c.33.35.49.84.49,1.48,0,.04,0,.1,0,.17h-2.87c.02.42.14.75.36.97.21.22.48.34.8.34.24,0,.44-.06.61-.19.17-.12.3-.33.4-.6"/>
  <path d="M350.01,120.79h-.47c.72-1.16,1.08-2.32,1.08-3.48,0-.45-.05-.9-.16-1.35-.08-.36-.2-.71-.34-1.04-.09-.22-.29-.58-.58-1.09h.47c.45.6.79,1.21,1.01,1.83.18.53.28,1.08.28,1.65,0,.65-.12,1.28-.37,1.89-.25.61-.55,1.14-.91,1.59"/>
  <rect class="cls-5" x="334.73" y="52.81" width="67.43" height="26.97"/>
  <rect class="cls-3" x="334.73" y="52.81" width="67.43" height="26.97"/>
  <path d="M368.78,403.43v2.02h-.67v-2.02M368.78,399.39v2.02h-.67v-2.02M368.78,395.34v2.02h-.67v-2.02M368.78,391.29v2.02h-.67v-2.02M368.78,387.25v2.02h-.67v-2.02M368.78,383.2v2.02h-.67v-2.02M368.78,379.16v2.02h-.67v-2.02M368.78,375.11v2.02h-.67v-2.02M368.78,371.07v2.02h-.67v-2.02M368.78,367.02v2.02h-.67v-2.02M368.78,362.98v2.02h-.67v-2.02M368.78,358.93v2.02h-.67v-2.02M368.78,354.88v2.02h-.67v-2.02M368.78,350.84v2.02h-.67v-2.02M368.78,346.79v2.02h-.67v-2.02M368.78,342.75v2.02h-.67v-2.02M368.78,338.7v2.02h-.67v-2.02M368.78,334.65v2.02h-.67v-2.02M368.78,330.61v2.02h-.67v-2.02M368.78,326.56v2.02h-.67v-2.02M368.78,322.52v2.02h-.67v-2.02M368.78,318.47v2.02h-.67v-2.02M368.78,314.43v2.02h-.67v-2.02M368.78,310.38v2.02h-.67v-2.02M368.78,306.34v2.02h-.67v-2.02M368.78,302.29v2.02h-.67v-2.02M368.78,298.24v2.02h-.67v-2.02M368.78,294.2v2.02h-.67v-2.02M368.78,290.15v2.02h-.67v-2.02M368.78,286.11v2.02h-.67v-2.02M368.78,282.06v2.02h-.67v-2.02M368.78,278.02v2.02h-.67v-2.02M368.78,273.97v2.02h-.67v-2.02M368.78,269.92v2.02h-.67v-2.02M368.78,265.88v2.02h-.67v-2.02M368.78,261.83v2.02h-.67v-2.02M368.78,257.79v2.02h-.67v-2.02M368.78,253.74v2.02h-.67v-2.02M368.78,249.7v2.02h-.67v-2.02M368.78,245.65v2.02h-.67v-2.02M368.78,241.61v2.02h-.67v-2.02M368.78,237.56v2.02h-.67v-2.02M368.78,233.51v2.02h-.67v-2.02M368.78,229.47v2.02h-.67v-2.02M368.78,225.42v2.02h-.67v-2.02M368.78,221.38v2.02h-.67v-2.02M368.78,217.33v2.02h-.67v-2.02M368.78,213.29v2.02h-.67v-2.02M368.78,209.24v2.02h-.67v-2.02M368.78,205.2v2.02h-.67v-2.02M368.78,201.15v2.02h-.67v-2.02M368.78,197.1v2.02h-.67v-2.02M368.78,193.06v2.02h-.67v-2.02M368.78,189.01v2.02h-.67v-2.02M368.78,184.97v2.02h-.67v-2.02M368.78,180.92v2.02h-.67v-2.02M368.78,176.88v2.02h-.67v-2.02M368.78,172.83v2.02h-.67v-2.02M368.78,168.78v2.02h-.67v-2.02M368.78,164.74v2.02h-.67v-2.02M368.78,160.69v2.02h-.67v-2.02M368.78,156.65v2.02h-.67v-2.02M368.78,152.6v2.02h-.67v-2.02M368.78,148.55v2.02h-.67v-2.02M368.78,144.51v2.02h-.67v-2.02M368.78,140.46v2.02h-.67v-2.02M368.78,136.42v2.02h-.67v-2.02M368.78,132.37v2.02h-.67v-2.02M368.78,128.33v2.02h-.67v-2.02M368.78,124.28v2.02h-.67v-2.02M368.78,120.24v2.02h-.67v-2.02M368.78,116.19v2.02h-.67v-2.02M368.78,112.14v2.02h-.67v-2.02M368.78,108.1v2.02h-.67v-2.02M368.78,104.05v2.02h-.67v-2.02M368.78,100.01v2.02h-.67v-2.02M368.78,95.96v2.02h-.67v-2.02M368.78,91.92v2.02h-.67v-2.02M368.78,87.87v2.02h-.67v-2.02M368.78,83.83v2.02h-.67v-2.02M368.78,79.78v2.02h-.67v-2.02"/>
  <g class="cls-8">
    <path d="M340.08,66.28h1.96l-.6-1.6c-.18-.49-.32-.89-.41-1.2-.07.37-.18.74-.31,1.11l-.64,1.7M338.41,68.65l2.22-5.79h.83l2.37,5.79h-.87l-.68-1.75h-2.42l-.64,1.75h-.81"/>
    <path d="M344.35,68.65v-4.2h.64v.6c.31-.46.75-.69,1.34-.69.25,0,.48.05.7.14.21.09.37.21.48.36.1.15.18.32.22.53.03.13.04.36.04.69v2.58h-.71v-2.55c0-.29-.03-.51-.08-.65-.06-.14-.15-.26-.29-.34-.14-.08-.31-.13-.5-.13-.3,0-.56.09-.78.29-.22.19-.33.56-.33,1.09v2.29h-.71"/>
    <path d="M351.52,66.55c-.26.1-.64.19-1.16.27-.29.04-.5.09-.62.14-.12.05-.21.13-.28.23-.07.1-.1.21-.1.34,0,.19.07.35.22.47.14.13.35.19.63.19s.52-.06.73-.18c.21-.12.37-.28.47-.49.08-.16.11-.4.11-.71v-.26M351.58,68.14c-.26.22-.52.38-.76.47-.24.09-.5.14-.78.14-.46,0-.81-.11-1.06-.34-.25-.23-.37-.51-.37-.86,0-.21.05-.39.14-.56.09-.17.22-.31.37-.41.15-.1.32-.18.51-.23.14-.04.35-.07.63-.11.57-.07,1-.15,1.27-.25,0-.1,0-.16,0-.19,0-.29-.07-.49-.2-.61-.18-.16-.45-.24-.81-.24-.33,0-.58.06-.74.18-.16.12-.28.32-.35.62l-.7-.09c.06-.3.17-.54.31-.72.14-.18.35-.32.63-.42.27-.1.59-.15.95-.15s.65.04.87.13c.22.08.39.19.49.32.1.13.18.29.22.48.02.12.04.34.04.66v.95c0,.66.01,1.08.05,1.25.03.17.09.34.18.5h-.74c-.07-.15-.12-.32-.14-.52"/>
    <rect x="353.33" y="62.86" width=".71" height="5.79"/>
    <path d="M355.11,70.27l-.08-.67c.15.04.29.06.41.06.16,0,.28-.03.38-.08.09-.05.17-.13.23-.22.04-.07.12-.25.22-.53.01-.04.03-.1.06-.17l-1.59-4.2h.77l.87,2.43c.11.31.21.63.3.97.08-.33.18-.64.29-.96l.9-2.45h.71l-1.6,4.27c-.17.46-.3.78-.4.95-.13.23-.27.4-.43.52-.16.11-.36.16-.58.16-.14,0-.29-.03-.46-.09"/>
    <path d="M360.74,68.02l.1.63c-.2.04-.38.06-.54.06-.26,0-.46-.04-.6-.12-.14-.08-.24-.19-.3-.32-.06-.13-.09-.41-.09-.84v-2.41h-.52v-.55h.52v-1.04l.71-.43v1.47h.72v.55h-.72v2.45c0,.2.01.33.04.39.02.06.07.1.12.14.06.03.14.05.24.05.08,0,.18,0,.31-.03"/>
    <path d="M361.43,68.65v-4.2h.71v4.2h-.71M361.43,63.68v-.82h.71v.82h-.71"/>
    <path d="M365.96,67.12l.7.09c-.08.48-.27.86-.59,1.13-.31.27-.7.41-1.16.41-.57,0-1.04-.19-1.38-.56-.35-.38-.52-.91-.52-1.61,0-.45.08-.85.23-1.19.15-.34.38-.59.69-.76.31-.17.64-.25,1-.25.45,0,.83.11,1.12.35.29.23.47.56.56.98l-.69.11c-.07-.28-.18-.49-.35-.64-.17-.14-.37-.21-.61-.21-.36,0-.65.13-.87.39-.22.26-.34.66-.34,1.22s.11.97.32,1.23c.22.25.5.38.85.38.28,0,.51-.08.7-.26.19-.17.3-.43.36-.79"/>
    <path d="M366.99,67.4l.7-.11c.04.28.15.5.33.65.18.15.43.23.76.23s.57-.07.73-.2c.16-.13.24-.29.24-.47,0-.16-.07-.29-.21-.38-.1-.06-.34-.14-.73-.24-.52-.13-.88-.24-1.08-.34-.2-.09-.35-.23-.46-.4-.1-.17-.16-.36-.16-.56,0-.19.04-.36.13-.52.08-.16.2-.29.35-.4.11-.08.26-.15.45-.21.19-.06.4-.08.61-.08.33,0,.62.05.87.14.25.09.43.22.55.39.12.16.2.38.24.65l-.7.09c-.03-.22-.12-.38-.27-.51-.15-.12-.37-.18-.64-.18-.33,0-.56.05-.7.16-.14.11-.21.23-.21.38,0,.09.03.17.09.25.06.08.15.14.27.19.07.03.28.09.63.18.5.13.85.24,1.05.33.2.08.35.21.47.37.11.16.17.37.17.61s-.07.46-.21.67-.34.37-.6.49c-.26.11-.56.17-.88.17-.55,0-.96-.11-1.25-.34-.28-.23-.47-.56-.55-1.01"/>
    <path d="M371.15,66.79l.72-.06c.03.29.11.53.24.71.12.19.32.34.58.45.26.11.56.17.89.17.29,0,.55-.04.77-.13.22-.09.39-.21.5-.36.11-.15.16-.32.16-.5s-.05-.34-.16-.48c-.1-.13-.28-.25-.52-.34-.15-.06-.5-.15-1.03-.28-.53-.13-.9-.25-1.12-.36-.28-.14-.48-.32-.62-.54-.13-.21-.2-.45-.2-.72,0-.29.08-.57.25-.82.17-.25.41-.45.73-.58.32-.13.67-.2,1.06-.2.43,0,.81.07,1.14.21.33.14.58.34.76.61.18.27.27.57.28.91l-.73.06c-.04-.37-.17-.64-.4-.83-.23-.19-.56-.28-1.01-.28s-.8.08-1.01.25c-.21.17-.32.37-.32.61,0,.21.08.38.23.51.15.13.53.27,1.16.41.62.14,1.05.26,1.28.37.34.15.58.35.75.59.16.24.24.51.24.82s-.09.6-.26.87c-.18.27-.43.48-.76.64-.33.15-.7.23-1.12.23-.52,0-.96-.08-1.32-.23-.35-.15-.63-.38-.83-.69-.2-.31-.31-.65-.32-1.04"/>
    <path d="M377.24,66.15h2.34c-.03-.35-.12-.62-.27-.79-.23-.27-.52-.41-.88-.41-.33,0-.6.11-.82.33-.22.22-.35.51-.37.88M379.58,67.3l.73.09c-.11.43-.33.76-.64,1-.31.24-.71.36-1.2.36-.61,0-1.1-.19-1.46-.57-.36-.38-.54-.91-.54-1.59s.18-1.25.55-1.64c.36-.39.83-.58,1.41-.58s1.02.19,1.37.57c.36.38.53.92.53,1.61,0,.04,0,.1,0,.19h-3.13c.03.46.16.81.39,1.06.23.24.53.37.88.37.26,0,.48-.07.67-.21.18-.14.33-.36.44-.66"/>
    <path d="M381.2,68.65v-4.2h.64v.64c.16-.3.31-.49.45-.59.14-.09.29-.14.46-.14.24,0,.48.08.73.23l-.25.66c-.17-.1-.35-.15-.52-.15-.15,0-.29.05-.42.14-.12.09-.21.22-.26.39-.08.25-.12.53-.12.83v2.2h-.71"/>
    <path d="M385.06,68.65l-1.6-4.2h.75l.9,2.51c.1.27.19.55.27.85.06-.22.15-.49.26-.8l.93-2.56h.73l-1.59,4.2h-.66"/>
    <path d="M387.95,68.65v-4.2h.71v4.2h-.71M387.95,63.68v-.82h.71v.82h-.71"/>
    <path d="M392.48,67.12l.7.09c-.08.48-.27.86-.59,1.13-.31.27-.7.41-1.16.41-.57,0-1.04-.19-1.38-.56-.35-.38-.52-.91-.52-1.61,0-.45.08-.85.23-1.19.15-.34.38-.59.69-.76.31-.17.64-.25,1-.25.45,0,.83.11,1.12.35.29.23.47.56.56.98l-.69.11c-.07-.28-.18-.49-.35-.64-.17-.14-.37-.21-.61-.21-.36,0-.65.13-.87.39-.22.26-.34.66-.34,1.22s.11.97.32,1.23c.22.25.5.38.85.38.28,0,.51-.08.7-.26.19-.17.3-.43.36-.79"/>
    <path d="M394.32,66.15h2.34c-.03-.35-.12-.62-.27-.79-.23-.27-.52-.41-.88-.41-.33,0-.6.11-.82.33-.22.22-.35.51-.37.88M396.66,67.3l.73.09c-.11.43-.33.76-.64,1-.31.24-.71.36-1.2.36-.61,0-1.1-.19-1.46-.57-.36-.38-.54-.91-.54-1.59s.18-1.25.55-1.64c.36-.39.83-.58,1.41-.58s1.02.19,1.37.57c.36.38.53.92.53,1.61,0,.04,0,.1,0,.19h-3.13c.03.46.16.81.39,1.06.23.24.53.37.88.37.26,0,.48-.07.67-.21.18-.14.33-.36.44-.66"/>
  </g>
  <rect class="cls-5" x="365.07" y="232.17" width="6.74" height="60.01"/>
  <rect class="cls-3" x="365.07" y="232.16" width="6.74" height="60.01"/>
  <polyline class="cls-2" points="371.81 241.6 388.67 241.6 388.67 261.83 380.66 261.83"/>
  <polyline points="375.94 261.83 380.66 259.47 380.66 264.19 375.94 261.83"/>
  <polygon class="cls-2" points="375.94 261.83 380.66 259.47 380.66 264.19 375.94 261.83"/>
  <rect class="cls-5" x="391.03" y="245.99" width="32.36" height="8.77"/>
  <path d="M391.26,251.58l.64-.1c.04.26.14.46.3.59.16.14.4.21.69.21s.52-.06.67-.18c.14-.12.22-.26.22-.43,0-.15-.06-.26-.19-.35-.09-.06-.31-.13-.67-.22-.48-.12-.81-.22-.99-.31-.18-.09-.32-.21-.42-.37-.09-.16-.14-.33-.14-.52,0-.17.04-.33.12-.48.08-.14.18-.27.32-.36.1-.07.24-.14.41-.19.17-.05.36-.08.56-.08.3,0,.57.04.79.13.23.09.4.2.51.35.11.15.18.35.22.6l-.64.09c-.03-.2-.11-.35-.25-.46-.14-.11-.34-.17-.59-.17-.3,0-.51.05-.64.15-.13.1-.19.21-.19.35,0,.08.03.16.08.23.05.07.14.13.25.17.07.02.26.08.58.17.46.12.78.22.97.3.18.08.32.19.43.34.1.15.16.33.16.56s-.06.42-.19.61c-.13.19-.31.34-.55.45-.24.11-.51.16-.81.16-.5,0-.88-.1-1.14-.31-.26-.21-.43-.51-.5-.92"/>
  <path d="M395.72,250.44h2.15c-.03-.32-.11-.57-.25-.73-.21-.25-.48-.38-.81-.38-.3,0-.55.1-.76.3-.2.2-.32.47-.34.8M397.86,251.49l.67.08c-.11.39-.3.7-.59.92-.29.22-.65.33-1.1.33-.56,0-1.01-.17-1.34-.52-.33-.35-.49-.83-.49-1.46s.17-1.15.5-1.51c.33-.36.76-.54,1.3-.54s.93.17,1.26.53c.33.35.49.84.49,1.48,0,.04,0,.1,0,.17h-2.87c.02.42.14.75.36.97.21.22.48.34.8.34.24,0,.44-.06.61-.19.17-.12.3-.33.4-.6"/>
  <path d="M399.34,252.73v-3.85h.59v.58c.15-.27.29-.45.41-.54.13-.09.27-.13.42-.13.22,0,.44.07.67.21l-.22.6c-.16-.09-.32-.14-.48-.14-.14,0-.27.04-.38.13-.11.09-.19.2-.24.36-.07.23-.11.49-.11.76v2.01h-.65"/>
  <path d="M401.82,252.73v-3.85h.65v3.85h-.65M401.82,248.17v-.75h.65v.75h-.65"/>
  <path d="M405.92,250.8c-.24.1-.59.18-1.06.25-.27.04-.46.08-.57.13-.11.05-.2.12-.26.21-.06.09-.09.2-.09.31,0,.17.07.32.2.43.13.12.32.17.58.17s.47-.05.67-.16c.2-.11.34-.26.43-.45.07-.15.11-.36.11-.65v-.24M405.98,252.26c-.24.2-.47.35-.7.43-.22.08-.46.13-.72.13-.42,0-.75-.1-.97-.31-.23-.21-.34-.47-.34-.79,0-.19.04-.36.13-.52.09-.16.2-.28.34-.37.14-.09.3-.16.47-.21.13-.03.32-.07.58-.1.53-.06.91-.14,1.16-.22,0-.09,0-.14,0-.17,0-.26-.06-.45-.18-.56-.17-.15-.41-.22-.74-.22-.31,0-.53.05-.68.16-.14.11-.25.3-.32.57l-.64-.09c.06-.27.15-.49.29-.66.13-.17.32-.3.58-.39.25-.09.54-.14.87-.14s.59.04.8.12c.2.08.35.17.45.29.1.12.16.26.2.44.02.11.03.31.03.6v.87c0,.6.01.99.04,1.15.03.16.08.31.16.46h-.68c-.07-.13-.11-.29-.13-.47"/>
  <rect x="407.58" y="247.42" width=".65" height="5.31"/>
  <path d="M409.24,252.73v-3.85h.65v3.85h-.65M409.24,248.17v-.75h.65v.75h-.65"/>
  <path d="M410.54,252.73v-.53l2.45-2.81c-.28.01-.52.02-.74.02h-1.57v-.53h3.14v.43l-2.08,2.44-.4.45c.29-.02.56-.03.82-.03h1.78v.56h-3.4"/>
  <path d="M415.08,250.44h2.15c-.03-.32-.11-.57-.25-.73-.21-.25-.48-.38-.81-.38-.3,0-.55.1-.76.3-.2.2-.32.47-.34.8M417.23,251.49l.67.08c-.11.39-.3.7-.59.92-.29.22-.65.33-1.1.33-.56,0-1.01-.17-1.34-.52-.33-.35-.49-.83-.49-1.46s.17-1.15.5-1.51c.33-.36.76-.54,1.3-.54s.93.17,1.26.53c.33.35.49.84.49,1.48,0,.04,0,.1,0,.17h-2.87c.02.42.14.75.36.97.21.22.48.34.8.34.24,0,.44-.06.61-.19.17-.12.3-.33.4-.6"/>
  <path d="M419.96,254.29c-.36-.45-.66-.99-.91-1.59-.25-.61-.37-1.24-.37-1.89,0-.57.09-1.12.28-1.65.22-.61.55-1.22,1.01-1.83h.47c-.29.5-.49.86-.58,1.08-.15.33-.26.68-.35,1.04-.1.45-.16.91-.16,1.36,0,1.16.36,2.32,1.08,3.48h-.47"/>
  <path d="M421.61,254.29h-.47c.72-1.16,1.08-2.32,1.08-3.48,0-.45-.05-.9-.16-1.35-.08-.36-.2-.71-.34-1.04-.09-.22-.29-.58-.58-1.09h.47c.45.6.79,1.21,1.01,1.83.18.53.28,1.08.28,1.65,0,.65-.12,1.28-.37,1.89-.25.61-.55,1.14-.91,1.59"/>
  <rect class="cls-5" x="368.44" y="255.43" width="6.74" height="26.97"/>
  <rect class="cls-3" x="368.44" y="255.43" width="6.74" height="26.97"/>
  <rect class="cls-5" x="483.07" y="52.81" width="67.43" height="26.97"/>
  <rect class="cls-3" x="483.07" y="52.81" width="67.43" height="26.97"/>
  <path d="M517.12,403.43v2.02h-.67v-2.02M517.12,399.39v2.02h-.67v-2.02M517.12,395.34v2.02h-.67v-2.02M517.12,391.29v2.02h-.67v-2.02M517.12,387.25v2.02h-.67v-2.02M517.12,383.2v2.02h-.67v-2.02M517.12,379.16v2.02h-.67v-2.02M517.12,375.11v2.02h-.67v-2.02M517.12,371.07v2.02h-.67v-2.02M517.12,367.02v2.02h-.67v-2.02M517.12,362.98v2.02h-.67v-2.02M517.12,358.93v2.02h-.67v-2.02M517.12,354.88v2.02h-.67v-2.02M517.12,350.84v2.02h-.67v-2.02M517.12,346.79v2.02h-.67v-2.02M517.12,342.75v2.02h-.67v-2.02M517.12,338.7v2.02h-.67v-2.02M517.12,334.65v2.02h-.67v-2.02M517.12,330.61v2.02h-.67v-2.02M517.12,326.56v2.02h-.67v-2.02M517.12,322.52v2.02h-.67v-2.02M517.12,318.47v2.02h-.67v-2.02M517.12,314.43v2.02h-.67v-2.02M517.12,310.38v2.02h-.67v-2.02M517.12,306.34v2.02h-.67v-2.02M517.12,302.29v2.02h-.67v-2.02M517.12,298.24v2.02h-.67v-2.02M517.12,294.2v2.02h-.67v-2.02M517.12,290.15v2.02h-.67v-2.02M517.12,286.11v2.02h-.67v-2.02M517.12,282.06v2.02h-.67v-2.02M517.12,278.02v2.02h-.67v-2.02M517.12,273.97v2.02h-.67v-2.02M517.12,269.92v2.02h-.67v-2.02M517.12,265.88v2.02h-.67v-2.02M517.12,261.83v2.02h-.67v-2.02M517.12,257.79v2.02h-.67v-2.02M517.12,253.74v2.02h-.67v-2.02M517.12,249.7v2.02h-.67v-2.02M517.12,245.65v2.02h-.67v-2.02M517.12,241.61v2.02h-.67v-2.02M517.12,237.56v2.02h-.67v-2.02M517.12,233.51v2.02h-.67v-2.02M517.12,229.47v2.02h-.67v-2.02M517.12,225.42v2.02h-.67v-2.02M517.12,221.38v2.02h-.67v-2.02M517.12,217.33v2.02h-.67v-2.02M517.12,213.29v2.02h-.67v-2.02M517.12,209.24v2.02h-.67v-2.02M517.12,205.2v2.02h-.67v-2.02M517.12,201.15v2.02h-.67v-2.02M517.12,197.1v2.02h-.67v-2.02M517.12,193.06v2.02h-.67v-2.02M517.12,189.01v2.02h-.67v-2.02M517.12,184.97v2.02h-.67v-2.02M517.12,180.92v2.02h-.67v-2.02M517.12,176.88v2.02h-.67v-2.02M517.12,172.83v2.02h-.67v-2.02M517.12,168.78v2.02h-.67v-2.02M517.12,164.74v2.02h-.67v-2.02M517.12,160.69v2.02h-.67v-2.02M517.12,156.65v2.02h-.67v-2.02M517.12,152.6v2.02h-.67v-2.02M517.12,148.55v2.02h-.67v-2.02M517.12,144.51v2.02h-.67v-2.02M517.12,140.46v2.02h-.67v-2.02M517.12,136.42v2.02h-.67v-2.02M517.12,132.37v2.02h-.67v-2.02M517.12,128.33v2.02h-.67v-2.02M517.12,124.28v2.02h-.67v-2.02M517.12,120.24v2.02h-.67v-2.02M517.12,116.19v2.02h-.67v-2.02M517.12,112.14v2.02h-.67v-2.02M517.12,108.1v2.02h-.67v-2.02M517.12,104.05v2.02h-.67v-2.02M517.12,100.01v2.02h-.67v-2.02M517.12,95.96v2.02h-.67v-2.02M517.12,91.92v2.02h-.67v-2.02M517.12,87.87v2.02h-.67v-2.02M517.12,83.83v2.02h-.67v-2.02M517.12,79.78v2.02h-.67v-2.02"/>
  <g class="cls-7">
    <path d="M498.83,62.86h.77v3.35c0,.58-.07,1.04-.2,1.39-.13.34-.37.62-.71.84-.34.21-.79.32-1.35.32s-.99-.09-1.33-.28c-.34-.19-.59-.46-.74-.81-.15-.35-.22-.84-.22-1.45v-3.35h.77v3.34c0,.5.05.87.14,1.11.09.24.25.42.48.55.23.13.51.19.84.19.56,0,.96-.13,1.21-.38.24-.25.36-.75.36-1.47v-3.34"/>
    <path d="M500.49,67.4l.7-.11c.04.28.15.5.33.65.18.15.43.23.76.23s.57-.07.73-.2c.16-.13.24-.29.24-.47,0-.16-.07-.29-.21-.38-.1-.06-.34-.14-.73-.24-.52-.13-.88-.24-1.08-.34-.2-.09-.35-.23-.46-.4-.1-.17-.16-.36-.16-.56,0-.19.04-.36.13-.52.08-.16.2-.29.35-.4.11-.08.26-.15.45-.21.19-.06.4-.08.61-.08.33,0,.62.05.87.14.25.09.43.22.55.39.12.16.2.38.24.65l-.7.09c-.03-.22-.12-.38-.27-.51-.15-.12-.37-.18-.64-.18-.33,0-.56.05-.7.16-.14.11-.21.23-.21.38,0,.09.03.17.09.25.06.08.15.14.27.19.07.03.28.09.63.18.5.13.85.24,1.05.33.2.08.35.21.47.37.11.16.17.37.17.61s-.07.46-.21.67-.34.37-.6.49c-.26.11-.56.17-.88.17-.55,0-.96-.11-1.25-.34-.28-.23-.47-.56-.55-1.01"/>
    <path d="M505.36,66.15h2.34c-.03-.35-.12-.62-.27-.79-.23-.27-.52-.41-.88-.41-.33,0-.6.11-.82.33-.22.22-.35.51-.37.88M507.7,67.3l.73.09c-.11.43-.33.76-.64,1-.31.24-.71.36-1.2.36-.61,0-1.1-.19-1.46-.57-.36-.38-.54-.91-.54-1.59s.18-1.25.55-1.64c.36-.39.83-.58,1.41-.58s1.02.19,1.37.57c.36.38.53.92.53,1.61,0,.04,0,.1,0,.19h-3.13c.03.46.16.81.39,1.06.23.24.53.37.88.37.26,0,.48-.07.67-.21.18-.14.33-.36.44-.66"/>
    <path d="M509.32,68.65v-4.2h.64v.64c.16-.3.31-.49.45-.59.14-.09.29-.14.46-.14.24,0,.48.08.73.23l-.25.66c-.17-.1-.35-.15-.52-.15-.15,0-.29.05-.42.14-.12.09-.21.22-.26.39-.08.25-.12.53-.12.83v2.2h-.71"/>
    <path d="M511.85,66.79l.72-.06c.03.29.11.53.24.71.12.19.32.34.58.45.26.11.56.17.89.17.29,0,.55-.04.77-.13.22-.09.39-.21.5-.36.11-.15.16-.32.16-.5s-.05-.34-.16-.48c-.1-.13-.28-.25-.52-.34-.15-.06-.5-.15-1.03-.28-.53-.13-.9-.25-1.12-.36-.28-.14-.48-.32-.62-.54-.13-.21-.2-.45-.2-.72,0-.29.08-.57.25-.82.17-.25.41-.45.73-.58.32-.13.67-.2,1.06-.2.43,0,.81.07,1.14.21.33.14.58.34.76.61.18.27.27.57.28.91l-.73.06c-.04-.37-.17-.64-.4-.83-.23-.19-.56-.28-1.01-.28s-.8.08-1.01.25c-.21.17-.32.37-.32.61,0,.21.08.38.23.51.15.13.53.27,1.16.41.62.14,1.05.26,1.28.37.34.15.58.35.75.59.16.24.24.51.24.82s-.09.6-.26.87c-.18.27-.43.48-.76.64-.33.15-.7.23-1.12.23-.52,0-.96-.08-1.32-.23-.35-.15-.63-.38-.83-.69-.2-.31-.31-.65-.32-1.04"/>
    <path d="M517.94,66.15h2.34c-.03-.35-.12-.62-.27-.79-.23-.27-.52-.41-.88-.41-.33,0-.6.11-.82.33-.22.22-.35.51-.37.88M520.28,67.3l.73.09c-.11.43-.33.76-.64,1-.31.24-.71.36-1.2.36-.61,0-1.1-.19-1.46-.57-.36-.38-.54-.91-.54-1.59s.18-1.25.55-1.64c.36-.39.83-.58,1.41-.58s1.02.19,1.37.57c.36.38.53.92.53,1.61,0,.04,0,.1,0,.19h-3.13c.03.46.16.81.39,1.06.23.24.53.37.88.37.26,0,.48-.07.67-.21.18-.14.33-.36.44-.66"/>
    <path d="M521.9,68.65v-4.2h.64v.64c.16-.3.31-.49.45-.59.14-.09.29-.14.46-.14.24,0,.48.08.73.23l-.24.66c-.17-.1-.35-.15-.52-.15-.15,0-.29.05-.42.14-.12.09-.21.22-.26.39-.08.25-.12.53-.12.83v2.2h-.71"/>
    <path d="M525.77,68.65l-1.6-4.2h.75l.9,2.51c.1.27.19.55.27.85.06-.22.15-.49.26-.8l.93-2.56h.73l-1.59,4.2h-.66"/>
    <path d="M528.65,68.65v-4.2h.71v4.2h-.71M528.65,63.68v-.82h.71v.82h-.71"/>
    <path d="M533.18,67.12l.7.09c-.08.48-.27.86-.59,1.13-.31.27-.7.41-1.16.41-.57,0-1.04-.19-1.38-.56-.35-.38-.52-.91-.52-1.61,0-.45.08-.85.23-1.19.15-.34.38-.59.69-.76.31-.17.64-.25,1-.25.45,0,.83.11,1.12.35.29.23.47.56.56.98l-.69.11c-.07-.28-.18-.49-.35-.64-.17-.14-.37-.21-.61-.21-.36,0-.65.13-.87.39-.22.26-.34.66-.34,1.22s.11.97.32,1.23c.22.25.5.38.85.38.28,0,.51-.08.7-.26.19-.17.3-.43.36-.79"/>
    <path d="M535.02,66.15h2.34c-.03-.35-.12-.62-.27-.79-.23-.27-.52-.41-.88-.41-.33,0-.6.11-.82.33-.22.22-.35.51-.37.88M537.36,67.3l.73.09c-.11.43-.33.76-.64,1-.31.24-.71.36-1.2.36-.61,0-1.1-.19-1.46-.57-.36-.38-.54-.91-.54-1.59s.18-1.25.55-1.64c.36-.39.83-.58,1.41-.58s1.02.19,1.37.57c.36.38.53.92.53,1.61,0,.04,0,.1,0,.19h-3.13c.03.46.16.81.39,1.06.23.24.53.37.88.37.26,0,.48-.07.67-.21.18-.14.33-.36.44-.66"/>
  </g>
  <rect class="cls-5" x="513.41" y="302.29" width="6.74" height="13.49"/>
  <rect class="cls-3" x="513.41" y="302.29" width="6.74" height="13.48"/>
  <line class="cls-2" x1="68.73" y1="100.01" x2="191.03" y2="100.01"/>
  <polyline points="195.74 100.01 191.02 102.37 191.02 97.65 195.74 100.01"/>
  <polygon class="cls-2" points="195.75 100.01 191.03 102.37 191.03 97.65 195.75 100.01"/>
  <rect class="cls-5" x="83.56" y="89.56" width="99.12" height="8.77"/>
  <path d="M84.41,94.01h2.15c-.03-.32-.11-.57-.25-.73-.21-.25-.48-.38-.81-.38-.3,0-.55.1-.76.3-.2.2-.32.47-.34.8M86.55,95.06l.67.08c-.11.39-.3.7-.59.92-.29.22-.65.33-1.1.33-.56,0-1.01-.17-1.34-.52-.33-.35-.49-.83-.49-1.46s.17-1.15.5-1.51c.33-.36.76-.54,1.3-.54s.93.17,1.26.53c.33.35.49.84.49,1.48,0,.04,0,.1,0,.17h-2.87c.02.42.14.75.36.97.21.22.48.34.8.34.24,0,.44-.06.61-.19.17-.12.3-.33.4-.6"/>
  <path d="M88.05,96.3v-3.85h.59v.55c.28-.42.69-.63,1.22-.63.23,0,.44.04.64.12.19.08.34.19.44.33.1.13.16.3.2.48.02.12.04.33.04.63v2.36h-.65v-2.34c0-.26-.03-.46-.08-.6-.05-.13-.14-.24-.27-.32-.13-.08-.28-.12-.45-.12-.28,0-.52.09-.72.26-.2.18-.3.51-.3,1v2.1h-.65"/>
  <path d="M92.16,96.3v-3.85h.59v.58c.15-.27.29-.45.41-.54.13-.09.27-.13.42-.13.22,0,.44.07.67.21l-.22.6c-.16-.09-.32-.14-.48-.14-.14,0-.27.04-.38.13-.11.09-.19.2-.24.36-.07.23-.11.49-.11.76v2.01h-.65"/>
  <path d="M95.07,94.38c0,.49.11.86.32,1.11.21.24.49.37.81.37s.59-.12.81-.37c.21-.25.32-.62.32-1.13,0-.47-.11-.83-.32-1.08-.22-.24-.48-.37-.81-.37s-.6.12-.81.37c-.21.24-.32.61-.32,1.1M94.4,94.38c0-.71.2-1.24.59-1.58.33-.28.73-.43,1.21-.43.53,0,.96.17,1.3.52.34.35.5.82.5,1.44,0,.49-.07.88-.22,1.17-.15.28-.36.5-.65.66-.28.16-.59.24-.93.24-.54,0-.97-.17-1.31-.52-.33-.34-.5-.84-.5-1.49"/>
  <rect x="98.75" y="90.99" width=".65" height="5.31"/>
  <rect x="100.4" y="90.99" width=".65" height="5.31"/>
  <path d="M101.9,94.59l.66-.06c.03.26.1.48.22.65.11.17.29.31.53.41.24.11.51.16.81.16.27,0,.5-.04.71-.12.2-.08.36-.19.46-.33.1-.14.15-.29.15-.45s-.05-.31-.14-.44c-.1-.12-.26-.23-.48-.31-.14-.05-.46-.14-.95-.26-.49-.12-.83-.23-1.02-.33-.25-.13-.44-.3-.57-.49-.12-.2-.19-.42-.19-.66,0-.27.08-.52.23-.75.15-.23.37-.41.67-.53.29-.12.62-.18.97-.18.39,0,.74.06,1.04.19.3.13.53.31.69.56.16.25.25.53.26.84l-.67.05c-.04-.34-.16-.59-.37-.76-.21-.17-.52-.26-.93-.26s-.73.08-.93.23c-.19.16-.29.34-.29.56,0,.19.07.35.21.47.13.12.49.25,1.06.38.57.13.96.24,1.18.34.31.14.54.32.68.54.15.22.22.47.22.76s-.08.55-.24.8c-.16.25-.39.44-.7.58-.3.14-.64.21-1.02.21-.48,0-.88-.07-1.21-.21-.32-.14-.58-.35-.76-.63-.18-.28-.28-.6-.29-.95"/>
  <path d="M108.42,95.72l.09.58c-.18.04-.35.06-.49.06-.24,0-.42-.04-.55-.11-.13-.07-.22-.17-.28-.3-.05-.12-.08-.38-.08-.77v-2.21h-.48v-.51h.48v-.95l.65-.39v1.34h.66v.51h-.66v2.25c0,.18.01.3.03.36.02.05.06.09.11.13.05.03.12.05.22.05.07,0,.17,0,.29-.03"/>
  <path d="M111.57,96.3v-.56c-.3.43-.71.65-1.22.65-.23,0-.44-.04-.64-.13-.2-.09-.34-.2-.44-.33-.09-.13-.16-.29-.2-.48-.03-.13-.04-.33-.04-.61v-2.38h.65v2.13c0,.34.01.57.04.69.04.17.13.31.26.4.13.1.3.15.49.15s.38-.05.55-.15c.17-.1.29-.24.36-.41.07-.17.11-.42.11-.75v-2.06h.65v3.85h-.58"/>
  <path d="M113.61,94.38c0,.49.1.86.31,1.1.21.24.45.37.74.37s.53-.12.73-.35c.2-.23.3-.59.3-1.07,0-.53-.1-.91-.3-1.16-.2-.25-.45-.37-.75-.37s-.53.12-.73.35c-.19.24-.29.61-.29,1.12M115.67,96.3v-.49c-.24.38-.6.57-1.08.57-.31,0-.59-.08-.85-.25-.26-.17-.46-.4-.6-.71-.14-.3-.21-.65-.21-1.04s.06-.73.19-1.04c.13-.31.32-.55.58-.72.26-.17.54-.25.86-.25.23,0,.44.05.62.15.18.1.33.22.44.38v-1.91h.65v5.31h-.6"/>
  <path d="M117.79,94.01h2.15c-.03-.32-.11-.57-.25-.73-.21-.25-.48-.38-.81-.38-.3,0-.55.1-.76.3-.2.2-.32.47-.34.8M119.93,95.06l.67.08c-.11.39-.3.7-.59.92-.29.22-.65.33-1.1.33-.56,0-1.01-.17-1.34-.52-.33-.35-.49-.83-.49-1.46s.17-1.15.5-1.51c.33-.36.76-.54,1.3-.54s.93.17,1.26.53c.33.35.49.84.49,1.48,0,.04,0,.1,0,.17h-2.87c.02.42.14.75.36.97.21.22.48.34.8.34.24,0,.44-.06.61-.19.17-.12.3-.33.4-.6"/>
  <path d="M121.42,96.3v-3.85h.59v.55c.28-.42.69-.63,1.22-.63.23,0,.44.04.64.12.19.08.34.19.44.33.1.13.16.3.2.48.02.12.04.33.04.63v2.36h-.65v-2.34c0-.26-.03-.46-.08-.6-.05-.13-.14-.24-.27-.32-.13-.08-.28-.12-.45-.12-.28,0-.52.09-.72.26-.2.18-.3.51-.3,1v2.1h-.65"/>
  <path d="M126.97,95.72l.09.58c-.18.04-.35.06-.49.06-.24,0-.42-.04-.55-.11-.13-.07-.22-.17-.28-.3-.05-.12-.08-.38-.08-.77v-2.21h-.48v-.51h.48v-.95l.65-.39v1.34h.66v.51h-.66v2.25c0,.18.01.3.03.36.02.05.06.09.11.13.05.03.12.05.22.05.07,0,.17,0,.29-.03"/>
  <path d="M128.85,97.86c-.36-.45-.66-.99-.91-1.59-.25-.61-.37-1.24-.37-1.89,0-.57.09-1.12.28-1.65.22-.61.55-1.22,1.01-1.83h.47c-.29.5-.49.86-.58,1.08-.15.33-.26.68-.35,1.04-.1.45-.16.91-.16,1.36,0,1.16.36,2.32,1.08,3.48h-.47"/>
  <path d="M129.81,95.15l.64-.1c.04.26.14.46.3.59.16.14.4.21.69.21s.52-.06.67-.18c.14-.12.22-.26.22-.43,0-.15-.06-.26-.19-.35-.09-.06-.31-.13-.67-.22-.48-.12-.81-.22-.99-.31-.18-.09-.32-.21-.42-.37-.09-.16-.14-.33-.14-.52,0-.17.04-.33.12-.48.08-.14.18-.27.32-.36.1-.07.24-.14.41-.19.17-.05.36-.08.56-.08.3,0,.57.04.79.13.23.09.4.2.51.35s.18.35.22.6l-.64.09c-.03-.2-.11-.35-.25-.46-.14-.11-.34-.17-.59-.17-.3,0-.51.05-.64.15-.13.1-.19.21-.19.35,0,.08.03.16.08.23.05.07.14.13.25.17.07.02.26.08.58.17.46.12.78.22.97.3.18.08.32.19.43.34.1.15.16.33.16.56s-.06.42-.19.61c-.13.19-.31.34-.55.45-.24.11-.51.16-.81.16-.5,0-.88-.1-1.14-.31-.26-.21-.43-.51-.5-.92"/>
  <path d="M135.2,95.72l.09.58c-.18.04-.35.06-.49.06-.24,0-.42-.04-.55-.11-.13-.07-.22-.17-.28-.3-.05-.12-.08-.38-.08-.77v-2.21h-.48v-.51h.48v-.95l.65-.39v1.34h.66v.51h-.66v2.25c0,.18.01.3.03.36.02.05.06.09.11.13.05.03.12.05.22.05.07,0,.17,0,.29-.03"/>
  <path d="M138.35,96.3v-.56c-.3.43-.71.65-1.22.65-.23,0-.44-.04-.64-.13-.2-.09-.34-.2-.44-.33-.09-.13-.16-.29-.2-.48-.03-.13-.04-.33-.04-.61v-2.38h.65v2.13c0,.34.01.57.04.69.04.17.13.31.26.4.13.1.3.15.49.15s.38-.05.55-.15c.17-.1.29-.24.36-.41.07-.17.11-.42.11-.75v-2.06h.65v3.85h-.58"/>
  <path d="M140.39,94.38c0,.49.1.86.31,1.1.21.24.45.37.74.37s.53-.12.73-.35c.2-.23.3-.59.3-1.07,0-.53-.1-.91-.3-1.16-.2-.25-.45-.37-.75-.37s-.53.12-.73.35c-.19.24-.29.61-.29,1.12M142.45,96.3v-.49c-.24.38-.6.57-1.08.57-.31,0-.59-.08-.85-.25-.26-.17-.46-.4-.6-.71-.14-.3-.21-.65-.21-1.04s.06-.73.19-1.04c.13-.31.32-.55.58-.72.26-.17.54-.25.86-.25.23,0,.44.05.62.15.18.1.33.22.44.38v-1.91h.65v5.31h-.6"/>
  <path d="M144.57,94.01h2.15c-.03-.32-.11-.57-.25-.73-.21-.25-.48-.38-.81-.38-.3,0-.55.1-.76.3-.2.2-.32.47-.34.8M146.71,95.06l.67.08c-.11.39-.3.7-.59.92-.29.22-.65.33-1.1.33-.56,0-1.01-.17-1.34-.52-.33-.35-.49-.83-.49-1.46s.17-1.15.5-1.51c.33-.36.76-.54,1.3-.54s.93.17,1.26.53c.33.35.49.84.49,1.48,0,.04,0,.1,0,.17h-2.87c.02.42.14.75.36.97.21.22.48.34.8.34.24,0,.44-.06.61-.19.17-.12.3-.33.4-.6"/>
  <path d="M148.21,96.3v-3.85h.59v.55c.28-.42.69-.63,1.22-.63.23,0,.44.04.64.12.19.08.34.19.44.33.1.13.16.3.2.48.02.12.04.33.04.63v2.36h-.65v-2.34c0-.26-.03-.46-.08-.6-.05-.13-.14-.24-.27-.32-.13-.08-.28-.12-.45-.12-.28,0-.52.09-.72.26-.2.18-.3.51-.3,1v2.1h-.65"/>
  <path d="M153.75,95.72l.09.58c-.18.04-.35.06-.49.06-.24,0-.42-.04-.55-.11-.13-.07-.22-.17-.28-.3-.05-.12-.08-.38-.08-.77v-2.21h-.48v-.51h.48v-.95l.65-.39v1.34h.66v.51h-.66v2.25c0,.18.01.3.03.36.02.05.06.09.11.13.05.03.12.05.22.05.07,0,.17,0,.29-.03"/>
  <path d="M154.55,96.3v-.74h.74v.74c0,.27-.05.49-.14.66-.1.17-.25.3-.46.39l-.18-.28c.14-.06.24-.15.3-.27.07-.12.1-.28.11-.51h-.37"/>
  <path d="M161,94.89l.64.08c-.07.44-.25.79-.54,1.04-.29.25-.64.37-1.06.37-.53,0-.95-.17-1.27-.52-.32-.34-.48-.84-.48-1.48,0-.41.07-.78.21-1.09.14-.31.35-.54.63-.7.28-.16.59-.23.92-.23.42,0,.76.1,1.02.32.26.21.43.51.51.9l-.63.1c-.06-.26-.17-.45-.32-.58-.15-.13-.34-.2-.56-.2-.33,0-.59.12-.8.35-.2.24-.31.61-.31,1.12s.1.89.3,1.13c.2.23.46.35.78.35.26,0,.47-.08.64-.24.17-.16.28-.4.33-.72"/>
  <path d="M162.63,94.38c0,.49.11.86.32,1.11.21.24.49.37.81.37s.59-.12.81-.37c.21-.25.32-.62.32-1.13,0-.47-.11-.83-.32-1.08-.22-.24-.48-.37-.81-.37s-.6.12-.81.37c-.21.24-.32.61-.32,1.1M161.96,94.38c0-.71.2-1.24.59-1.58.33-.28.73-.43,1.21-.43.53,0,.96.17,1.3.52.34.35.5.82.5,1.44,0,.49-.07.88-.22,1.17-.15.28-.36.5-.65.66-.28.16-.59.24-.93.24-.54,0-.97-.17-1.31-.52-.33-.34-.5-.84-.5-1.49"/>
  <path d="M168.85,96.3v-.56c-.3.43-.71.65-1.22.65-.23,0-.44-.04-.64-.13-.2-.09-.34-.2-.44-.33-.09-.13-.16-.29-.2-.48-.03-.13-.04-.33-.04-.61v-2.38h.65v2.13c0,.34.01.57.04.69.04.17.13.31.26.4.13.1.3.15.49.15s.38-.05.55-.15c.17-.1.29-.24.36-.41.07-.17.11-.42.11-.75v-2.06h.65v3.85h-.58"/>
  <path d="M170.44,96.3v-3.85h.59v.58c.15-.27.29-.45.41-.54.13-.09.27-.13.42-.13.22,0,.44.07.67.21l-.22.6c-.16-.09-.32-.14-.48-.14-.14,0-.27.04-.38.13-.11.09-.19.2-.24.36-.07.23-.11.49-.11.76v2.01h-.65"/>
  <path d="M172.66,95.15l.64-.1c.04.26.14.46.3.59.16.14.4.21.69.21s.52-.06.67-.18c.14-.12.22-.26.22-.43,0-.15-.06-.26-.19-.35-.09-.06-.31-.13-.67-.22-.48-.12-.81-.22-.99-.31-.18-.09-.32-.21-.42-.37-.09-.16-.14-.33-.14-.52,0-.17.04-.33.12-.48.08-.14.18-.27.32-.36.1-.07.24-.14.41-.19.17-.05.36-.08.56-.08.3,0,.57.04.79.13.23.09.4.2.51.35.11.15.18.35.22.6l-.64.09c-.03-.2-.11-.35-.25-.46-.14-.11-.34-.17-.59-.17-.3,0-.51.05-.64.15-.13.1-.19.21-.19.35,0,.08.03.16.08.23.05.07.14.13.25.17.07.02.26.08.58.17.46.12.78.22.97.3.18.08.32.19.43.34.1.15.16.33.16.56s-.06.42-.19.61c-.13.19-.31.34-.55.45-.24.11-.51.16-.81.16-.5,0-.88-.1-1.14-.31-.26-.21-.43-.51-.5-.92"/>
  <path d="M177.12,94.01h2.15c-.03-.32-.11-.57-.25-.73-.21-.25-.48-.38-.81-.38-.3,0-.55.1-.76.3-.2.2-.32.47-.34.8M179.26,95.06l.67.08c-.11.39-.3.7-.59.92-.29.22-.65.33-1.1.33-.56,0-1.01-.17-1.34-.52-.33-.35-.49-.83-.49-1.46s.17-1.15.5-1.51c.33-.36.76-.54,1.3-.54s.93.17,1.26.53c.33.35.49.84.49,1.48,0,.04,0,.1,0,.17h-2.87c.02.42.14.75.36.97.21.22.48.34.8.34.24,0,.44-.06.61-.19.17-.12.3-.33.4-.6"/>
  <path d="M181.18,97.86h-.47c.72-1.16,1.08-2.32,1.08-3.48,0-.45-.05-.9-.16-1.35-.08-.36-.2-.71-.34-1.04-.09-.22-.29-.58-.58-1.09h.47c.45.6.79,1.21,1.01,1.83.18.53.28,1.08.28,1.65,0,.65-.12,1.28-.37,1.89-.25.61-.55,1.14-.91,1.59"/>
  <polyline class="cls-5" points="91.99 143.84 132.44 143.84 132.44 153.95 125.7 164.06 91.99 164.06 91.99 143.84"/>
  <polygon class="cls-2" points="91.99 143.84 132.44 143.84 132.44 153.95 125.7 164.06 91.99 164.06 91.99 143.84"/>
  <polyline class="cls-2" points="132.45 143.84 303.04 143.84 303.04 204.52 91.99 204.52 91.99 164.06"/>
  <path d="M107.25,154.21c0,.54.12.94.35,1.21.23.27.53.4.88.4s.65-.13.88-.4c.23-.27.35-.68.35-1.23,0-.52-.12-.91-.35-1.18-.24-.27-.53-.4-.88-.4s-.65.13-.88.4c-.23.26-.35.67-.35,1.21M106.52,154.21c0-.78.22-1.35.65-1.73.36-.31.8-.47,1.32-.47.58,0,1.05.19,1.41.57.37.38.55.9.55,1.57,0,.54-.08.96-.24,1.27-.16.31-.4.55-.71.72-.31.17-.65.26-1.01.26-.59,0-1.06-.19-1.42-.56-.36-.38-.54-.92-.54-1.63"/>
  <path d="M111.93,154.24c0,.54.11.94.33,1.2.22.26.48.39.79.39s.59-.13.81-.4c.23-.27.34-.68.34-1.24s-.11-.93-.33-1.2c-.22-.26-.48-.4-.79-.4s-.57.14-.8.42c-.23.28-.35.69-.35,1.23M111.28,157.92v-5.8h.65v.55c.15-.21.32-.37.52-.48.19-.11.42-.16.7-.16.36,0,.67.09.95.28.27.18.48.44.62.78.14.34.21.7.21,1.1,0,.43-.08.82-.23,1.16-.15.34-.38.61-.67.79-.29.18-.6.27-.93.27-.24,0-.45-.05-.64-.15-.19-.1-.34-.23-.46-.38v2.04h-.71"/>
  <path d="M117.34,155.67l.1.63c-.2.04-.38.06-.54.06-.26,0-.46-.04-.6-.12-.14-.08-.24-.19-.3-.32-.06-.13-.09-.41-.09-.84v-2.41h-.52v-.55h.52v-1.04l.71-.43v1.47h.72v.55h-.72v2.45c0,.2.01.33.04.39.02.06.07.1.12.14.06.03.14.05.24.05.08,0,.18,0,.31-.03"/>
  <polyline points="101.45 178.15 101.45 170.75 103.02 170.75 103.02 171.33 102.16 171.33 102.16 177.56 103.02 177.56 103.02 178.15 101.45 178.15"/>
  <path d="M103.39,175.29l.7-.11c.04.28.15.5.33.65.18.15.43.23.76.23s.57-.07.73-.2c.16-.13.24-.29.24-.47,0-.16-.07-.29-.21-.38-.1-.06-.34-.14-.73-.24-.52-.13-.88-.24-1.08-.34-.2-.09-.35-.23-.46-.4-.1-.17-.16-.36-.16-.56,0-.19.04-.36.13-.52.08-.16.2-.29.35-.4.11-.08.26-.15.45-.21.19-.06.4-.08.61-.08.33,0,.62.05.87.14.25.09.43.22.55.39s.2.38.24.65l-.7.09c-.03-.22-.12-.38-.27-.51-.15-.12-.37-.18-.64-.18-.33,0-.56.05-.7.16-.14.11-.21.23-.21.38,0,.09.03.17.09.25.06.08.15.14.27.19.07.03.28.09.63.18.5.13.85.24,1.05.33.2.08.35.21.47.37.11.16.17.37.17.61s-.07.46-.21.67-.34.37-.6.49c-.26.11-.56.17-.88.17-.55,0-.96-.11-1.25-.34-.28-.23-.47-.56-.55-1.01"/>
  <path d="M109.27,175.9l.1.63c-.2.04-.38.06-.54.06-.26,0-.46-.04-.6-.12-.14-.08-.24-.19-.3-.32-.06-.13-.09-.41-.09-.84v-2.41h-.52v-.55h.52v-1.04l.71-.43v1.47h.72v.55h-.72v2.45c0,.2.01.33.04.39.02.06.07.1.12.14.06.03.14.05.24.05.08,0,.18,0,.31-.03"/>
  <path d="M112.64,174.43c-.26.1-.64.19-1.16.27-.29.04-.5.09-.62.14-.12.05-.21.13-.28.23-.07.1-.1.21-.1.34,0,.19.07.35.22.47.14.13.35.19.63.19s.52-.06.73-.18c.21-.12.37-.28.47-.49.08-.16.11-.4.11-.71v-.26M112.7,176.02c-.26.22-.52.38-.76.47-.24.09-.5.14-.78.14-.46,0-.81-.11-1.06-.34-.25-.23-.37-.51-.37-.86,0-.21.05-.39.14-.56.09-.17.22-.31.37-.41.15-.1.32-.18.51-.23.14-.04.35-.07.63-.11.57-.07,1-.15,1.27-.25,0-.1,0-.16,0-.19,0-.29-.07-.49-.2-.61-.18-.16-.45-.24-.81-.24-.33,0-.58.06-.74.18-.16.12-.28.32-.35.62l-.7-.09c.06-.3.17-.54.31-.72.14-.18.35-.32.63-.42.27-.1.59-.15.95-.15s.65.04.87.13c.22.08.39.19.49.32.1.13.18.29.22.48.02.12.04.34.04.66v.95c0,.66.01,1.08.05,1.25.03.17.09.34.18.5h-.74c-.07-.15-.12-.32-.14-.52"/>
  <path d="M116.01,175.9l.1.63c-.2.04-.38.06-.54.06-.26,0-.46-.04-.6-.12-.14-.08-.24-.19-.3-.32-.06-.13-.09-.41-.09-.84v-2.41h-.52v-.55h.52v-1.04l.71-.43v1.47h.72v.55h-.72v2.45c0,.2.01.33.04.39.02.06.07.1.12.14.06.03.14.05.24.05.08,0,.18,0,.31-.03"/>
  <path d="M119.45,176.54v-.62c-.33.47-.77.71-1.33.71-.25,0-.48-.05-.69-.14-.21-.09-.37-.21-.48-.36-.1-.14-.18-.32-.22-.53-.03-.14-.04-.36-.04-.66v-2.6h.71v2.33c0,.37.01.62.04.75.04.19.14.33.28.44.14.11.32.16.54.16s.41-.05.6-.16c.19-.11.32-.26.4-.45.08-.19.12-.46.12-.82v-2.25h.71v4.2h-.64"/>
  <path d="M120.92,175.29l.7-.11c.04.28.15.5.33.65.18.15.43.23.76.23s.57-.07.73-.2c.16-.13.24-.29.24-.47,0-.16-.07-.29-.21-.38-.1-.06-.34-.14-.73-.24-.52-.13-.88-.24-1.08-.34-.2-.09-.35-.23-.46-.4-.1-.17-.16-.36-.16-.56,0-.19.04-.36.13-.52.08-.16.2-.29.35-.4.11-.08.26-.15.45-.21.19-.06.4-.08.61-.08.33,0,.62.05.87.14.25.09.43.22.55.39s.2.38.24.65l-.7.09c-.03-.22-.12-.38-.27-.51-.15-.12-.37-.18-.64-.18-.33,0-.56.05-.7.16-.14.11-.21.23-.21.38,0,.09.03.17.09.25.06.08.15.14.27.19.07.03.28.09.63.18.5.13.85.24,1.05.33.2.08.35.21.47.37.11.16.17.37.17.61s-.07.46-.21.67-.34.37-.6.49c-.26.11-.56.17-.88.17-.55,0-.96-.11-1.25-.34-.28-.23-.47-.56-.55-1.01"/>
  <path d="M131.23,174.89h-3.82v-.66h3.82v.66M131.23,173.13h-3.82v-.66h3.82v.66"/>
  <path d="M135.79,172.8l-.19-1.1v-.95h.81v.95l-.19,1.1h-.43M134.48,172.8l-.2-1.1v-.95h.81v.95l-.18,1.1h-.43"/>
  <path d="M137.85,174.04h2.34c-.03-.35-.12-.62-.27-.79-.23-.27-.52-.41-.88-.41-.33,0-.6.11-.82.33-.22.22-.35.51-.37.88M140.18,175.19l.73.09c-.11.43-.33.76-.64,1-.31.24-.71.36-1.2.36-.61,0-1.1-.19-1.46-.57-.36-.38-.54-.91-.54-1.59s.18-1.25.55-1.64c.36-.39.83-.58,1.41-.58s1.02.19,1.37.57c.36.38.53.92.53,1.61,0,.04,0,.1,0,.19h-3.13c.03.46.16.81.39,1.06.23.24.53.37.88.37.26,0,.48-.07.67-.21.18-.14.33-.36.44-.66"/>
  <path d="M141.81,176.54v-4.2h.64v.6c.31-.46.75-.69,1.34-.69.25,0,.48.05.7.14.21.09.37.21.48.36.1.15.18.32.22.53.03.13.04.36.04.69v2.58h-.71v-2.55c0-.29-.03-.51-.08-.65-.06-.14-.15-.26-.29-.34-.14-.08-.31-.13-.5-.13-.3,0-.56.09-.78.29-.22.19-.33.56-.33,1.09v2.29h-.71"/>
  <path d="M146.3,176.54v-4.2h.64v.64c.16-.3.31-.49.45-.59.14-.09.29-.14.46-.14.24,0,.48.08.73.23l-.25.66c-.17-.1-.35-.15-.52-.15-.15,0-.29.05-.42.14-.12.09-.21.22-.26.39-.08.25-.12.53-.12.83v2.2h-.71"/>
  <path d="M149.47,174.44c0,.54.12.94.35,1.21.23.27.53.4.88.4s.65-.13.88-.4c.23-.27.35-.68.35-1.23,0-.52-.12-.91-.35-1.18-.24-.27-.53-.4-.88-.4s-.65.13-.88.4c-.23.26-.35.67-.35,1.21M148.74,174.44c0-.78.22-1.35.65-1.73.36-.31.8-.47,1.32-.47.58,0,1.05.19,1.41.57.37.38.55.9.55,1.57,0,.54-.08.96-.24,1.27-.16.31-.4.55-.71.72-.31.17-.65.26-1.01.26-.59,0-1.06-.19-1.42-.56-.36-.38-.54-.92-.54-1.63"/>
  <rect x="153.49" y="170.75" width=".71" height="5.79"/>
  <rect x="155.28" y="170.75" width=".71" height="5.79"/>
  <path d="M157.63,174.04h2.34c-.03-.35-.12-.62-.27-.79-.23-.27-.52-.41-.88-.41-.33,0-.6.11-.82.33-.22.22-.35.51-.37.88M159.97,175.19l.73.09c-.11.43-.33.76-.64,1-.31.24-.71.36-1.2.36-.61,0-1.1-.19-1.46-.57-.36-.38-.54-.91-.54-1.59s.18-1.25.55-1.64c.36-.39.83-.58,1.41-.58s1.02.19,1.37.57c.36.38.53.92.53,1.61,0,.04,0,.1,0,.19h-3.13c.03.46.16.81.39,1.06.23.24.53.37.88.37.26,0,.48-.07.67-.21.18-.14.33-.36.44-.66"/>
  <path d="M162.07,174.44c0,.54.11.94.34,1.21.23.26.49.4.8.4s.57-.13.79-.38c.22-.25.33-.64.33-1.16,0-.57-.11-1-.33-1.26-.22-.27-.49-.4-.82-.4s-.58.13-.79.39c-.21.26-.32.66-.32,1.22M164.31,176.54v-.53c-.26.41-.66.62-1.17.62-.33,0-.64-.09-.92-.28-.28-.18-.5-.44-.65-.77-.15-.33-.23-.71-.23-1.14s.07-.8.21-1.14c.14-.34.35-.6.63-.78.28-.18.59-.27.94-.27.25,0,.48.05.68.16.2.11.36.24.48.42v-2.08h.71v5.79h-.66"/>
  <path d="M167.43,172.8l-.19-1.1v-.95h.81v.95l-.19,1.1h-.43M166.13,172.8l-.2-1.1v-.95h.81v.95l-.18,1.1h-.43"/>
  <polyline points="170.14 178.15 168.58 178.15 168.58 177.56 169.43 177.56 169.43 171.33 168.58 171.33 168.58 170.75 170.14 170.75 170.14 178.15"/>
  <path d="M75.81,191.37h-.96v-.67h.96M79.85,191.37h-2.02v-.67h2.02M83.9,191.37h-2.02v-.67h2.02M87.94,191.37h-2.02v-.67h2.02M91.99,191.37h-2.02v-.67h2.02M96.03,191.37h-2.02v-.67h2.02M100.08,191.37h-2.02v-.67h2.02M104.12,191.37h-2.02v-.67h2.02M108.17,191.37h-2.02v-.67h2.02M112.22,191.37h-2.02v-.67h2.02M116.26,191.37h-2.02v-.67h2.02M120.31,191.37h-2.02v-.67h2.02M124.35,191.37h-2.02v-.67h2.02M128.4,191.37h-2.02v-.67h2.02M132.44,191.37h-2.02v-.67h2.02M136.49,191.37h-2.02v-.67h2.02M140.53,191.37h-2.02v-.67h2.02M144.58,191.37h-2.02v-.67h2.02M148.63,191.37h-2.02v-.67h2.02M152.67,191.37h-2.02v-.67h2.02M156.72,191.37h-2.02v-.67h2.02M160.76,191.37h-2.02v-.67h2.02M164.81,191.37h-2.02v-.67h2.02M168.85,191.37h-2.02v-.67h2.02M172.9,191.37h-2.02v-.67h2.02M176.95,191.37h-2.02v-.67h2.02M180.99,191.37h-2.02v-.67h2.02M185.04,191.37h-2.02v-.67h2.02M189.08,191.37h-2.02v-.67h2.02M193.13,191.37h-2.02v-.67h2.02"/>
  <polyline class="cls-2" points="80.16 188 74.09 191.03 80.16 194.07"/>
  <line class="cls-2" x1="203.24" y1="235.54" x2="359.6" y2="235.54"/>
  <polyline points="364.31 235.54 359.59 237.9 359.59 233.18 364.31 235.54"/>
  <polygon class="cls-2" points="364.32 235.54 359.6 237.9 359.6 233.18 364.32 235.54"/>
  <rect class="cls-5" x="219.76" y="225.09" width="128.79" height="8.77"/>
  <path d="M222.79,229.9c-.24.1-.59.18-1.06.25-.27.04-.46.08-.57.13-.11.05-.2.12-.26.21-.06.09-.09.2-.09.31,0,.17.07.32.2.43.13.12.32.17.58.17s.47-.05.67-.16c.2-.11.34-.26.43-.45.07-.15.11-.36.11-.65v-.24M222.85,231.35c-.24.2-.47.35-.7.43-.22.08-.46.13-.72.13-.42,0-.75-.1-.97-.31-.23-.21-.34-.47-.34-.79,0-.19.04-.36.13-.52.09-.16.2-.28.34-.37.14-.09.3-.16.47-.21.13-.03.32-.07.58-.1.53-.06.91-.14,1.16-.22,0-.09,0-.14,0-.17,0-.26-.06-.45-.18-.56-.17-.15-.41-.22-.74-.22-.31,0-.53.05-.68.16-.14.11-.25.3-.32.57l-.64-.09c.06-.27.15-.49.29-.66.13-.17.32-.3.58-.39.25-.09.54-.14.87-.14s.59.04.8.12c.2.08.35.17.45.29.1.12.16.26.2.44.02.11.03.31.03.6v.87c0,.6.01.99.04,1.15.03.16.08.31.16.46h-.68c-.07-.13-.11-.29-.13-.47"/>
  <path d="M224.89,229.91c0,.49.1.86.31,1.1.21.24.45.37.74.37s.53-.12.73-.35c.2-.23.3-.59.3-1.07,0-.53-.1-.91-.3-1.16-.2-.25-.45-.37-.75-.37s-.53.12-.73.35c-.19.24-.29.61-.29,1.12M226.96,231.83v-.49c-.24.38-.6.57-1.08.57-.31,0-.59-.08-.85-.25-.26-.17-.46-.4-.6-.71-.14-.3-.21-.65-.21-1.04s.06-.73.19-1.04c.13-.31.32-.55.58-.72.26-.17.54-.25.86-.25.23,0,.44.05.62.15.18.1.33.22.44.38v-1.91h.65v5.31h-.6"/>
  <path d="M229.02,229.91c0,.49.1.86.31,1.1.21.24.45.37.74.37s.53-.12.73-.35c.2-.23.3-.59.3-1.07,0-.53-.1-.91-.3-1.16-.2-.25-.45-.37-.75-.37s-.53.12-.73.35c-.19.24-.29.61-.29,1.12M231.08,231.83v-.49c-.24.38-.6.57-1.08.57-.31,0-.59-.08-.85-.25-.26-.17-.46-.4-.6-.71-.14-.3-.21-.65-.21-1.04s.06-.73.19-1.04c.13-.31.32-.55.58-.72.26-.17.54-.25.86-.25.23,0,.44.05.62.15.18.1.33.22.44.38v-1.91h.65v5.31h-.6"/>
  <polyline points="232.81 231.83 232.81 226.52 236.64 226.52 236.64 227.15 233.51 227.15 233.51 228.77 236.45 228.77 236.45 229.39 233.51 229.39 233.51 231.2 236.77 231.2 236.77 231.83 232.81 231.83"/>
  <path d="M237.65,231.83v-3.85h.58v.54c.12-.19.28-.34.48-.45.2-.11.43-.17.68-.17.28,0,.52.06.7.18.18.12.31.28.39.5.3-.45.7-.67,1.19-.67.38,0,.67.1.88.32.2.21.31.54.31.98v2.64h-.65v-2.42c0-.26-.02-.45-.06-.56-.04-.11-.12-.21-.23-.28-.11-.07-.24-.1-.39-.1-.27,0-.49.09-.67.27-.18.18-.27.47-.27.86v2.23h-.65v-2.5c0-.29-.05-.51-.16-.65-.11-.14-.28-.22-.52-.22-.18,0-.35.05-.51.14-.16.1-.27.24-.34.42-.07.18-.11.45-.11.8v2h-.65"/>
  <path d="M244.42,229.93c0,.49.1.86.3,1.1.2.24.44.35.73.35s.54-.12.74-.37c.21-.24.31-.62.31-1.14s-.1-.86-.3-1.1c-.2-.24-.44-.37-.72-.37s-.52.13-.74.39c-.21.26-.32.64-.32,1.13M243.83,233.3v-5.32h.59v.5c.14-.2.3-.34.47-.44.18-.1.39-.15.64-.15.33,0,.62.08.87.25.25.17.44.41.57.72.13.31.19.64.19,1.01,0,.39-.07.75-.21,1.06-.14.32-.35.56-.62.72-.27.17-.55.25-.85.25-.22,0-.41-.05-.58-.14-.17-.09-.31-.21-.43-.35v1.87h-.65"/>
  <path d="M249.37,231.25l.09.58c-.18.04-.35.06-.49.06-.24,0-.42-.04-.55-.11-.13-.07-.22-.17-.28-.3-.05-.12-.08-.38-.08-.77v-2.21h-.48v-.51h.48v-.95l.65-.39v1.34h.66v.51h-.66v2.25c0,.18.01.3.03.36.02.05.06.09.11.13.05.03.12.05.22.05.07,0,.17,0,.29-.03"/>
  <path d="M249.98,233.31l-.07-.61c.14.04.27.06.37.06.14,0,.26-.02.35-.07.09-.05.16-.12.21-.2.04-.07.11-.23.2-.49.01-.04.03-.09.06-.16l-1.46-3.85h.7l.8,2.23c.1.28.2.58.28.89.07-.3.16-.59.27-.88l.82-2.24h.65l-1.46,3.91c-.16.42-.28.71-.37.87-.12.21-.25.37-.4.47-.15.1-.33.15-.54.15-.12,0-.26-.03-.42-.08"/>
  <path d="M257.58,229.97l.7.18c-.15.58-.41,1.02-.79,1.32-.38.3-.85.45-1.4.45s-1.04-.12-1.4-.35c-.36-.23-.63-.57-.82-1.01-.19-.44-.28-.92-.28-1.42,0-.55.11-1.03.32-1.45.21-.41.51-.72.9-.94.39-.21.82-.32,1.29-.32.53,0,.98.13,1.34.41.36.27.61.65.76,1.14l-.69.16c-.12-.39-.3-.67-.54-.84-.23-.18-.53-.26-.88-.26-.41,0-.75.1-1.02.29-.27.2-.47.46-.58.79-.11.33-.17.67-.17,1.02,0,.45.07.85.2,1.18.13.34.34.59.61.76.28.17.58.25.9.25.39,0,.73-.11,1-.34.27-.23.46-.56.55-1.01"/>
  <path d="M259.5,229.91c0,.49.11.86.32,1.11.21.24.49.37.81.37s.59-.12.81-.37c.21-.25.32-.62.32-1.13,0-.47-.11-.83-.32-1.08-.22-.24-.48-.37-.81-.37s-.6.12-.81.37c-.21.24-.32.61-.32,1.1M258.83,229.91c0-.71.2-1.24.59-1.58.33-.28.73-.43,1.21-.43.53,0,.96.17,1.3.52.34.35.5.82.5,1.44,0,.49-.07.88-.22,1.17-.15.28-.36.5-.65.66-.28.16-.59.24-.93.24-.54,0-.97-.17-1.31-.52-.33-.34-.5-.84-.5-1.49"/>
  <path d="M265.71,231.83v-.56c-.3.43-.71.65-1.22.65-.23,0-.44-.04-.64-.13-.2-.09-.34-.2-.44-.33-.09-.13-.16-.29-.2-.48-.03-.13-.04-.33-.04-.61v-2.38h.65v2.13c0,.34.01.57.04.69.04.17.13.31.26.4.13.1.3.15.49.15s.38-.05.55-.15c.17-.1.29-.24.36-.41.07-.17.11-.42.11-.75v-2.06h.65v3.85h-.58"/>
  <path d="M267.31,231.83v-3.85h.59v.58c.15-.27.29-.45.41-.54.13-.09.27-.13.42-.13.22,0,.44.07.67.21l-.22.6c-.16-.09-.32-.14-.48-.14-.14,0-.27.04-.38.13-.11.09-.19.2-.24.36-.07.23-.11.49-.11.76v2.01h-.65"/>
  <path d="M269.52,230.68l.64-.1c.04.26.14.46.3.59.16.14.4.21.69.21s.52-.06.67-.18c.14-.12.22-.26.22-.43,0-.15-.06-.26-.19-.35-.09-.06-.31-.13-.67-.22-.48-.12-.81-.22-.99-.31-.18-.09-.32-.21-.42-.37-.09-.16-.14-.33-.14-.52,0-.17.04-.33.12-.48.08-.14.18-.27.32-.36.1-.07.24-.14.41-.19.17-.05.36-.08.56-.08.3,0,.57.04.79.13.23.09.4.2.51.35.11.15.18.35.22.6l-.64.09c-.03-.2-.11-.35-.25-.46-.14-.11-.34-.17-.59-.17-.3,0-.51.05-.64.15-.13.1-.19.21-.19.35,0,.08.03.16.08.23.05.07.14.13.25.17.07.02.26.08.58.17.46.12.78.22.97.3.18.08.32.19.43.34.1.15.16.33.16.56s-.06.42-.19.61c-.13.19-.31.34-.55.45-.24.11-.51.16-.81.16-.5,0-.88-.1-1.14-.31-.26-.21-.43-.51-.5-.92"/>
  <path d="M273.99,229.54h2.15c-.03-.32-.11-.57-.25-.73-.21-.25-.48-.38-.81-.38-.3,0-.55.1-.76.3-.2.2-.32.47-.34.8M276.13,230.59l.67.08c-.11.39-.3.7-.59.92-.29.22-.65.33-1.1.33-.56,0-1.01-.17-1.34-.52-.33-.35-.49-.83-.49-1.46s.17-1.15.5-1.51c.33-.36.76-.54,1.3-.54s.93.17,1.26.53c.33.35.49.84.49,1.48,0,.04,0,.1,0,.17h-2.87c.02.42.14.75.36.97.21.22.48.34.8.34.24,0,.44-.06.61-.19.17-.12.3-.33.4-.6"/>
  <path d="M278.4,231.2h1.13c.35,0,.62-.03.82-.1.2-.07.36-.16.48-.28.17-.17.3-.39.39-.67.09-.28.14-.62.14-1.02,0-.55-.09-.98-.27-1.28-.18-.3-.4-.5-.66-.6-.19-.07-.49-.11-.91-.11h-1.12v4.06M277.7,231.83v-5.31h1.83c.41,0,.73.03.95.08.3.07.56.2.78.38.28.24.49.54.63.91.14.37.21.79.21,1.26,0,.4-.05.76-.14,1.07-.09.31-.21.57-.36.77-.15.2-.31.36-.48.48-.17.12-.39.2-.63.27-.25.06-.53.09-.85.09h-1.92"/>
  <path d="M285.43,229.9c-.24.1-.59.18-1.06.25-.27.04-.46.08-.57.13-.11.05-.2.12-.26.21-.06.09-.09.2-.09.31,0,.17.07.32.2.43.13.12.32.17.58.17s.47-.05.67-.16c.2-.11.34-.26.43-.45.07-.15.11-.36.11-.65v-.24M285.48,231.35c-.24.2-.47.35-.7.43-.22.08-.46.13-.72.13-.42,0-.75-.1-.97-.31-.23-.21-.34-.47-.34-.79,0-.19.04-.36.13-.52.09-.16.2-.28.34-.37.14-.09.3-.16.47-.21.13-.03.32-.07.58-.1.53-.06.91-.14,1.16-.22,0-.09,0-.14,0-.17,0-.26-.06-.45-.18-.56-.17-.15-.41-.22-.74-.22-.31,0-.53.05-.68.16-.14.11-.25.3-.32.57l-.64-.09c.06-.27.15-.49.29-.66.13-.17.32-.3.58-.39.25-.09.54-.14.87-.14s.59.04.8.12c.2.08.35.17.45.29.1.12.16.26.2.44.02.11.03.31.03.6v.87c0,.6.01.99.04,1.15.03.16.08.31.16.46h-.68c-.07-.13-.11-.29-.13-.47"/>
  <path d="M288.52,231.25l.09.58c-.18.04-.35.06-.49.06-.24,0-.42-.04-.55-.11-.13-.07-.22-.17-.28-.3-.05-.12-.08-.38-.08-.77v-2.21h-.48v-.51h.48v-.95l.65-.39v1.34h.66v.51h-.66v2.25c0,.18.01.3.03.36.02.05.06.09.11.13.05.03.12.05.22.05.07,0,.17,0,.29-.03"/>
  <path d="M291.61,229.9c-.24.1-.59.18-1.06.25-.27.04-.46.08-.57.13-.11.05-.2.12-.26.21-.06.09-.09.2-.09.31,0,.17.07.32.2.43.13.12.32.17.58.17s.47-.05.67-.16c.2-.11.34-.26.43-.45.07-.15.11-.36.11-.65v-.24M291.66,231.35c-.24.2-.47.35-.7.43-.22.08-.46.13-.72.13-.42,0-.75-.1-.97-.31-.23-.21-.34-.47-.34-.79,0-.19.04-.36.13-.52.09-.16.2-.28.34-.37.14-.09.3-.16.47-.21.13-.03.32-.07.58-.1.53-.06.91-.14,1.16-.22,0-.09,0-.14,0-.17,0-.26-.06-.45-.18-.56-.17-.15-.41-.22-.74-.22-.31,0-.53.05-.68.16-.14.11-.25.3-.32.57l-.64-.09c.06-.27.15-.49.29-.66.13-.17.32-.3.58-.39.25-.09.54-.14.87-.14s.59.04.8.12c.2.08.35.17.45.29.1.12.16.26.2.44.02.11.03.31.03.6v.87c0,.6.01.99.04,1.15.03.16.08.31.16.46h-.68c-.07-.13-.11-.29-.13-.47"/>
  <path d="M294.52,233.39c-.36-.45-.66-.99-.91-1.59-.25-.61-.37-1.24-.37-1.89,0-.57.09-1.12.28-1.65.22-.61.55-1.22,1.01-1.83h.47c-.29.5-.49.86-.58,1.08-.15.33-.26.68-.35,1.04-.1.45-.16.91-.16,1.36,0,1.16.36,2.32,1.08,3.48h-.47"/>
  <path d="M295.48,230.68l.64-.1c.04.26.14.46.3.59.16.14.4.21.69.21s.52-.06.67-.18c.14-.12.22-.26.22-.43,0-.15-.06-.26-.19-.35-.09-.06-.31-.13-.67-.22-.48-.12-.81-.22-.99-.31-.18-.09-.32-.21-.42-.37-.09-.16-.14-.33-.14-.52,0-.17.04-.33.12-.48.08-.14.18-.27.32-.36.1-.07.24-.14.41-.19.17-.05.36-.08.56-.08.3,0,.57.04.79.13.23.09.4.2.51.35.11.15.18.35.22.6l-.64.09c-.03-.2-.11-.35-.25-.46-.14-.11-.34-.17-.59-.17-.3,0-.51.05-.64.15-.13.1-.19.21-.19.35,0,.08.03.16.08.23.05.07.14.13.25.17.07.02.26.08.58.17.46.12.78.22.97.3.18.08.32.19.43.34.1.15.16.33.16.56s-.06.42-.19.61c-.13.19-.31.34-.55.45-.24.11-.51.16-.81.16-.5,0-.88-.1-1.14-.31-.26-.21-.43-.51-.5-.92"/>
  <path d="M300.88,231.25l.09.58c-.18.04-.35.06-.49.06-.24,0-.42-.04-.55-.11-.13-.07-.22-.17-.28-.3-.05-.12-.08-.38-.08-.77v-2.21h-.48v-.51h.48v-.95l.65-.39v1.34h.66v.51h-.66v2.25c0,.18.01.3.03.36.02.05.06.09.11.13.05.03.12.05.22.05.07,0,.17,0,.29-.03"/>
  <path d="M304.03,231.83v-.56c-.3.43-.71.65-1.22.65-.23,0-.44-.04-.64-.13-.2-.09-.34-.2-.44-.33-.09-.13-.16-.29-.2-.48-.03-.13-.04-.33-.04-.61v-2.38h.65v2.13c0,.34.01.57.04.69.04.17.13.31.26.4.13.1.3.15.49.15s.38-.05.55-.15c.17-.1.29-.24.36-.41.07-.17.11-.42.11-.75v-2.06h.65v3.85h-.58"/>
  <path d="M306.07,229.91c0,.49.1.86.31,1.1.21.24.45.37.74.37s.53-.12.73-.35c.2-.23.3-.59.3-1.07,0-.53-.1-.91-.3-1.16-.2-.25-.45-.37-.75-.37s-.53.12-.73.35c-.19.24-.29.61-.29,1.12M308.13,231.83v-.49c-.24.38-.6.57-1.08.57-.31,0-.59-.08-.85-.25-.26-.17-.46-.4-.6-.71-.14-.3-.21-.65-.21-1.04s.06-.73.19-1.04c.13-.31.32-.55.58-.72.26-.17.54-.25.86-.25.23,0,.44.05.62.15.18.1.33.22.44.38v-1.91h.65v5.31h-.6"/>
  <path d="M310.25,229.54h2.15c-.03-.32-.11-.57-.25-.73-.21-.25-.48-.38-.81-.38-.3,0-.55.1-.76.3-.2.2-.32.47-.34.8M312.39,230.59l.67.08c-.11.39-.3.7-.59.92-.29.22-.65.33-1.1.33-.56,0-1.01-.17-1.34-.52-.33-.35-.49-.83-.49-1.46s.17-1.15.5-1.51c.33-.36.76-.54,1.3-.54s.93.17,1.26.53c.33.35.49.84.49,1.48,0,.04,0,.1,0,.17h-2.87c.02.42.14.75.36.97.21.22.48.34.8.34.24,0,.44-.06.61-.19.17-.12.3-.33.4-.6"/>
  <path d="M313.88,231.83v-3.85h.59v.55c.28-.42.69-.63,1.22-.63.23,0,.44.04.64.12.19.08.34.19.44.33.1.13.16.3.2.48.02.12.04.33.04.63v2.36h-.65v-2.34c0-.26-.03-.46-.08-.6-.05-.13-.14-.24-.27-.32-.13-.08-.28-.12-.45-.12-.28,0-.52.09-.72.26-.2.18-.3.51-.3,1v2.1h-.65"/>
  <path d="M319.43,231.25l.09.58c-.18.04-.35.06-.49.06-.24,0-.42-.04-.55-.11-.13-.07-.22-.17-.28-.3-.05-.12-.08-.38-.08-.77v-2.21h-.48v-.51h.48v-.95l.65-.39v1.34h.66v.51h-.66v2.25c0,.18.01.3.03.36.02.05.06.09.11.13.05.03.12.05.22.05.07,0,.17,0,.29-.03"/>
  <path d="M320.23,231.83v-.74h.74v.74c0,.27-.05.49-.14.66-.1.17-.25.3-.46.39l-.18-.28c.14-.06.24-.15.3-.27.07-.12.1-.28.11-.51h-.37"/>
  <path d="M326.68,230.42l.64.08c-.07.44-.25.79-.54,1.04-.29.25-.64.37-1.06.37-.53,0-.95-.17-1.27-.52-.32-.34-.48-.84-.48-1.48,0-.41.07-.78.21-1.09.14-.31.35-.54.63-.7.28-.16.59-.23.92-.23.42,0,.76.1,1.02.32.26.21.43.51.51.9l-.63.1c-.06-.26-.17-.45-.32-.58-.15-.13-.34-.2-.56-.2-.33,0-.59.12-.8.35-.2.24-.31.61-.31,1.12s.1.89.3,1.13c.2.23.46.35.77.35.26,0,.47-.08.64-.24.17-.16.28-.4.33-.72"/>
  <path d="M328.3,229.91c0,.49.11.86.32,1.11.21.24.49.37.81.37s.59-.12.81-.37c.21-.25.32-.62.32-1.13,0-.47-.11-.83-.32-1.08-.22-.24-.48-.37-.81-.37s-.6.12-.81.37c-.21.24-.32.61-.32,1.1M327.63,229.91c0-.71.2-1.24.59-1.58.33-.28.73-.43,1.21-.43.53,0,.96.17,1.3.52.34.35.5.82.5,1.44,0,.49-.07.88-.22,1.17-.15.28-.36.5-.65.66-.28.16-.59.24-.93.24-.54,0-.97-.17-1.31-.52-.33-.34-.5-.84-.5-1.49"/>
  <path d="M334.52,231.83v-.56c-.3.43-.71.65-1.22.65-.23,0-.44-.04-.64-.13-.2-.09-.34-.2-.44-.33-.09-.13-.16-.29-.2-.48-.03-.13-.04-.33-.04-.61v-2.38h.65v2.13c0,.34.01.57.04.69.04.17.13.31.26.4.13.1.3.15.49.15s.38-.05.55-.15c.17-.1.29-.24.36-.41.07-.17.11-.42.11-.75v-2.06h.65v3.85h-.58"/>
  <path d="M336.12,231.83v-3.85h.59v.58c.15-.27.29-.45.41-.54.13-.09.27-.13.42-.13.22,0,.44.07.67.21l-.22.6c-.16-.09-.32-.14-.48-.14-.14,0-.27.04-.38.13-.11.09-.19.2-.24.36-.07.23-.11.49-.11.76v2.01h-.65"/>
  <path d="M338.33,230.68l.64-.1c.04.26.14.46.3.59.16.14.4.21.69.21s.52-.06.67-.18c.14-.12.22-.26.22-.43,0-.15-.06-.26-.19-.35-.09-.06-.31-.13-.67-.22-.48-.12-.81-.22-.99-.31-.18-.09-.32-.21-.42-.37-.09-.16-.14-.33-.14-.52,0-.17.04-.33.12-.48.08-.14.18-.27.32-.36.1-.07.24-.14.41-.19.17-.05.36-.08.56-.08.3,0,.57.04.79.13.23.09.4.2.51.35.11.15.18.35.22.6l-.64.09c-.03-.2-.11-.35-.25-.46-.14-.11-.34-.17-.59-.17-.3,0-.51.05-.64.15-.13.1-.19.21-.19.35,0,.08.03.16.08.23.05.07.14.13.25.17.07.02.26.08.58.17.46.12.78.22.97.3.18.08.32.19.43.34.1.15.16.33.16.56s-.06.42-.19.61c-.13.19-.31.34-.55.45-.24.11-.51.16-.81.16-.5,0-.88-.1-1.14-.31-.26-.21-.43-.51-.5-.92"/>
  <path d="M342.79,229.54h2.15c-.03-.32-.11-.57-.25-.73-.21-.25-.48-.38-.81-.38-.3,0-.55.1-.76.3-.2.2-.32.47-.34.8M344.93,230.59l.67.08c-.11.39-.3.7-.59.92-.29.22-.65.33-1.1.33-.56,0-1.01-.17-1.34-.52-.33-.35-.49-.83-.49-1.46s.17-1.15.5-1.51c.33-.36.76-.54,1.3-.54s.93.17,1.26.53c.33.35.49.84.49,1.48,0,.04,0,.1,0,.17h-2.87c.02.42.14.75.36.97.21.22.48.34.8.34.24,0,.44-.06.61-.19.17-.12.3-.33.4-.6"/>
  <path d="M346.85,233.39h-.47c.72-1.16,1.08-2.32,1.08-3.48,0-.45-.05-.9-.16-1.35-.08-.36-.2-.71-.34-1.04-.09-.22-.29-.58-.58-1.09h.47c.45.6.79,1.21,1.01,1.83.18.53.28,1.08.28,1.65,0,.65-.12,1.28-.37,1.89-.25.61-.55,1.14-.91,1.59"/>
  <path d="M207.29,289.14h-2.02v-.67h2.02M211.33,289.14h-2.02v-.67h2.02M215.38,289.14h-2.02v-.67h2.02M219.43,289.14h-2.02v-.67h2.02M223.47,289.14h-2.02v-.67h2.02M227.52,289.14h-2.02v-.67h2.02M231.56,289.14h-2.02v-.67h2.02M235.61,289.14h-2.02v-.67h2.02M239.65,289.14h-2.02v-.67h2.02M243.7,289.14h-2.02v-.67h2.02M247.74,289.14h-2.02v-.67h2.02M251.79,289.14h-2.02v-.67h2.02M255.84,289.14h-2.02v-.67h2.02M259.88,289.14h-2.02v-.67h2.02M263.93,289.14h-2.02v-.67h2.02M267.97,289.14h-2.02v-.67h2.02M272.02,289.14h-2.02v-.67h2.02M276.06,289.14h-2.02v-.67h2.02M280.11,289.14h-2.02v-.67h2.02M284.16,289.14h-2.02v-.67h2.02M288.2,289.14h-2.02v-.67h2.02M292.25,289.14h-2.02v-.67h2.02M296.29,289.14h-2.02v-.67h2.02M300.34,289.14h-2.02v-.67h2.02M304.38,289.14h-2.02v-.67h2.02M308.43,289.14h-2.02v-.67h2.02M312.47,289.14h-2.02v-.67h2.02M316.52,289.14h-2.02v-.67h2.02M320.57,289.14h-2.02v-.67h2.02M324.61,289.14h-2.02v-.67h2.02M328.66,289.14h-2.02v-.67h2.02M332.7,289.14h-2.02v-.67h2.02M336.75,289.14h-2.02v-.67h2.02M340.79,289.14h-2.02v-.67h2.02M344.84,289.14h-2.02v-.67h2.02M348.89,289.14h-2.02v-.67h2.02M352.93,289.14h-2.02v-.67h2.02M356.98,289.14h-2.02v-.67h2.02M361.02,289.14h-2.02v-.67h2.02M365.07,289.14h-2.02v-.67h2.02"/>
  <polyline class="cls-2" points="210.07 285.77 204 288.8 210.07 291.84"/>
  <line class="cls-2" x1="203.24" y1="305.66" x2="510.97" y2="305.66"/>
  <polyline points="515.69 305.66 510.97 308.02 510.97 303.3 515.69 305.66"/>
  <polygon class="cls-2" points="515.69 305.66 510.97 308.02 510.97 303.3 515.69 305.66"/>
  <rect class="cls-5" x="343.83" y="295.21" width="31.69" height="8.77"/>
  <path d="M343.83,300.8l.64-.1c.04.26.14.46.3.59.16.14.4.21.69.21s.52-.06.67-.18c.14-.12.22-.26.22-.43,0-.15-.06-.26-.19-.35-.09-.06-.31-.13-.67-.22-.48-.12-.81-.22-.99-.31-.18-.09-.32-.21-.42-.37-.09-.16-.14-.33-.14-.52,0-.17.04-.33.12-.48.08-.14.18-.27.32-.36.1-.07.24-.14.41-.19.17-.05.36-.08.56-.08.3,0,.57.04.79.13.23.09.4.2.51.35.11.15.18.35.22.6l-.64.09c-.03-.2-.11-.35-.25-.46-.14-.11-.34-.17-.59-.17-.3,0-.51.05-.64.15-.13.1-.19.21-.19.35,0,.08.03.16.08.23.05.07.14.13.25.17.07.02.26.08.58.17.46.12.78.22.97.3.18.08.32.19.43.34.1.15.16.33.16.56s-.06.42-.19.61-.31.34-.55.45c-.24.11-.51.16-.81.16-.5,0-.88-.1-1.14-.31-.26-.21-.43-.51-.5-.92"/>
  <path d="M348.29,299.66h2.15c-.03-.32-.11-.56-.25-.73-.21-.25-.48-.38-.81-.38-.3,0-.55.1-.76.3-.2.2-.32.47-.34.8M350.43,300.71l.67.08c-.11.39-.3.7-.59.92-.29.22-.65.33-1.1.33-.56,0-1.01-.17-1.34-.52-.33-.35-.49-.83-.49-1.46s.17-1.15.5-1.51c.33-.36.76-.54,1.3-.54s.93.17,1.26.53c.33.35.49.84.49,1.48,0,.04,0,.1,0,.17h-2.87c.02.42.14.75.36.97.21.22.48.34.8.34.24,0,.44-.06.61-.19.17-.12.3-.33.4-.6"/>
  <path d="M351.91,301.95v-3.85h.59v.58c.15-.27.29-.45.41-.54.13-.09.27-.13.42-.13.22,0,.44.07.67.21l-.22.6c-.16-.09-.32-.14-.48-.14-.14,0-.27.04-.38.13-.11.09-.19.2-.24.36-.07.23-.11.49-.11.76v2.01h-.65"/>
  <path d="M354.39,301.95v-3.85h.65v3.85h-.65M354.39,297.39v-.75h.65v.75h-.65"/>
  <path d="M358.49,300.02c-.24.1-.59.18-1.06.25-.27.04-.46.08-.57.13-.11.05-.2.12-.26.21-.06.09-.09.2-.09.31,0,.17.07.32.2.43.13.12.32.17.58.17s.47-.05.67-.16c.2-.11.34-.26.43-.45.07-.15.11-.36.11-.65v-.24M358.55,301.48c-.24.2-.47.35-.7.43-.22.08-.46.13-.72.13-.42,0-.75-.1-.97-.31-.23-.21-.34-.47-.34-.79,0-.19.04-.36.13-.52.09-.16.2-.28.34-.37.14-.09.3-.16.47-.21.13-.03.32-.07.58-.1.53-.06.91-.14,1.16-.22,0-.09,0-.14,0-.17,0-.26-.06-.45-.18-.56-.17-.15-.41-.22-.74-.22-.31,0-.53.05-.68.16-.14.11-.25.3-.32.57l-.64-.09c.06-.27.15-.49.29-.66.13-.17.32-.3.58-.39.25-.09.54-.14.87-.14s.59.04.8.12c.2.08.35.17.45.29.1.12.16.26.2.44.02.11.03.31.03.6v.87c0,.6.01.99.04,1.15.03.16.08.31.16.46h-.68c-.07-.13-.11-.29-.13-.47"/>
  <rect x="360.14" y="296.64" width=".65" height="5.31"/>
  <path d="M361.81,301.95v-3.85h.65v3.85h-.65M361.81,297.39v-.75h.65v.75h-.65"/>
  <path d="M363.11,301.95v-.53l2.45-2.81c-.28.01-.52.02-.74.02h-1.57v-.53h3.14v.43l-2.08,2.44-.4.45c.29-.02.56-.03.82-.03h1.78v.56h-3.4"/>
  <path d="M367.65,299.66h2.15c-.03-.32-.11-.56-.25-.73-.21-.25-.48-.38-.81-.38-.3,0-.55.1-.76.3-.2.2-.32.47-.34.8M369.79,300.71l.67.08c-.11.39-.3.7-.59.92-.29.22-.65.33-1.1.33-.56,0-1.01-.17-1.34-.52-.33-.35-.49-.83-.49-1.46s.17-1.15.5-1.51c.33-.36.76-.54,1.3-.54s.93.17,1.26.53c.33.35.49.84.49,1.48,0,.04,0,.1,0,.17h-2.87c.02.42.14.75.36.97.21.22.48.34.8.34.24,0,.44-.06.61-.19.17-.12.3-.33.4-.6"/>
  <path d="M372.53,303.51c-.36-.45-.66-.99-.91-1.59-.25-.61-.37-1.24-.37-1.89,0-.57.09-1.12.28-1.65.22-.61.55-1.22,1.01-1.83h.47c-.29.5-.49.86-.58,1.08-.15.33-.26.68-.35,1.04-.1.45-.16.91-.16,1.36,0,1.16.36,2.32,1.08,3.48h-.47"/>
  <path d="M374.18,303.51h-.47c.72-1.16,1.08-2.32,1.08-3.48,0-.45-.05-.9-.16-1.35-.08-.36-.2-.71-.34-1.04-.09-.22-.29-.58-.58-1.09h.47c.45.6.79,1.21,1.01,1.83.18.53.28,1.08.28,1.65,0,.65-.12,1.28-.37,1.89-.25.61-.55,1.14-.91,1.59"/>
  <path d="M205.94,312.74h-1.19v-.67h1.19M209.99,312.74h-2.02v-.67h2.02M214.03,312.74h-2.02v-.67h2.02M218.08,312.74h-2.02v-.67h2.02M222.12,312.74h-2.02v-.67h2.02M226.17,312.74h-2.02v-.67h2.02M230.21,312.74h-2.02v-.67h2.02M234.26,312.74h-2.02v-.67h2.02M238.31,312.74h-2.02v-.67h2.02M242.35,312.74h-2.02v-.67h2.02M246.4,312.74h-2.02v-.67h2.02M250.44,312.74h-2.02v-.67h2.02M254.49,312.74h-2.02v-.67h2.02M258.53,312.74h-2.02v-.67h2.02M262.58,312.74h-2.02v-.67h2.02M266.62,312.74h-2.02v-.67h2.02M270.67,312.74h-2.02v-.67h2.02M274.72,312.74h-2.02v-.67h2.02M278.76,312.74h-2.02v-.67h2.02M282.81,312.74h-2.02v-.67h2.02M286.85,312.74h-2.02v-.67h2.02M290.9,312.74h-2.02v-.67h2.02M294.94,312.74h-2.02v-.67h2.02M298.99,312.74h-2.02v-.67h2.02M303.04,312.74h-2.02v-.67h2.02M307.08,312.74h-2.02v-.67h2.02M311.13,312.74h-2.02v-.67h2.02M315.17,312.74h-2.02v-.67h2.02M319.22,312.74h-2.02v-.67h2.02M323.26,312.74h-2.02v-.67h2.02M327.31,312.74h-2.02v-.67h2.02M331.36,312.74h-2.02v-.67h2.02M335.4,312.74h-2.02v-.67h2.02M339.45,312.74h-2.02v-.67h2.02M343.49,312.74h-2.02v-.67h2.02M347.54,312.74h-2.02v-.67h2.02M351.58,312.74h-2.02v-.67h2.02M355.63,312.74h-2.02v-.67h2.02M359.68,312.74h-2.02v-.67h2.02M363.72,312.74h-2.02v-.67h2.02M367.77,312.74h-2.02v-.67h2.02M371.81,312.74h-2.02v-.67h2.02M375.86,312.74h-2.02v-.67h2.02M379.9,312.74h-2.02v-.67h2.02M383.95,312.74h-2.02v-.67h2.02M387.99,312.74h-2.02v-.67h2.02M392.04,312.74h-2.02v-.67h2.02M396.09,312.74h-2.02v-.67h2.02M400.13,312.74h-2.02v-.67h2.02M404.18,312.74h-2.02v-.67h2.02M408.22,312.74h-2.02v-.67h2.02M412.27,312.74h-2.02v-.67h2.02M416.31,312.74h-2.02v-.67h2.02M420.36,312.74h-2.02v-.67h2.02M424.41,312.74h-2.02v-.67h2.02M428.45,312.74h-2.02v-.67h2.02M432.5,312.74h-2.02v-.67h2.02M436.54,312.74h-2.02v-.67h2.02M440.59,312.74h-2.02v-.67h2.02M444.63,312.74h-2.02v-.67h2.02M448.68,312.74h-2.02v-.67h2.02M452.72,312.74h-2.02v-.67h2.02M456.77,312.74h-2.02v-.67h2.02M460.82,312.74h-2.02v-.67h2.02M464.86,312.74h-2.02v-.67h2.02M468.91,312.74h-2.02v-.67h2.02M472.95,312.74h-2.02v-.67h2.02M477,312.74h-2.02v-.67h2.02M481.04,312.74h-2.02v-.67h2.02M485.09,312.74h-2.02v-.67h2.02M489.14,312.74h-2.02v-.67h2.02M493.18,312.74h-2.02v-.67h2.02M497.23,312.74h-2.02v-.67h2.02M501.27,312.74h-2.02v-.67h2.02M505.32,312.74h-2.02v-.67h2.02M509.36,312.74h-2.02v-.67h2.02M513.41,312.74h-2.02v-.67h2.02"/>
  <polyline class="cls-2" points="210.07 309.37 204 312.4 210.07 315.44"/>
  <rect class="cls-5" x="435.87" y="224.75" width="57.31" height="26.97"/>
  <rect class="cls-3" x="435.87" y="224.75" width="57.31" height="26.97"/>
  <path d="M464.86,405.45v1.35h-.67v-1.35M464.86,401.41v2.02h-.67v-2.02M464.86,397.36v2.02h-.67v-2.02M464.86,393.32v2.02h-.67v-2.02M464.86,389.27v2.02h-.67v-2.02M464.86,385.23v2.02h-.67v-2.02M464.86,381.18v2.02h-.67v-2.02M464.86,377.13v2.02h-.67v-2.02M464.86,373.09v2.02h-.67v-2.02M464.86,369.04v2.02h-.67v-2.02M464.86,365v2.02h-.67v-2.02M464.86,360.95v2.02h-.67v-2.02M464.86,356.91v2.02h-.67v-2.02M464.86,352.86v2.02h-.67v-2.02M464.86,348.82v2.02h-.67v-2.02M464.86,344.77v2.02h-.67v-2.02M464.86,340.72v2.02h-.67v-2.02M464.86,336.68v2.02h-.67v-2.02M464.86,332.63v2.02h-.67v-2.02M464.86,328.59v2.02h-.67v-2.02M464.86,324.54v2.02h-.67v-2.02M464.86,320.5v2.02h-.67v-2.02M464.86,316.45v2.02h-.67v-2.02M464.86,312.4v2.02h-.67v-2.02M464.86,308.36v2.02h-.67v-2.02M464.86,304.31v2.02h-.67v-2.02M464.86,300.27v2.02h-.67v-2.02M464.86,296.22v2.02h-.67v-2.02M464.86,292.18v2.02h-.67v-2.02M464.86,288.13v2.02h-.67v-2.02M464.86,284.08v2.02h-.67v-2.02M464.86,280.04v2.02h-.67v-2.02M464.86,275.99v2.02h-.67v-2.02M464.86,271.95v2.02h-.67v-2.02M464.86,267.9v2.02h-.67v-2.02M464.86,263.86v2.02h-.67v-2.02M464.86,259.81v2.02h-.67v-2.02M464.86,255.77v2.02h-.67v-2.02M464.86,251.72v2.02h-.67v-2.02"/>
  <path d="M442.2,240.59v-.81h.81v.81h-.81M442.2,237.21v-.81h.81v.81h-.81"/>
  <path d="M448.47,238.56l.77.19c-.16.63-.45,1.11-.87,1.44-.42.33-.93.5-1.53.5s-1.13-.13-1.52-.38c-.39-.25-.69-.62-.89-1.1-.2-.48-.31-1-.31-1.55,0-.6.11-1.13.35-1.58.23-.45.56-.79.98-1.02.42-.23.89-.35,1.4-.35.58,0,1.07.15,1.46.44.4.29.67.71.83,1.24l-.75.18c-.13-.42-.33-.73-.58-.92-.25-.19-.58-.29-.96-.29-.44,0-.82.11-1.12.32-.3.21-.51.5-.63.86-.12.36-.18.73-.18,1.11,0,.49.07.92.22,1.29.14.37.37.64.67.82.3.18.63.27.98.27.43,0,.79-.12,1.09-.37.3-.25.5-.61.6-1.1"/>
  <path d="M450.56,238.5c0,.54.12.94.35,1.21.23.27.53.4.88.4s.65-.13.88-.4c.23-.27.35-.68.35-1.23,0-.52-.12-.91-.35-1.18-.24-.27-.53-.4-.88-.4s-.65.13-.88.4c-.23.26-.35.67-.35,1.21M449.83,238.5c0-.78.22-1.35.65-1.73.36-.31.8-.47,1.32-.47.58,0,1.05.19,1.41.57.37.38.55.9.55,1.57,0,.54-.08.96-.24,1.27-.16.31-.4.55-.71.72-.31.17-.65.26-1.01.26-.59,0-1.06-.19-1.42-.56-.36-.38-.54-.92-.54-1.63"/>
  <path d="M457.34,240.59v-.62c-.33.47-.77.71-1.33.71-.25,0-.48-.05-.69-.14-.21-.09-.37-.21-.48-.36-.1-.14-.18-.32-.22-.53-.03-.14-.04-.36-.04-.66v-2.6h.71v2.33c0,.37.01.62.04.75.04.19.14.33.28.44.14.11.32.16.54.16s.41-.05.6-.16c.19-.11.32-.26.4-.45.08-.19.12-.46.12-.82v-2.25h.71v4.2h-.64"/>
  <path d="M459.08,240.59v-4.2h.64v.64c.16-.3.31-.49.45-.59.14-.09.29-.14.46-.14.24,0,.48.08.73.23l-.25.66c-.17-.1-.35-.15-.52-.15-.15,0-.29.05-.42.14-.12.09-.21.22-.26.39-.08.25-.12.53-.12.83v2.2h-.71"/>
  <path d="M461.5,239.34l.7-.11c.04.28.15.5.33.65.18.15.43.23.76.23s.57-.07.73-.2c.16-.13.24-.29.24-.47,0-.16-.07-.29-.21-.38-.1-.06-.34-.14-.73-.24-.52-.13-.88-.24-1.08-.34-.2-.09-.35-.23-.46-.4-.1-.17-.16-.36-.16-.56,0-.19.04-.36.13-.52.08-.16.2-.29.35-.4.11-.08.26-.15.45-.21.19-.06.4-.08.61-.08.33,0,.62.05.87.14.25.09.43.22.55.39.12.16.2.38.24.65l-.7.09c-.03-.22-.12-.38-.27-.51-.15-.12-.37-.18-.64-.18-.33,0-.56.05-.7.16-.14.11-.21.23-.21.38,0,.09.03.17.09.25.06.08.15.14.27.19.07.03.28.09.63.18.5.13.85.24,1.05.33.2.08.35.21.47.37.11.16.17.37.17.61s-.07.46-.21.67-.34.37-.6.49c-.26.11-.56.17-.88.17-.55,0-.96-.11-1.25-.34-.28-.23-.47-.56-.55-1.01"/>
  <path d="M466.36,238.09h2.34c-.03-.35-.12-.62-.27-.79-.23-.27-.52-.41-.88-.41-.33,0-.6.11-.82.33-.22.22-.35.51-.37.88M468.7,239.24l.73.09c-.11.43-.33.76-.64,1-.31.24-.71.36-1.2.36-.61,0-1.1-.19-1.46-.57-.36-.38-.54-.91-.54-1.59s.18-1.25.55-1.64c.36-.39.83-.58,1.41-.58s1.02.19,1.37.57c.36.38.53.92.53,1.61,0,.04,0,.1,0,.19h-3.13c.03.46.16.81.39,1.06.23.24.53.37.88.37.26,0,.48-.07.67-.21.18-.14.33-.36.44-.66"/>
  <path d="M471.18,239.91h1.24c.38,0,.68-.04.9-.11.22-.07.39-.17.52-.3.18-.18.32-.42.42-.73.1-.31.15-.68.15-1.12,0-.6-.1-1.07-.3-1.4-.2-.32-.44-.54-.73-.65-.21-.08-.54-.12-.99-.12h-1.22v4.42M470.42,240.59v-5.79h2c.45,0,.79.03,1.03.08.33.08.61.21.85.41.3.26.53.59.69.99.15.4.23.86.23,1.38,0,.44-.05.83-.15,1.17-.1.34-.23.62-.4.84-.16.22-.34.4-.53.53-.19.13-.42.22-.69.29-.27.07-.58.1-.93.1h-2.09"/>
  <path d="M478.85,238.49c-.26.1-.64.19-1.16.27-.29.04-.5.09-.62.14-.12.05-.21.13-.28.23-.07.1-.1.21-.1.34,0,.19.07.35.22.47.14.13.35.19.63.19s.52-.06.73-.18c.21-.12.37-.28.47-.49.08-.16.11-.4.11-.71v-.26M478.91,240.08c-.26.22-.52.38-.76.47-.24.09-.5.14-.78.14-.46,0-.81-.11-1.06-.34-.25-.23-.37-.51-.37-.86,0-.21.05-.39.14-.56.09-.17.22-.31.37-.41.15-.1.32-.18.51-.23.14-.04.35-.07.63-.11.57-.07,1-.15,1.27-.25,0-.1,0-.16,0-.19,0-.29-.07-.49-.2-.61-.18-.16-.45-.24-.81-.24-.33,0-.58.06-.74.18-.16.12-.28.32-.35.62l-.7-.09c.06-.3.17-.54.31-.72.14-.18.35-.32.63-.42.27-.1.59-.15.95-.15s.65.04.87.13c.22.08.39.19.49.32.1.13.18.29.22.48.02.12.04.34.04.66v.95c0,.66.01,1.08.05,1.25.03.17.09.34.18.5h-.74c-.07-.15-.12-.32-.14-.52"/>
  <path d="M482.22,239.96l.1.63c-.2.04-.38.06-.54.06-.26,0-.46-.04-.6-.12-.14-.08-.24-.19-.3-.32-.06-.13-.09-.41-.09-.84v-2.41h-.52v-.55h.52v-1.04l.71-.43v1.47h.72v.55h-.72v2.45c0,.2.01.33.04.39.02.06.07.1.12.14.06.03.14.05.24.05.08,0,.18,0,.31-.03"/>
  <path d="M485.59,238.49c-.26.1-.64.19-1.16.27-.29.04-.5.09-.62.14-.12.05-.21.13-.28.23-.07.1-.1.21-.1.34,0,.19.07.35.22.47.14.13.35.19.63.19s.52-.06.73-.18c.21-.12.37-.28.47-.49.08-.16.11-.4.11-.71v-.26M485.65,240.08c-.26.22-.52.38-.76.47-.24.09-.5.14-.78.14-.46,0-.81-.11-1.06-.34-.25-.23-.37-.51-.37-.86,0-.21.05-.39.14-.56.09-.17.22-.31.37-.41.15-.1.32-.18.51-.23.14-.04.35-.07.63-.11.57-.07,1-.15,1.27-.25,0-.1,0-.16,0-.19,0-.29-.07-.49-.2-.61-.18-.16-.45-.24-.81-.24-.33,0-.58.06-.74.18-.16.12-.28.32-.35.62l-.7-.09c.06-.3.17-.54.31-.72.14-.18.35-.32.63-.42.27-.1.59-.15.95-.15s.65.04.87.13c.22.08.39.19.49.32.1.13.18.29.22.48.02.12.04.34.04.66v.95c0,.66.01,1.08.05,1.25.03.17.09.34.18.5h-.74c-.07-.15-.12-.32-.14-.52"/>
  <path class="cls-5" d="M72.43,70.41c0,.45-.09.88-.26,1.29-.17.41-.41.78-.73,1.09-.32.32-.68.56-1.09.73-.41.17-.84.26-1.29.26s-.88-.09-1.29-.26c-.41-.17-.78-.42-1.09-.73s-.56-.68-.73-1.09c-.17-.41-.26-.84-.26-1.29s.09-.88.26-1.29c.17-.41.41-.78.73-1.09s.68-.56,1.09-.73c.41-.17.84-.26,1.29-.26s.88.09,1.29.26c.41.17.78.42,1.09.73.32.32.56.68.73,1.09.17.41.26.84.26,1.29"/>
  <path class="cls-3" d="M72.43,70.41c0,.45-.09.88-.26,1.29-.17.41-.42.78-.73,1.09-.32.32-.68.56-1.09.73-.41.17-.84.26-1.29.26s-.88-.09-1.29-.26c-.41-.17-.78-.42-1.1-.73-.32-.32-.56-.68-.73-1.09-.17-.41-.26-.84-.26-1.29s.09-.88.26-1.29c.17-.41.41-.78.73-1.09.32-.32.68-.56,1.1-.73.41-.17.84-.26,1.29-.26s.88.09,1.29.26c.41.17.78.42,1.09.73.32.32.56.68.73,1.09.17.41.26.84.26,1.29"/>
  <line class="cls-2" x1="69.06" y1="73.78" x2="69.06" y2="85.03"/>
  <line class="cls-2" x1="69.06" y1="76.03" x2="62.32" y2="76.03"/>
  <line class="cls-2" x1="69.06" y1="76.03" x2="75.81" y2="76.03"/>
  <line class="cls-2" x1="69.06" y1="85.02" x2="62.32" y2="94.01"/>
  <line class="cls-2" x1="69.06" y1="85.02" x2="75.81" y2="94.01"/>
  <path d="M69.4,401.48v1.95h-.67v-1.95M69.4,397.44v2.02h-.67v-2.02M69.4,393.39v2.02h-.67v-2.02M69.4,389.35v2.02h-.67v-2.02M69.4,385.3v2.02h-.67v-2.02M69.4,381.25v2.02h-.67v-2.02M69.4,377.21v2.02h-.67v-2.02M69.4,373.16v2.02h-.67v-2.02M69.4,369.12v2.02h-.67v-2.02M69.4,365.07v2.02h-.67v-2.02M69.4,361.03v2.02h-.67v-2.02M69.4,356.98v2.02h-.67v-2.02M69.4,352.93v2.02h-.67v-2.02M69.4,348.89v2.02h-.67v-2.02M69.4,344.84v2.02h-.67v-2.02M69.4,340.8v2.02h-.67v-2.02M69.4,336.75v2.02h-.67v-2.02M69.4,332.71v2.02h-.67v-2.02M69.4,328.66v2.02h-.67v-2.02M69.4,324.62v2.02h-.67v-2.02M69.4,320.57v2.02h-.67v-2.02M69.4,316.52v2.02h-.67v-2.02M69.4,312.48v2.02h-.67v-2.02M69.4,308.43v2.02h-.67v-2.02M69.4,304.39v2.02h-.67v-2.02M69.4,300.34v2.02h-.67v-2.02M69.4,296.3v2.02h-.67v-2.02M69.4,292.25v2.02h-.67v-2.02M69.4,288.2v2.02h-.67v-2.02M69.4,284.16v2.02h-.67v-2.02M69.4,280.11v2.02h-.67v-2.02M69.4,276.07v2.02h-.67v-2.02M69.4,272.02v2.02h-.67v-2.02M69.4,267.98v2.02h-.67v-2.02M69.4,263.93v2.02h-.67v-2.02M69.4,259.89v2.02h-.67v-2.02M69.4,255.84v2.02h-.67v-2.02M69.4,251.79v2.02h-.67v-2.02M69.4,247.75v2.02h-.67v-2.02M69.4,243.7v2.02h-.67v-2.02M69.4,239.66v2.02h-.67v-2.02M69.4,235.61v2.02h-.67v-2.02M69.4,231.57v2.02h-.67v-2.02M69.4,227.52v2.02h-.67v-2.02M69.4,223.47v2.02h-.67v-2.02M69.4,219.43v2.02h-.67v-2.02M69.4,215.38v2.02h-.67v-2.02M69.4,211.34v2.02h-.67v-2.02M69.4,207.29v2.02h-.67v-2.02M69.4,203.25v2.02h-.67v-2.02M69.4,199.2v2.02h-.67v-2.02M69.4,195.15v2.02h-.67v-2.02M69.4,191.11v2.02h-.67v-2.02M69.4,187.06v2.02h-.67v-2.02M69.4,183.02v2.02h-.67v-2.02M69.4,178.97v2.02h-.67v-2.02M69.4,174.93v2.02h-.67v-2.02M69.4,170.88v2.02h-.67v-2.02M69.4,166.83v2.02h-.67v-2.02M69.4,162.79v2.02h-.67v-2.02M69.4,158.74v2.02h-.67v-2.02M69.4,154.7v2.02h-.67v-2.02M69.4,150.65v2.02h-.67v-2.02M69.4,146.61v2.02h-.67v-2.02M69.4,142.56v2.02h-.67v-2.02M69.4,138.52v2.02h-.67v-2.02M69.4,134.47v2.02h-.67v-2.02M69.4,130.42v2.02h-.67v-2.02M69.4,126.38v2.02h-.67v-2.02M69.4,122.33v2.02h-.67v-2.02M69.4,118.29v2.02h-.67v-2.02M69.4,114.24v2.02h-.67v-2.02M69.4,110.2v2.02h-.67v-2.02M69.4,106.15v2.02h-.67v-2.02M69.4,102.1v2.02h-.67v-2.02M69.4,98.06v2.02h-.67v-2.02M69.4,94.01v2.02h-.67v-2.02"/>
  <g class="cls-1">
    <path d="M55.14,61.4l.72-.06c.03.29.11.53.24.71.12.19.32.34.58.45.26.11.56.17.89.17.29,0,.55-.04.77-.13.22-.09.39-.21.5-.36.11-.15.16-.32.16-.5s-.05-.34-.16-.48c-.1-.13-.28-.25-.52-.34-.15-.06-.5-.15-1.03-.28-.53-.13-.9-.25-1.12-.36-.28-.14-.48-.32-.62-.54-.13-.21-.2-.45-.2-.72,0-.29.08-.57.25-.82.17-.25.41-.45.73-.58.32-.13.67-.2,1.06-.2.43,0,.81.07,1.14.21.33.14.58.34.76.61.18.27.27.57.28.91l-.73.06c-.04-.37-.17-.64-.4-.83-.23-.19-.56-.28-1.01-.28s-.8.08-1.01.25c-.21.17-.32.37-.32.61,0,.21.08.38.23.51.15.13.53.27,1.16.41.62.14,1.05.26,1.28.37.34.15.58.35.75.59.16.24.24.51.24.82s-.09.6-.26.87c-.18.27-.43.48-.76.64-.33.15-.7.23-1.12.23-.52,0-.96-.08-1.32-.23-.35-.15-.63-.38-.83-.69-.2-.31-.31-.65-.32-1.04"/>
    <path d="M62.25,62.62l.1.63c-.2.04-.38.06-.54.06-.26,0-.46-.04-.6-.12-.14-.08-.24-.19-.3-.32-.06-.13-.09-.41-.09-.84v-2.41h-.52v-.55h.52v-1.04l.71-.43v1.47h.72v.55h-.72v2.45c0,.2.01.33.04.39.02.06.07.1.12.14.06.03.14.05.24.05.08,0,.18,0,.31-.03"/>
    <path d="M65.69,63.26v-.62c-.33.47-.77.71-1.33.71-.25,0-.48-.05-.69-.14-.21-.09-.37-.21-.48-.36-.1-.14-.18-.32-.22-.53-.03-.14-.04-.36-.04-.66v-2.6h.71v2.33c0,.37.01.62.04.75.04.19.14.33.28.44.14.11.32.16.54.16s.41-.05.6-.16c.19-.11.32-.26.4-.45.08-.19.12-.46.12-.82v-2.25h.71v4.2h-.64"/>
    <path d="M67.91,61.17c0,.54.11.94.34,1.21.23.26.49.4.8.4s.57-.13.79-.38c.22-.25.33-.64.33-1.16,0-.57-.11-1-.33-1.26-.22-.27-.49-.4-.82-.4s-.58.13-.79.39c-.21.26-.32.66-.32,1.22M70.16,63.26v-.53c-.26.41-.66.62-1.17.62-.33,0-.64-.09-.92-.28-.28-.18-.5-.44-.65-.77-.15-.33-.23-.71-.23-1.14s.07-.8.21-1.14c.14-.34.35-.6.63-.78.28-.18.59-.27.94-.27.25,0,.48.05.68.16.2.11.36.24.48.42v-2.08h.71v5.79h-.66"/>
    <path d="M72.47,60.76h2.34c-.03-.35-.12-.62-.27-.79-.23-.27-.52-.41-.88-.41-.33,0-.6.11-.82.33-.22.22-.35.51-.37.88M74.81,61.91l.73.09c-.11.43-.33.76-.64,1-.31.24-.71.36-1.2.36-.61,0-1.1-.19-1.46-.57-.36-.38-.54-.91-.54-1.59s.18-1.25.55-1.64c.36-.39.83-.58,1.41-.58s1.02.19,1.37.57c.36.38.53.92.53,1.61,0,.04,0,.1,0,.19h-3.13c.03.46.16.81.39,1.06.23.24.53.37.88.37.26,0,.48-.07.67-.21.18-.14.33-.36.44-.66"/>
    <path d="M76.44,63.26v-4.2h.64v.6c.31-.46.75-.69,1.34-.69.25,0,.48.05.7.14.21.09.37.21.48.36.1.15.18.32.22.53.03.13.04.36.04.69v2.58h-.71v-2.55c0-.29-.03-.51-.08-.65-.06-.14-.15-.26-.29-.34-.14-.08-.31-.13-.5-.13-.3,0-.56.09-.78.29-.22.19-.33.56-.33,1.09v2.29h-.71"/>
    <path d="M82.49,62.62l.1.63c-.2.04-.38.06-.54.06-.26,0-.46-.04-.6-.12-.14-.08-.24-.19-.3-.32-.06-.13-.09-.41-.09-.84v-2.41h-.52v-.55h.52v-1.04l.71-.43v1.47h.72v.55h-.72v2.45c0,.2.01.33.04.39.02.06.07.1.12.14.06.03.14.05.24.05.08,0,.18,0,.31-.03"/>
  </g>
  <path d="M71.09,329.6h-.85v-.67h.85M75.13,329.6h-2.02v-.67h2.02M79.18,329.6h-2.02v-.67h2.02M83.22,329.6h-2.02v-.67h2.02M87.27,329.6h-2.02v-.67h2.02M91.31,329.6h-2.02v-.67h2.02M95.36,329.6h-2.02v-.67h2.02M99.41,329.6h-2.02v-.67h2.02M103.45,329.6h-2.02v-.67h2.02M107.5,329.6h-2.02v-.67h2.02M111.54,329.6h-2.02v-.67h2.02M115.59,329.6h-2.02v-.67h2.02M119.63,329.6h-2.02v-.67h2.02M123.68,329.6h-2.02v-.67h2.02M127.73,329.6h-2.02v-.67h2.02M131.77,329.6h-2.02v-.67h2.02M135.82,329.6h-2.02v-.67h2.02M139.86,329.6h-2.02v-.67h2.02M143.91,329.6h-2.02v-.67h2.02M147.95,329.6h-2.02v-.67h2.02M152,329.6h-2.02v-.67h2.02M156.04,329.6h-2.02v-.67h2.02M160.09,329.6h-2.02v-.67h2.02M164.14,329.6h-2.02v-.67h2.02M168.18,329.6h-2.02v-.67h2.02M172.23,329.6h-2.02v-.67h2.02M176.27,329.6h-2.02v-.67h2.02M180.32,329.6h-2.02v-.67h2.02M184.36,329.6h-2.02v-.67h2.02M188.41,329.6h-2.02v-.67h2.02M192.46,329.6h-2.02v-.67h2.02M196.5,329.6h-2.02v-.67h2.02"/>
  <polyline class="cls-2" points="75.55 326.23 69.48 329.26 75.55 332.29"/>
</svg>